  0
SECTION
  2
HEADER
  9
$ACADVER
  1
AC1027
  9
$ACADMAINTVER
 70
   125
  9
$DWGCODEPAGE
  3
ANSI_936
  9
$LASTSAVEDBY
  1
jaswalh
  9
$REQUIREDVERSIONS
160
                 0
  9
$INSBASE
 10
0.0
 20
0.0
 30
0.0
  9
$EXTMIN
 10
0.0
 20
0.0
 30
0.0
  9
$EXTMAX
 10
594.0
 20
420.0
 30
0.0
  9
$LIMMIN
 10
0.0
 20
0.0
  9
$LIMMAX
 10
594.0
 20
420.0
  9
$ORTHOMODE
 70
     0
  9
$REGENMODE
 70
     1
  9
$FILLMODE
 70
     1
  9
$QTEXTMODE
 70
     0
  9
$MIRRTEXT
 70
     0
  9
$LTSCALE
 40
0.75
  9
$ATTMODE
 70
     1
  9
$TEXTSIZE
 40
3.5
  9
$TRACEWID
 40
1.0
  9
$TEXTSTYLE
  7
Standard
  9
$CLAYER
  8
0
  9
$CELTYPE
  6
ByLayer
  9
$CECOLOR
 62
   256
  9
$CELTSCALE
 40
1.0
  9
$DISPSILH
 70
     0
  9
$DIMSCALE
 40
1.0
  9
$DIMASZ
 40
3.5
  9
$DIMEXO
 40
2.1
  9
$DIMDLI
 40
10.5
  9
$DIMRND
 40
0.0
  9
$DIMDLE
 40
0.0
  9
$DIMEXE
 40
2.1
  9
$DIMTP
 40
0.1
  9
$DIMTM
 40
0.1
  9
$DIMTXT
 40
3.5
  9
$DIMCEN
 40
0.0
  9
$DIMTSZ
 40
0.0
  9
$DIMTOL
 70
     0
  9
$DIMLIM
 70
     0
  9
$DIMTIH
 70
     0
  9
$DIMTOH
 70
     0
  9
$DIMSE1
 70
     0
  9
$DIMSE2
 70
     0
  9
$DIMTAD
 70
     1
  9
$DIMZIN
 70
    12
  9
$DIMBLK
  1

  9
$DIMASO
 70
     1
  9
$DIMSHO
 70
     1
  9
$DIMPOST
  1

  9
$DIMAPOST
  1

  9
$DIMALT
 70
     0
  9
$DIMALTD
 70
     2
  9
$DIMALTF
 40
0.03937
  9
$DIMLFAC
 40
1.0
  9
$DIMTOFL
 70
     1
  9
$DIMTVP
 40
0.0
  9
$DIMTIX
 70
     0
  9
$DIMSOXD
 70
     0
  9
$DIMSAH
 70
     0
  9
$DIMBLK1
  1

  9
$DIMBLK2
  1

  9
$DIMSTYLE
  2
Dim-ISO-25
  9
$DIMCLRD
 70
     0
  9
$DIMCLRE
 70
     0
  9
$DIMCLRT
 70
     0
  9
$DIMTFAC
 40
0.714286
  9
$DIMGAP
 40
1.4
  9
$DIMJUST
 70
     0
  9
$DIMSD1
 70
     0
  9
$DIMSD2
 70
     0
  9
$DIMTOLJ
 70
     0
  9
$DIMTZIN
 70
    12
  9
$DIMALTZ
 70
    12
  9
$DIMALTTZ
 70
    12
  9
$DIMUPT
 70
     0
  9
$DIMDEC
 70
     2
  9
$DIMTDEC
 70
     2
  9
$DIMALTU
 70
     2
  9
$DIMALTTD
 70
     4
  9
$DIMTXSTY
  7
Standard
  9
$DIMAUNIT
 70
     0
  9
$DIMADEC
 70
     2
  9
$DIMALTRND
 40
0.0
  9
$DIMAZIN
 70
     3
  9
$DIMDSEP
 70
    46
  9
$DIMATFIT
 70
     3
  9
$DIMFRAC
 70
     0
  9
$DIMLDRBLK
  1

  9
$DIMLUNIT
 70
     2
  9
$DIMLWD
 70
    -2
  9
$DIMLWE
 70
    -2
  9
$DIMTMOVE
 70
     0
  9
$DIMFXL
 40
1.0
  9
$DIMFXLON
 70
     0
  9
$DIMJOGANG
 40
0.785398
  9
$DIMTFILL
 70
     0
  9
$DIMTFILLCLR
 70
     0
  9
$DIMARCSYM
 70
     0
  9
$DIMLTYPE
  6

  9
$DIMLTEX1
  6

  9
$DIMLTEX2
  6

  9
$DIMTXTDIRECTION
 70
     0
  9
$LUNITS
 70
     2
  9
$LUPREC
 70
     4
  9
$SKETCHINC
 40
1.0
  9
$FILLETRAD
 40
0.0
  9
$AUNITS
 70
     0
  9
$AUPREC
 70
     0
  9
$MENU
  1
.
  9
$ELEVATION
 40
0.0
  9
$PELEVATION
 40
0.0
  9
$THICKNESS
 40
0.0
  9
$LIMCHECK
 70
     0
  9
$CHAMFERA
 40
0.0
  9
$CHAMFERB
 40
0.0
  9
$CHAMFERC
 40
0.0
  9
$CHAMFERD
 40
0.0
  9
$SKPOLY
 70
     0
  9
$TDCREATE
 40
2460580.514513889
  9
$TDUCREATE
 40
2460580.181180556
  9
$TDUPDATE
 40
2460580.514513889
  9
$TDUUPDATE
 40
2460580.181180556
  9
$TDINDWG
 40
0.0000000000
  9
$TDUSRTIMER
 40
0.0000000000
  9
$USRTIMER
 70
     1
  9
$ANGBASE
 50
0.0
  9
$ANGDIR
 70
     0
  9
$PDMODE
 70
     0
  9
$PDSIZE
 40
0.0
  9
$PLINEWID
 40
0.0
  9
$SPLFRAME
 70
     0
  9
$SPLINETYPE
 70
     6
  9
$SPLINESEGS
 70
     8
  9
$HANDSEED
  5
451
  9
$SURFTAB1
 70
     6
  9
$SURFTAB2
 70
     6
  9
$SURFTYPE
 70
     6
  9
$SURFU
 70
     6
  9
$SURFV
 70
     6
  9
$UCSBASE
  2

  9
$UCSNAME
  2

  9
$UCSORG
 10
0.0
 20
0.0
 30
0.0
  9
$UCSXDIR
 10
1.0
 20
0.0
 30
0.0
  9
$UCSYDIR
 10
0.0
 20
1.0
 30
0.0
  9
$UCSORTHOREF
  2

  9
$UCSORTHOVIEW
 70
     0
  9
$UCSORGTOP
 10
0.0
 20
0.0
 30
0.0
  9
$UCSORGBOTTOM
 10
0.0
 20
0.0
 30
0.0
  9
$UCSORGLEFT
 10
0.0
 20
0.0
 30
0.0
  9
$UCSORGRIGHT
 10
0.0
 20
0.0
 30
0.0
  9
$UCSORGFRONT
 10
0.0
 20
0.0
 30
0.0
  9
$UCSORGBACK
 10
0.0
 20
0.0
 30
0.0
  9
$PUCSBASE
  2

  9
$PUCSNAME
  2

  9
$PUCSORG
 10
0.0
 20
0.0
 30
0.0
  9
$PUCSXDIR
 10
1.0
 20
0.0
 30
0.0
  9
$PUCSYDIR
 10
0.0
 20
1.0
 30
0.0
  9
$PUCSORTHOREF
  2

  9
$PUCSORTHOVIEW
 70
     0
  9
$PUCSORGTOP
 10
0.0
 20
0.0
 30
0.0
  9
$PUCSORGBOTTOM
 10
0.0
 20
0.0
 30
0.0
  9
$PUCSORGLEFT
 10
0.0
 20
0.0
 30
0.0
  9
$PUCSORGRIGHT
 10
0.0
 20
0.0
 30
0.0
  9
$PUCSORGFRONT
 10
0.0
 20
0.0
 30
0.0
  9
$PUCSORGBACK
 10
0.0
 20
0.0
 30
0.0
  9
$USERI1
 70
     0
  9
$USERI2
 70
     0
  9
$USERI3
 70
     0
  9
$USERI4
 70
     0
  9
$USERI5
 70
     0
  9
$USERR1
 40
0.0
  9
$USERR2
 40
0.0
  9
$USERR3
 40
0.0
  9
$USERR4
 40
0.0
  9
$USERR5
 40
0.0
  9
$WORLDVIEW
 70
     1
  9
$SHADEDGE
 70
     3
  9
$SHADEDIF
 70
    70
  9
$TILEMODE
 70
     1
  9
$MAXACTVP
 70
    64
  9
$PINSBASE
 10
0.0
 20
0.0
 30
0.0
  9
$PLIMCHECK
 70
     0
  9
$PEXTMIN
 10
1.000000E+20
 20
1.000000E+20
 30
1.000000E+20
  9
$PEXTMAX
 10
-1.000000E+20
 20
-1.000000E+20
 30
-1.000000E+20
  9
$PLIMMIN
 10
0.0
 20
0.0
  9
$PLIMMAX
 10
12.0
 20
9.0
  9
$UNITMODE
 70
     0
  9
$VISRETAIN
 70
     1
  9
$PLINEGEN
 70
     0
  9
$PSLTSCALE
 70
     1
  9
$TREEDEPTH
 70
  3020
  9
$CMLSTYLE
  2
Standard
  9
$CMLJUST
 70
     0
  9
$CMLSCALE
 40
20.0
  9
$PROXYGRAPHICS
 70
     1
  9
$MEASUREMENT
 70
     1
  9
$CELWEIGHT
370
    -1
  9
$ENDCAPS
280
     0
  9
$JOINSTYLE
280
     0
  9
$LWDISPLAY
290
     0
  9
$INSUNITS
 70
     4
  9
$HYPERLINKBASE
  1

  9
$STYLESHEET
  1

  9
$XEDIT
290
     1
  9
$CEPSNTYPE
380
     0
  9
$PSTYLEMODE
290
     1
  9
$FINGERPRINTGUID
  2
{E97F3B49-C947-C945-B269-E32FE721EF27}
  9
$VERSIONGUID
  2
{5CAC2E8E-546E-5846-AB40-DACD8BD17223}
  9
$EXTNAMES
290
     1
  9
$PSVPSCALE
 40
0.0
  9
$OLESTARTUP
290
     0
  9
$SORTENTS
280
   127
  9
$INDEXCTL
280
     0
  9
$HIDETEXT
280
     1
  9
$XCLIPFRAME
280
     0
  9
$HALOGAP
280
     0
  9
$OBSCOLOR
 70
   257
  9
$OBSLTYPE
280
     0
  9
$INTERSECTIONDISPLAY
280
     0
  9
$INTERSECTIONCOLOR
 70
   257
  9
$DIMASSOC
280
     2
  9
$PROJECTNAME
  1

  9
$CAMERADISPLAY
290
     0
  9
$LENSLENGTH
 40
50.0
  9
$CAMERAHEIGHT
 40
0.0
  9
$STEPSPERSEC
 40
2.0
  9
$STEPSIZE
 40
6.0
  9
$3DDWFPREC
 40
2.0
  9
$PSOLWIDTH
 40
5.0
  9
$PSOLHEIGHT
 40
80.0
  9
$LOFTANG1
 40
1.570796
  9
$LOFTANG2
 40
1.570796
  9
$LOFTMAG1
 40
0.0
  9
$LOFTMAG2
 40
0.0
  9
$LOFTPARAM
 70
     7
  9
$LOFTNORMALS
280
     1
  9
$LATITUDE
 40
37.795
  9
$LONGITUDE
 40
-122.394
  9
$NORTHDIRECTION
 40
0.0
  9
$TIMEZONE
 70
 -8000
  9
$LIGHTGLYPHDISPLAY
280
     1
  9
$TILEMODELIGHTSYNCH
280
     1
  9
$CMATERIAL
347
11
  9
$SOLIDHIST
280
     0
  9
$SHOWHIST
280
     1
  9
$DWFFRAME
280
     2
  9
$DGNFRAME
280
     0
  9
$REALWORLDSCALE
290
     1
  9
$INTERFERECOLOR
 62
     1
  9
$INTERFEREOBJVS
345
33
  9
$INTERFEREVPVS
346
30
  9
$CSHADOW
280
     0
  9
$SHADOWPLANELOCATION
 40
0.0
  0
ENDSEC
  0
SECTION
  2
CLASSES
  0
CLASS
  1
ACDBDICTIONARYWDFLT
  2
AcDbDictionaryWithDefault
  3
ObjectDBX Classes
 90
        0
 91
        1
280
     0
281
     0
  0
CLASS
  1
MATERIAL
  2
AcDbMaterial
  3
ObjectDBX Classes
 90
     1153
 91
        3
280
     0
281
     0
  0
CLASS
  1
VISUALSTYLE
  2
AcDbVisualStyle
  3
ObjectDBX Classes
 90
     4095
 91
       24
280
     0
281
     0
  0
CLASS
  1
SCALE
  2
AcDbScale
  3
ObjectDBX Classes
 90
     1153
 91
       18
280
     0
281
     0
  0
CLASS
  1
TABLESTYLE
  2
AcDbTableStyle
  3
ObjectDBX Classes
 90
     4095
 91
        1
280
     0
281
     0
  0
CLASS
  1
MLEADERSTYLE
  2
AcDbMLeaderStyle
  3
ACDB_MLEADERSTYLE_CLASS
 90
     4095
 91
        1
280
     0
281
     0
  0
CLASS
  1
ACDBSECTIONVIEWSTYLE
  2
AcDbSectionViewStyle
  3
ObjectDBX Classes
 90
     1025
 91
        1
280
     0
281
     0
  0
CLASS
  1
ACDBDETAILVIEWSTYLE
  2
AcDbDetailViewStyle
  3
ObjectDBX Classes
 90
     1025
 91
        1
280
     0
281
     0
  0
CLASS
  1
ACMESCOPE
  2
AcMeScope
  3
AcMeServices
 90
     1024
 91
        1
280
     0
281
     0
  0
CLASS
  1
ACMECOMMANDHISTORY
  2
AcMeCommandHistory
  3
AcMeServices
 90
     1024
 91
        1
280
     0
281
     0
  0
CLASS
  1
ACIMSYSVARMAN
  2
AcImSysVarManager
  3
AcMeServices
 90
     1024
 91
        1
280
     0
281
     0
  0
CLASS
  1
ACIMINTSYSVAR
  2
AcImIntSysVar
  3
AcMeServices
 90
     1024
 91
        1
280
     0
281
     0
  0
CLASS
  1
ACMESTATEMGR
  2
AcMeStateMgr
  3
AcMeServices
 90
     1024
 91
        1
280
     0
281
     0
  0
CLASS
  1
ACGREFMASTER
  2
AcGrefMaster
  3
AcAttribServices
 90
     1024
 91
        1
280
     0
281
     0
  0
CLASS
  1
SORTENTSTABLE
  2
AcDbSortentsTable
  3
ObjectDBX Classes
 90
        0
 91
        3
280
     0
281
     0
  0
CLASS
  1
DICTIONARYVAR
  2
AcDbDictionaryVar
  3
ObjectDBX Classes
 90
        0
 91
        6
280
     0
281
     0
  0
CLASS
  1
CELLSTYLEMAP
  2
AcDbCellStyleMap
  3
ObjectDBX Classes
 90
     1152
 91
        1
280
     0
281
     0
  0
ENDSEC
  0
SECTION
  2
TABLES
  0
TABLE
  2
VPORT
  5
8
330
0
100
AcDbSymbolTable
 70
     1
1001
ACAD
1000
DbSaveVer
1071
      377
  0
VPORT
  5
57
330
8
100
AcDbSymbolTableRecord
100
AcDbViewportTableRecord
  2
*Active
 70
     0
 10
0.0
 20
0.0
 11
1.0
 21
1.0
 12
297.0
 22
210.0
 13
0.0
 23
0.0
 14
10.0
 24
10.0
 15
0.0
 25
0.0
 16
0.0
 26
0.0
 36
1.0
 17
0.0
 27
0.0
 37
0.0
 40
420.0
 41
1.577635
 42
50.0
 43
0.0
 44
0.0
 50
0.0
 51
0.0
 71
     0
 72
 20000
 73
     1
 74
     0
 75
     0
 76
     0
 77
     0
 78
     0
281
     0
 65
     1
110
0.0
120
0.0
130
0.0
111
1.0
121
0.0
131
0.0
112
0.0
122
1.0
132
0.0
 79
     0
146
0.0
348
2F
 60
     3
 61
     5
292
     1
282
     1
141
0.0
142
0.0
 63
   250
421
  3355443
  0
ENDTAB
  0
TABLE
  2
LTYPE
  5
5
330
0
100
AcDbSymbolTable
 70
    15
  0
LTYPE
  5
5B
330
5
100
AcDbSymbolTableRecord
100
AcDbLinetypeTableRecord
  2
ByBlock
 70
     0
  3

 72
    65
 73
     0
 40
0.0
  0
LTYPE
  5
5C
330
5
100
AcDbSymbolTableRecord
100
AcDbLinetypeTableRecord
  2
ByLayer
 70
     0
  3

 72
    65
 73
     0
 40
0.0
  0
LTYPE
  5
5D
330
5
100
AcDbSymbolTableRecord
100
AcDbLinetypeTableRecord
  2
Continuous
 70
     0
  3
Solid line
 72
    65
 73
     0
 40
0.0
  0
LTYPE
  5
81
330
5
100
AcDbSymbolTableRecord
100
AcDbLinetypeTableRecord
  2
HIDDEN
 70
     0
  3
Hidden __ __ __ __ __ __ __ __ __ __ __ __ __ _
 72
    65
 73
     2
 40
9.525
 49
6.35
 74
     0
 49
-3.175
 74
     0
  0
LTYPE
  5
82
330
5
100
AcDbSymbolTableRecord
100
AcDbLinetypeTableRecord
  2
PHANTOM2
 70
     0
  3
Phantom (.5x) ___ _ _ ___ _ _ ___ _ _ ___ _ _
 72
    65
 73
     6
 40
31.75
 49
15.875
 74
     0
 49
-3.175
 74
     0
 49
3.175
 74
     0
 49
-3.175
 74
     0
 49
3.175
 74
     0
 49
-3.175
 74
     0
  0
LTYPE
  5
83
330
5
100
AcDbSymbolTableRecord
100
AcDbLinetypeTableRecord
  2
CENTER
 70
     0
  3
Center ____ _ ____ _ ____ _ ____ _ ____ _ ____
 72
    65
 73
     4
 40
50.8
 49
31.75
 74
     0
 49
-6.35
 74
     0
 49
6.35
 74
     0
 49
-6.35
 74
     0
  0
LTYPE
  5
98
330
5
100
AcDbSymbolTableRecord
100
AcDbLinetypeTableRecord
  2
AM_ISO02W050
 70
     0
  3
__ __ __ __ __ __ __ __ __ __ __ __ __ __ __
 72
    65
 73
     2
 40
7.5
 49
6.0
 74
     0
 49
-1.5
 74
     0
  0
LTYPE
  5
99
330
5
100
AcDbSymbolTableRecord
100
AcDbLinetypeTableRecord
  2
AM_ISO08W050
 70
     0
  3
____ . ____ . ____ . ____ . ____ . ____ . ____
 72
    65
 73
     4
 40
18.0
 49
12.0
 74
     0
 49
-1.5
 74
     0
 49
3.0
 74
     0
 49
-1.5
 74
     0
  0
LTYPE
  5
9A
330
5
100
AcDbSymbolTableRecord
100
AcDbLinetypeTableRecord
  2
AM_ISO09W050
 70
     0
  3
_____ . . _____ . . _____ . . ____ .. ____
 72
    65
 73
     6
 40
22.5
 49
12.0
 74
     0
 49
-1.5
 74
     0
 49
3.0
 74
     0
 49
-1.5
 74
     0
 49
3.0
 74
     0
 49
-1.5
 74
     0
  0
LTYPE
  5
9B
330
5
100
AcDbSymbolTableRecord
100
AcDbLinetypeTableRecord
  2
Amconstr
 70
     0
  3
_______________________
 72
    65
 73
     2
 40
9999.0
 49
9999.0
 74
     0
 49
0.0
 74
     0
  0
LTYPE
  5
9C
330
5
100
AcDbSymbolTableRecord
100
AcDbLinetypeTableRecord
  2
AM_ISO08W050x2
 70
     0
  3
__ . __ . __ . __ . __ . __
 72
    65
 73
     4
 40
9.0
 49
6.0
 74
     0
 49
-0.75
 74
     0
 49
1.5
 74
     0
 49
-0.75
 74
     0
  0
LTYPE
  5
9D
330
5
100
AcDbSymbolTableRecord
100
AcDbLinetypeTableRecord
  2
AM_ISO02W050x2
 70
     0
  3
 _ _ _ _ _ _ _ _ _ _ _ _
 72
    65
 73
     2
 40
3.75
 49
3.0
 74
     0
 49
-0.75
 74
     0
  0
LTYPE
  5
9E
330
5
100
AcDbSymbolTableRecord
100
AcDbLinetypeTableRecord
  2
Amzigzag
 70
     0
  3
/\/-/\/-/\/-/\/-/\/-/\/
 72
    65
 73
     2
 40
11.0001
 49
0.0001
 74
     4
 75
   136
340
95
 46
0.04
 50
0.0
 44
0.0
 45
0.0
 49
-11.0
 74
     0
  0
LTYPE
  5
9F
330
5
100
AcDbSymbolTableRecord
100
AcDbLinetypeTableRecord
  2
ACISOWELD
 70
     0
  3
_ _ _ _ _
 72
    65
 73
     2
 40
2.0
 49
2.0
 74
     0
 49
-1.0
 74
     0
  0
LTYPE
  5
A0
330
5
100
AcDbSymbolTableRecord
100
AcDbLinetypeTableRecord
  2
ACISOTGL
 70
     0
  3
_ _ _ _ _
 72
    65
 73
     2
 40
3.0
 49
2.0
 74
     0
 49
-1.0
 74
     0
  0
LTYPE
  5
A1
330
5
100
AcDbSymbolTableRecord
100
AcDbLinetypeTableRecord
  2
ACISOTGB
 70
     0
  3
__ . . __ . .
 72
    65
 73
     6
 40
9.0
 49
4.0
 74
     0
 49
-1.0
 74
     0
 49
1.0
 74
     0
 49
-1.0
 74
     0
 49
1.0
 74
     0
 49
-1.0
 74
     0
  0
LTYPE
  5
A2
330
5
100
AcDbSymbolTableRecord
100
AcDbLinetypeTableRecord
  2
ACAD_VIEWBORDER_LINETYPE
 70
     0
  3
Dashed line in view border
 72
    83
 73
     2
 40
10.0
 49
1.59
 74
     0
 49
-6.35
 74
     0
1001
ACAD_EXEMPT_FROM_CAD_STANDARDS
1070
     1
  0
ENDTAB
  0
TABLE
  2
LAYER
  5
2
330
0
100
AcDbSymbolTable
 70
     6
  0
LAYER
  5
54
330
2
100
AcDbSymbolTableRecord
100
AcDbLayerTableRecord
  2
0
 70
     0
 62
     7
  6
Continuous
370
    -3
390
F
347
21
348
0
1001
AcAecLayerStandard
1000

1000

  0
LAYER
  5
79
330
2
100
AcDbSymbolTableRecord
100
AcDbLayerTableRecord
  2
Defpoints
 70
     0
 62
     7
  6
Continuous
290
     0
370
    -3
390
F
347
21
348
0
1001
AcAecLayerStandard
1000

1000

  0
LAYER
  5
AF
330
2
100
AcDbSymbolTableRecord
100
AcDbLayerTableRecord
  2
Visible
 70
     0
 62
     7
  6
Continuous
370
    50
390
F
347
21
348
0
  0
LAYER
  5
225
330
2
100
AcDbSymbolTableRecord
100
AcDbLayerTableRecord
  2
TITLEBLOCK
 70
     0
 62
     7
  6
Continuous
370
    35
390
F
347
21
348
0
1001
AcAecLayerStandard
1000

1000

1001
AcCmTransparency
1071
        0
  0
LAYER
  5
271
330
2
100
AcDbSymbolTableRecord
100
AcDbLayerTableRecord
  2
BORDER
 70
     0
 62
     7
  6
Continuous
370
    25
390
F
347
21
348
0
1001
AcAecLayerStandard
1000

1000

1001
AcCmTransparency
1071
        0
  0
ENDTAB
  0
TABLE
  2
STYLE
  5
3
330
0
100
AcDbSymbolTable
 70
     5
  0
STYLE
  5
55
330
3
100
AcDbSymbolTableRecord
100
AcDbTextStyleTableRecord
  2
Standard
 70
     0
 40
0.0
 41
1.0
 50
0.0
 71
     0
 42
3.5
  3
arial.ttf
  4

1001
ACAD
1000
Arial
1071
       34
  0
STYLE
  5
5A
330
3
100
AcDbSymbolTableRecord
100
AcDbTextStyleTableRecord
  2
Annotative
 70
     0
 40
0.0
 41
1.0
 50
0.0
 71
     0
 42
0.2
  3
txt
  4

1001
AcadAnnotative
1000
AnnotativeData
1002
{
1070
     1
1070
     1
1002
}
  0
STYLE
  5
94
330
3
100
AcDbSymbolTableRecord
100
AcDbTextStyleTableRecord
  2
FusionTitle
 70
     0
 40
0.0
 41
1.0
 50
0.0
 71
     0
 42
2.5
  3
arial.ttf
  4

1001
ACAD
1000
Arial
1071
       34
  0
STYLE
  5
95
330
3
100
AcDbSymbolTableRecord
100
AcDbTextStyleTableRecord
  2

 70
     1
 40
0.0
 41
1.0
 50
0.0
 71
     0
 42
10.0
  3
genltshp.shx
  4

  0
STYLE
  5
96
330
3
100
AcDbSymbolTableRecord
100
AcDbTextStyleTableRecord
  2
ACISOGDT
 70
     0
 40
0.0
 41
1.0
 50
0.0
 71
     0
 42
10.0
  3
amgdt.shx
  4

  0
ENDTAB
  0
TABLE
  2
VIEW
  5
6
330
0
100
AcDbSymbolTable
 70
     0
  0
ENDTAB
  0
TABLE
  2
UCS
  5
7
330
0
100
AcDbSymbolTable
 70
     0
  0
ENDTAB
  0
TABLE
  2
APPID
  5
9
330
0
100
AcDbSymbolTable
 70
    21
  0
APPID
  5
56
330
9
100
AcDbSymbolTableRecord
100
AcDbRegAppTableRecord
  2
ACAD
 70
     0
  0
APPID
  5
5E
330
9
100
AcDbSymbolTableRecord
100
AcDbRegAppTableRecord
  2
AcadAnnotative
 70
     0
  0
APPID
  5
78
330
9
100
AcDbSymbolTableRecord
100
AcDbRegAppTableRecord
  2
ACAD_PSEXT
 70
     0
  0
APPID
  5
7A
330
9
100
AcDbSymbolTableRecord
100
AcDbRegAppTableRecord
  2
MCAD_NO_VIS
 70
     0
  0
APPID
  5
7B
330
9
100
AcDbSymbolTableRecord
100
AcDbRegAppTableRecord
  2
ACAD_TEMP_GRAPHIC
 70
     0
  0
APPID
  5
84
330
9
100
AcDbSymbolTableRecord
100
AcDbRegAppTableRecord
  2
ACAD_DSTYLE_DIMJAG
 70
     0
  0
APPID
  5
85
330
9
100
AcDbSymbolTableRecord
100
AcDbRegAppTableRecord
  2
ACAD_DSTYLE_DIMTALN
 70
     0
  0
APPID
  5
86
330
9
100
AcDbSymbolTableRecord
100
AcDbRegAppTableRecord
  2
ACAD_NAV_VCDISPLAY
 70
     0
  0
APPID
  5
87
330
9
100
AcDbSymbolTableRecord
100
AcDbRegAppTableRecord
  2
AcAecLayerStandard
 70
     0
  0
APPID
  5
88
330
9
100
AcDbSymbolTableRecord
100
AcDbRegAppTableRecord
  2
AcCmTransparency
 70
     0
  0
APPID
  5
89
330
9
100
AcDbSymbolTableRecord
100
AcDbRegAppTableRecord
  2
AcDbDynamicBlockGUID
 70
     0
  0
APPID
  5
8A
330
9
100
AcDbSymbolTableRecord
100
AcDbRegAppTableRecord
  2
ACAD_EXEMPT_FROM_CAD_STANDARDS
 70
     0
  0
APPID
  5
8B
330
9
100
AcDbSymbolTableRecord
100
AcDbRegAppTableRecord
  2
ACAD_DSTYLE_DIMBREAK
 70
     0
  0
APPID
  5
8C
330
9
100
AcDbSymbolTableRecord
100
AcDbRegAppTableRecord
  2
FUSIONTITLEBLOCK
 70
     0
  0
APPID
  5
8D
330
9
100
AcDbSymbolTableRecord
100
AcDbRegAppTableRecord
  2
FUSIONCURRENTTITLEBLOCK
 70
     0
  0
APPID
  5
8E
330
9
100
AcDbSymbolTableRecord
100
AcDbRegAppTableRecord
  2
AcSynergy
 70
     0
  0
APPID
  5
8F
330
9
100
AcDbSymbolTableRecord
100
AcDbRegAppTableRecord
  2
GENIUS_GENSCREG_15
 70
     0
  0
APPID
  5
90
330
9
100
AcDbSymbolTableRecord
100
AcDbRegAppTableRecord
  2
GENIUS_GENOBJ-N-SDF_13
 70
     0
  0
APPID
  5
91
330
9
100
AcDbSymbolTableRecord
100
AcDbRegAppTableRecord
  2
GENIUS_GENODEF_13
 70
     0
  0
APPID
  5
92
330
9
100
AcDbSymbolTableRecord
100
AcDbRegAppTableRecord
  2
FUSIONTITLEBLOCKATTRIBUTEOVERRIDE
 70
     0
  0
APPID
  5
93
330
9
100
AcDbSymbolTableRecord
100
AcDbRegAppTableRecord
  2
ACATTRIBSERVICES
 70
     0
  0
ENDTAB
  0
TABLE
  2
DIMSTYLE
  5
A
330
0
100
AcDbSymbolTable
 70
     4
100
AcDbDimStyleTable
 71
     1
340
A6
  0
DIMSTYLE
105
58
330
A
100
AcDbSymbolTableRecord
100
AcDbDimStyleTableRecord
  2
Standard
 70
     0
 41
3.5
 42
2.1
 43
10.5
 44
2.1
 78
    12
 79
     3
140
3.5
143
0.03937
146
0.714286
147
1.4
179
     2
271
     2
272
     2
284
    12
340
55
  0
DIMSTYLE
105
59
330
A
100
AcDbSymbolTableRecord
100
AcDbDimStyleTableRecord
  2
Annotative
 70
     0
 40
0.0
 41
3.5
 42
2.1
 43
10.5
 44
2.1
 73
     0
 74
     0
 77
     1
 78
    12
 79
     3
140
3.5
141
2.5
143
0.03937
146
0.714286
147
1.4
171
     3
172
     1
179
     2
271
     2
272
     2
274
     3
278
    44
283
     0
284
    12
340
55
1001
AcadAnnotative
1000
AnnotativeData
1002
{
1070
     1
1070
     1
1002
}
  0
DIMSTYLE
105
A5
330
A
100
AcDbSymbolTableRecord
100
AcDbDimStyleTableRecord
  2
ISO-25
 70
     0
  4
in
 41
3.5
 42
2.1
 43
10.5
 44
2.1
 47
0.1
 48
0.1
 73
     0
 74
     0
 77
     1
 78
    12
 79
     3
140
3.5
141
0.0
143
0.03937
146
0.714286
147
1.4
171
     4
172
     1
176
   256
177
   256
178
   256
179
     2
271
     2
272
     2
274
     4
283
     0
284
    12
285
     8
340
55
1001
ACAD_DSTYLE_DIMJAG
1070
   388
1040
1.5
1001
ACAD_DSTYLE_DIMTALN
1070
   392
1070
     1
1001
ACAD_DSTYLE_DIMBREAK
1070
   391
1040
3.5
  0
DIMSTYLE
105
A6
330
A
100
AcDbSymbolTableRecord
100
AcDbDimStyleTableRecord
  2
Dim-ISO-25
 70
     0
 41
3.5
 42
2.1
 43
10.5
 44
2.1
 47
0.1
 48
0.1
 73
     0
 74
     0
 77
     1
 78
    12
 79
     3
140
3.5
141
0.0
143
0.03937
146
0.714286
147
1.4
172
     1
179
     2
271
     2
272
     2
274
     4
283
     0
284
    12
285
    12
286
    12
340
55
1001
ACAD_DSTYLE_DIMJAG
1070
   388
1040
1.5
1001
ACAD_DSTYLE_DIMTALN
1070
   392
1070
     1
1001
ACAD_DSTYLE_DIMBREAK
1070
   391
1040
3.5
  0
ENDTAB
  0
TABLE
  2
BLOCK_RECORD
  5
1
330
0
100
AcDbSymbolTable
 70
     4
  0
BLOCK_RECORD
  5
70
102
{ACAD_XDICTIONARY
360
A8
102
}
330
1
100
AcDbSymbolTableRecord
100
AcDbBlockTableRecord
  2
*Model_Space
340
73
 70
     0
280
     1
281
     0
  0
BLOCK_RECORD
  5
6C
330
1
100
AcDbSymbolTableRecord
100
AcDbBlockTableRecord
  2
*Paper_Space
340
6F
 70
     0
280
     1
281
     0
  0
BLOCK_RECORD
  5
74
330
1
100
AcDbSymbolTableRecord
100
AcDbBlockTableRecord
  2
*Paper_Space0
340
77
 70
     0
280
     1
281
     0
  0
BLOCK_RECORD
  5
226
102
{ACAD_XDICTIONARY
360
227
102
}
330
1
100
AcDbSymbolTableRecord
100
AcDbBlockTableRecord
  2
ISO_TITLEBLOCK
340
0
310
2800000020000000200000000100080000000000000400000000000000000000000000000000000000000000000080000080000000808000800000008000800080800000C0C0C000C0DCC000F0CAA6000020400000206000002080000020A0000020C0000020E00000400000004020000040400000406000004080000040A0
310
000040C0000040E00000600000006020000060400000606000006080000060A0000060C0000060E00000800000008020000080400000806000008080000080A0000080C0000080E00000A0000000A0200000A0400000A0600000A0800000A0A00000A0C00000A0E00000C0000000C0200000C0400000C0600000C0800000C0
310
A00000C0C00000C0E00000E0000000E0200000E0400000E0600000E0800000E0A00000E0C00000E0E00040000000400020004000400040006000400080004000A0004000C0004000E00040200000402020004020400040206000402080004020A0004020C0004020E000404000004040200040404000404060004040800040
310
40A0004040C0004040E00040600000406020004060400040606000406080004060A0004060C0004060E00040800000408020004080400040806000408080004080A0004080C0004080E00040A0000040A0200040A0400040A0600040A0800040A0A00040A0C00040A0E00040C0000040C0200040C0400040C0600040C08000
310
40C0A00040C0C00040C0E00040E0000040E0200040E0400040E0600040E0800040E0A00040E0C00040E0E00080000000800020008000400080006000800080008000A0008000C0008000E00080200000802020008020400080206000802080008020A0008020C0008020E00080400000804020008040400080406000804080
310
008040A0008040C0008040E00080600000806020008060400080606000806080008060A0008060C0008060E00080800000808020008080400080806000808080008080A0008080C0008080E00080A0000080A0200080A0400080A0600080A0800080A0A00080A0C00080A0E00080C0000080C0200080C0400080C0600080C0
310
800080C0A00080C0C00080C0E00080E0000080E0200080E0400080E0600080E0800080E0A00080E0C00080E0E000C0000000C0002000C0004000C0006000C0008000C000A000C000C000C000E000C0200000C0202000C0204000C0206000C0208000C020A000C020C000C020E000C0400000C0402000C0404000C0406000C0
310
408000C040A000C040C000C040E000C0600000C0602000C0604000C0606000C0608000C060A000C060C000C060E000C0800000C0802000C0804000C0806000C0808000C080A000C080C000C080E000C0A00000C0A02000C0A04000C0A06000C0A08000C0A0A000C0A0C000C0A0E000C0C00000C0C02000C0C04000C0C06000
310
C0C08000C0C0A000F0FBFF00A4A0A000808080000000FF0000FF000000FFFF00FF000000FF00FF00FFFF0000FFFFFF0049494949494949494949494949494949494949494949494949494949494949494949494949494949494949494949494949494949494949494949494949494949494949494949494949494949494949
310
49494949494949494949494949494949494949494949494949494949494949494949494949494949494949494949494949494949494949494949494949494949494949494949494949494949494949494949494949494949494949494949494949494949494949494949494949494949494949494949494949494949494949
310
49494949494949494949494949494949494949494949494949494949494949494949494949494949494949494949494949494949494949494949494949494949494949494949494949494949494949494949494949494949494949494949494949494949494949494949494949494949494949494949494949494949494949
310
49494949494949494949494949494949494949494949494949494949494949494949494949494949494949494949494949494949FFFFFFFFFFFFFFFFFFFFFFFFFFFFFFFFFFFFFFFFFFFFFFFFFFFFFF4949494949FF4949494949494949FFFFFFFFFF49494949FFFFFFFFFFFFFFFFFFFF49494949FF4949494949494949FFFF
310
FFFFFF494949FFFFFFFFFFFFFFFFFFFF4949494949FF4949494949494949FFFFFFFFFF494949FFFFFFFFFFFFFFFFFFFF4949494949FF4949494949494949FFFFFFFFFFFFFFFFFFFFFFFFFFFFFFFFFFFF4949494949FFFFFFFFFFFFFFFFFFFFFFFFFFFFFFFFFFFFFFFFFFFFFFFFFFFFFF4949494949FFFFFF49FFFFFFFFFFFF
310
FFFFFFFFFFFFFFFFFFFFFFFFFFFFFFFFFFFFFFFF4949FFFFFFFFFFFFFFFFFFFFFFFFFFFFFFFFFFFFFFFFFFFFFFFFFFFFFF494949494949494949494949494949494949494949494949494949494949494949494949494949494949494949494949494949494949494949494949494949494949494949494949494949494949
310
49494949494949494949494949494949494949494949494949494949494949494949494949494949494949494949494949494949494949494949494949494949494949494949494949494949494949494949494949494949494949494949494949494949494949494949494949494949494949494949494949494949494949
310
49494949494949494949494949494949494949494949494949494949494949494949494949494949494949494949494949494949494949494949494949494949494949494949494949494949494949494949494949494949494949494949494949494949494949494949494949494949494949494949494949494949494949
310
4949494949494949494949494949494949494949494949494949494949494949494949494949494949494949494949494949494949494949
102
{BLKREFS
331
224
102
}
 70
     4
280
     1
281
     0
1001
AcDbDynamicBlockGUID
1000
{BCD52D05-323A-B54A-8A21-1B84008CF9CB}
1001
FUSIONTITLEBLOCK
1000
TitleBlock
  0
BLOCK_RECORD
  5
272
102
{ACAD_XDICTIONARY
360
273
102
}
330
1
100
AcDbSymbolTableRecord
100
AcDbBlockTableRecord
  2
ISO_A2_SHEET
340
0
310
2800000020000000200000000100080000000000000400000000000000000000000000000000000000000000000080000080000000808000800000008000800080800000C0C0C000C0DCC000F0CAA6000020400000206000002080000020A0000020C0000020E00000400000004020000040400000406000004080000040A0
310
000040C0000040E00000600000006020000060400000606000006080000060A0000060C0000060E00000800000008020000080400000806000008080000080A0000080C0000080E00000A0000000A0200000A0400000A0600000A0800000A0A00000A0C00000A0E00000C0000000C0200000C0400000C0600000C0800000C0
310
A00000C0C00000C0E00000E0000000E0200000E0400000E0600000E0800000E0A00000E0C00000E0E00040000000400020004000400040006000400080004000A0004000C0004000E00040200000402020004020400040206000402080004020A0004020C0004020E000404000004040200040404000404060004040800040
310
40A0004040C0004040E00040600000406020004060400040606000406080004060A0004060C0004060E00040800000408020004080400040806000408080004080A0004080C0004080E00040A0000040A0200040A0400040A0600040A0800040A0A00040A0C00040A0E00040C0000040C0200040C0400040C0600040C08000
310
40C0A00040C0C00040C0E00040E0000040E0200040E0400040E0600040E0800040E0A00040E0C00040E0E00080000000800020008000400080006000800080008000A0008000C0008000E00080200000802020008020400080206000802080008020A0008020C0008020E00080400000804020008040400080406000804080
310
008040A0008040C0008040E00080600000806020008060400080606000806080008060A0008060C0008060E00080800000808020008080400080806000808080008080A0008080C0008080E00080A0000080A0200080A0400080A0600080A0800080A0A00080A0C00080A0E00080C0000080C0200080C0400080C0600080C0
310
800080C0A00080C0C00080C0E00080E0000080E0200080E0400080E0600080E0800080E0A00080E0C00080E0E000C0000000C0002000C0004000C0006000C0008000C000A000C000C000C000E000C0200000C0202000C0204000C0206000C0208000C020A000C020C000C020E000C0400000C0402000C0404000C0406000C0
310
408000C040A000C040C000C040E000C0600000C0602000C0604000C0606000C0608000C060A000C060C000C060E000C0800000C0802000C0804000C0806000C0808000C080A000C080C000C080E000C0A00000C0A02000C0A04000C0A06000C0A08000C0A0A000C0A0C000C0A0E000C0C00000C0C02000C0C04000C0C06000
310
C0C08000C0C0A000F0FBFF00A4A0A000808080000000FF0000FF000000FFFF00FF000000FF00FF00FFFF0000FFFFFF0049494949494949494949494949494949494949494949494949494949494949494949494949494949494949494949494949494949494949494949494949494949494949494949494949494949494949
310
494949494949494949494949494949494949494949494949494949494949494949494949494949494949494949494949494949494949494949494949494949494949494949494949494949494949494949494949494949494949494949494949494949494949494949494949494949494949FFFFFFFFFFFFFFFFFFFFFFFFFF
310
FFFFFFFFFFFFFFFFFFFFFFFFFFFFFFFFFF494949FF4949494949494949494949494949494949494949494949494949FF49494949FF4949494949494949494949494949494949494949494949494949FF49494949FF4949494949494949494949494949494949494949494949494949FF49494949FF49494949494949494949
310
49494949494949494949494949494949FF49494949FF4949494949494949494949494949494949494949494949494949FF49494949FF4949494949494949494949494949494949494949494949494949FF49494949FF4949494949494949494949494949494949494949494949494949FF49494949FF494949494949494949
310
4949494949494949494949494949494949FF49494949FF4949494949494949494949494949494949494949494949494949FF49494949FFFF49494949494949494949494949494949494949494949494949FF49494949FF4949494949494949494949494949494949494949494949494949FF49494949FF4949494949494949
310
494949494949494949494949494949494949FF49494949FF4949494949494949494949494949494949494949494949494949FF49494949FF4949494949494949494949494949494949494949494949494949FF49494949FF4949494949494949494949494949494949494949494949494949FF49494949FF49494949494949
310
49494949494949494949494949494949494949FF49494949FF4949494949494949494949494949494949494949494949494949FF49494949FF4949494949494949494949494949494949494949494949494949FF494949FFFFFFFFFFFFFFFFFFFFFFFFFFFFFFFFFFFFFFFFFFFFFFFFFFFFFFFFFFFF49494949494949494949
310
49494949494949494949494949494949494949494949494949494949494949494949494949494949494949494949494949494949494949494949494949494949494949494949494949494949494949494949494949494949494949494949494949494949494949494949494949494949494949494949494949494949494949
310
4949494949494949494949494949494949494949494949494949494949494949494949494949494949494949494949494949494949494949
102
{BLKREFS
331
270
102
}
 70
     4
280
     1
281
     0
1001
AcDbDynamicBlockGUID
1000
{F10B783D-62E6-3649-8620-9CFAFFE9AEB1}
  0
ENDTAB
  0
ENDSEC
  0
SECTION
  2
BLOCKS
  0
BLOCK
  5
71
330
70
100
AcDbEntity
  8
0
100
AcDbBlockBegin
  2
*Model_Space
 70
     0
 10
0.0
 20
0.0
 30
0.0
  3
*Model_Space
  1

  0
ENDBLK
  5
72
330
70
100
AcDbEntity
  8
0
100
AcDbBlockEnd
  0
BLOCK
  5
6D
330
6C
100
AcDbEntity
 67
     1
  8
0
100
AcDbBlockBegin
  2
*Paper_Space
 70
     0
 10
0.0
 20
0.0
 30
0.0
  3
*Paper_Space
  1

  0
ENDBLK
  5
6E
330
6C
100
AcDbEntity
 67
     1
  8
0
100
AcDbBlockEnd
  0
BLOCK
  5
75
330
74
100
AcDbEntity
 67
     1
  8
0
100
AcDbBlockBegin
  2
*Paper_Space0
 70
     0
 10
0.0
 20
0.0
 30
0.0
  3
*Paper_Space0
  1

  0
ENDBLK
  5
76
330
74
100
AcDbEntity
 67
     1
  8
0
100
AcDbBlockEnd
  0
BLOCK
  5
229
330
226
100
AcDbEntity
  8
0
100
AcDbBlockBegin
  2
ISO_TITLEBLOCK
 70
     2
 10
0.0
 20
0.0
 30
0.0
  3
ISO_TITLEBLOCK
  1

  0
LINE
  5
22A
330
226
100
AcDbEntity
  8
TITLEBLOCK
100
AcDbLine
 10
-180.0
 20
0.0
 30
0.0
 11
0.0
 21
0.0
 31
0.0
  0
LINE
  5
22B
330
226
100
AcDbEntity
  8
TITLEBLOCK
100
AcDbLine
 10
-61.0
 20
10.0
 30
0.0
 11
0.0
 21
10.0
 31
0.0
  0
LINE
  5
22C
330
226
100
AcDbEntity
  8
TITLEBLOCK
100
AcDbLine
 10
-122.0
 20
27.0
 30
0.0
 11
0.0
 21
27.0
 31
0.0
  0
LINE
  5
22D
330
226
100
AcDbEntity
  8
TITLEBLOCK
100
AcDbLine
 10
-180.0
 20
37.0
 30
0.0
 11
0.0
 21
37.0
 31
0.0
  0
LINE
  5
22E
330
226
100
AcDbEntity
  8
TITLEBLOCK
100
AcDbLine
 10
0.0
 20
0.0
 30
0.0
 11
0.0
 21
47.0
 31
0.0
  0
LINE
  5
22F
330
226
100
AcDbEntity
  8
TITLEBLOCK
100
AcDbLine
 10
-15.0
 20
0.0
 30
0.0
 11
-15.0
 21
10.0
 31
0.0
  0
LINE
  5
230
330
226
100
AcDbEntity
  8
TITLEBLOCK
100
AcDbLine
 10
-51.0
 20
0.0
 30
0.0
 11
-51.0
 21
10.0
 31
0.0
  0
LINE
  5
231
330
226
100
AcDbEntity
  8
TITLEBLOCK
100
AcDbLine
 10
-61.0
 20
0.0
 30
0.0
 11
-61.0
 21
47.0
 31
0.0
  0
LINE
  5
232
330
226
100
AcDbEntity
  8
TITLEBLOCK
100
AcDbLine
 10
-122.0
 20
0.0
 30
0.0
 11
-122.0
 21
47.0
 31
0.0
  0
LINE
  5
233
330
226
100
AcDbEntity
  8
TITLEBLOCK
100
AcDbLine
 10
-156.0
 20
37.0
 30
0.0
 11
-156.0
 21
47.0
 31
0.0
  0
LINE
  5
234
330
226
100
AcDbEntity
  8
TITLEBLOCK
100
AcDbLine
 10
0.0
 20
47.0
 30
0.0
 11
-180.0
 21
47.0
 31
0.0
  0
LINE
  5
235
330
226
100
AcDbEntity
  8
TITLEBLOCK
100
AcDbLine
 10
-180.0
 20
47.0
 30
0.0
 11
-180.0
 21
0.0
 31
0.0
  0
TEXT
  5
236
330
226
100
AcDbEntity
  8
TITLEBLOCK
100
AcDbText
 10
-179.0
 20
44.2
 30
0.0
 40
1.8
  1
Dept.
  7
FusionTitle
 11
-179.0
 21
46.0
 31
0.0
100
AcDbText
 73
     3
  0
TEXT
  5
237
330
226
100
AcDbEntity
  8
TITLEBLOCK
100
AcDbText
 10
-155.0
 20
44.2
 30
0.0
 40
1.8
  1
Technical reference
  7
FusionTitle
 11
-155.0
 21
46.0
 31
0.0
100
AcDbText
 73
     3
  0
TEXT
  5
238
330
226
100
AcDbEntity
  8
TITLEBLOCK
100
AcDbText
 10
-121.0
 20
44.2
 30
0.0
 40
1.8
  1
Created by
  7
FusionTitle
 11
-121.0
 21
46.0
 31
0.0
100
AcDbText
 73
     3
  0
TEXT
  5
239
330
226
100
AcDbEntity
  8
TITLEBLOCK
100
AcDbText
 10
-60.0
 20
44.2
 30
0.0
 40
1.8
  1
Approved by
  7
FusionTitle
 11
-60.0
 21
46.0
 31
0.0
100
AcDbText
 73
     3
  0
TEXT
  5
23A
330
226
100
AcDbEntity
  8
TITLEBLOCK
100
AcDbText
 10
-121.0
 20
34.2
 30
0.0
 40
1.8
  1
Document type
  7
FusionTitle
 11
-121.0
 21
36.0
 31
0.0
100
AcDbText
 73
     3
  0
TEXT
  5
23B
330
226
100
AcDbEntity
  8
TITLEBLOCK
100
AcDbText
 10
-60.0
 20
34.2
 30
0.0
 40
1.8
  1
Document status
  7
FusionTitle
 11
-60.0
 21
36.0
 31
0.0
100
AcDbText
 73
     3
  0
TEXT
  5
23C
330
226
100
AcDbEntity
  8
TITLEBLOCK
100
AcDbText
 10
-121.0
 20
24.2
 30
0.0
 40
1.8
  1
Title
  7
FusionTitle
 11
-121.0
 21
26.0
 31
0.0
100
AcDbText
 73
     3
  0
TEXT
  5
23D
330
226
100
AcDbEntity
  8
TITLEBLOCK
100
AcDbText
 10
-60.0
 20
24.2
 30
0.0
 40
1.8
  1
DWG No.
  7
FusionTitle
 11
-60.0
 21
26.0
 31
0.0
100
AcDbText
 73
     3
  0
TEXT
  5
23E
330
226
100
AcDbEntity
  8
TITLEBLOCK
100
AcDbText
 10
-60.0
 20
7.2
 30
0.0
 40
1.8
  1
Rev.
  7
FusionTitle
 11
-60.0
 21
9.0
 31
0.0
100
AcDbText
 73
     3
  0
TEXT
  5
23F
330
226
100
AcDbEntity
  8
TITLEBLOCK
100
AcDbText
 10
-50.0
 20
7.2
 30
0.0
 40
1.8
  1
Date of issue
  7
FusionTitle
 11
-50.0
 21
9.0
 31
0.0
100
AcDbText
 73
     3
  0
TEXT
  5
240
330
226
100
AcDbEntity
  8
TITLEBLOCK
100
AcDbText
 10
-14.0
 20
7.2
 30
0.0
 40
1.8
  1
Sheet
  7
FusionTitle
 11
-14.0
 21
9.0
 31
0.0
100
AcDbText
 73
     3
  0
ATTDEF
  5
241
102
{ACAD_XDICTIONARY
360
242
102
}
330
226
100
AcDbEntity
  8
TITLEBLOCK
100
AcDbText
 10
-50.0
 20
1.5
 30
0.0
 40
3.5
  1

  7
FusionTitle
 11
-50.0
 21
5.0
 31
0.0
100
AcDbAttributeDefinition
280
     0
  3
Date of issue
  2
DATE_OF_ISSUE
 70
     0
 74
     3
280
     1
  0
ATTDEF
  5
243
102
{ACAD_XDICTIONARY
360
244
102
}
330
226
100
AcDbEntity
  8
TITLEBLOCK
100
AcDbText
 10
-61.026774
 20
1.35
 30
0.0
 40
3.5
  1

  7
FusionTitle
 72
     1
 11
-56.0
 21
4.85
 31
0.0
100
AcDbAttributeDefinition
280
     0
  3
Revision
  2
REV
 70
     0
 74
     3
280
     1
  0
ATTDEF
  5
245
102
{ACAD_XDICTIONARY
360
246
102
}
330
226
100
AcDbEntity
  8
TITLEBLOCK
100
AcDbText
 10
-121.0
 20
1.5
 30
0.0
 40
5.0
  1

  7
FusionTitle
 11
-121.0
 21
6.5
 31
0.0
100
AcDbAttributeDefinition
280
     0
  3
3rd Title
  2
TITLE_3
 70
     0
 74
     3
280
     1
  0
ATTDEF
  5
247
102
{ACAD_XDICTIONARY
360
248
102
}
330
226
100
AcDbEntity
  8
TITLEBLOCK
100
AcDbText
 10
-60.0
 20
28.5
 30
0.0
 40
3.5
  1

  7
FusionTitle
 11
-60.0
 21
32.0
 31
0.0
100
AcDbAttributeDefinition
280
     0
  3
Document status
  2
DOCUMENT_STATUS
 70
     0
 74
     3
280
     1
  0
ATTDEF
  5
249
102
{ACAD_XDICTIONARY
360
24A
102
}
330
226
100
AcDbEntity
  8
TITLEBLOCK
100
AcDbText
 10
-121.0
 20
28.5
 30
0.0
 40
3.5
  1

  7
FusionTitle
 11
-121.0
 21
32.0
 31
0.0
100
AcDbAttributeDefinition
280
     0
  3
Document type
  2
DOCUMENT_TYPE
 70
     0
 74
     3
280
     1
  0
ATTDEF
  5
24B
102
{ACAD_XDICTIONARY
360
24C
102
}
330
226
100
AcDbEntity
  8
TITLEBLOCK
100
AcDbText
 10
-43.923943
 20
38.5
 30
0.0
 40
3.5
  1

  7
FusionTitle
 72
     2
 11
-0.992838
 21
42.0
 31
0.0
100
AcDbAttributeDefinition
280
     0
  3
Approved date
  2
APPROVED_DATE
 70
     0
 74
     3
280
     1
  0
ATTDEF
  5
24D
102
{ACAD_XDICTIONARY
360
24E
102
}
330
226
100
AcDbEntity
  8
TITLEBLOCK
100
AcDbText
 10
-101.123124
 20
38.5
 30
0.0
 40
3.5
  1

  7
FusionTitle
 72
     2
 11
-62.0
 21
42.0
 31
0.0
100
AcDbAttributeDefinition
280
     0
  3
Created date
  2
CREATED_DATE
 70
     0
 74
     3
280
     1
  0
ATTDEF
  5
24F
102
{ACAD_XDICTIONARY
360
250
102
}
330
226
100
AcDbEntity
  8
TITLEBLOCK
100
AcDbText
 10
-15.65075
 20
1.35
 30
0.0
 40
3.5
  1

  7
FusionTitle
 72
     1
 11
-7.5
 21
4.85
 31
0.0
100
AcDbAttributeDefinition
280
     0
  3
Sheet
  2
SHEET
 70
     0
 74
     3
280
     1
  0
ATTDEF
  5
251
102
{ACAD_XDICTIONARY
360
252
102
}
330
226
100
AcDbEntity
  8
TITLEBLOCK
100
AcDbText
 10
-121.0
 20
9.0
 30
0.0
 40
5.0
  1

  7
FusionTitle
 11
-121.0
 21
14.0
 31
0.0
100
AcDbAttributeDefinition
280
     0
  3
2nd Title
  2
TITLE_2
 70
     0
 74
     3
280
     1
  0
ATTDEF
  5
253
102
{ACAD_XDICTIONARY
360
254
102
}
330
226
100
AcDbEntity
  8
TITLEBLOCK
100
AcDbText
 10
-64.456344
 20
14.751432
 30
0.0
 40
5.0
  1

  7
FusionTitle
 72
     1
 11
-30.5
 21
19.751432
 31
0.0
100
AcDbAttributeDefinition
280
     0
  3
Drawing number
  2
DRAWING_NUMBER
 70
     0
 74
     3
280
     1
  0
ATTDEF
  5
255
102
{ACAD_XDICTIONARY
360
256
102
}
330
226
100
AcDbEntity
  8
TITLEBLOCK
100
AcDbText
 10
-121.0
 20
16.5
 30
0.0
 40
5.0
  1

  7
FusionTitle
 11
-121.0
 21
21.5
 31
0.0
100
AcDbAttributeDefinition
280
     0
  3
1st Title
  2
TITLE_1
 70
     0
 74
     3
280
     1
  0
ATTDEF
  5
257
102
{ACAD_XDICTIONARY
360
258
102
}
330
226
100
AcDbEntity
  8
TITLEBLOCK
100
AcDbText
 10
-60.0
 20
38.5
 30
0.0
 40
3.5
  1

  7
FusionTitle
 11
-60.0
 21
42.0
 31
0.0
100
AcDbAttributeDefinition
280
     0
  3
Approved by
  2
APPROVED_BY
 70
     0
 74
     3
280
     1
  0
ATTDEF
  5
259
102
{ACAD_XDICTIONARY
360
25A
102
}
330
226
100
AcDbEntity
  8
TITLEBLOCK
100
AcDbText
 10
-121.0
 20
38.5
 30
0.0
 40
3.5
  1

  7
FusionTitle
 11
-121.0
 21
42.0
 31
0.0
100
AcDbAttributeDefinition
280
     0
  3
Created by
  2
CREATED_BY
 70
     0
 74
     3
280
     1
  0
ATTDEF
  5
25B
102
{ACAD_XDICTIONARY
360
25C
102
}
330
226
100
AcDbEntity
  8
TITLEBLOCK
100
AcDbText
 10
-155.0
 20
38.5
 30
0.0
 40
3.5
  1

  7
FusionTitle
 11
-155.0
 21
42.0
 31
0.0
100
AcDbAttributeDefinition
280
     0
  3
Technical reference
  2
TECHNICAL_REFERENCE
 70
     0
 74
     3
280
     1
  0
ATTDEF
  5
25D
102
{ACAD_XDICTIONARY
360
25E
102
}
330
226
100
AcDbEntity
  8
TITLEBLOCK
100
AcDbText
 10
-179.0
 20
38.5
 30
0.0
 40
3.5
  1

  7
FusionTitle
 11
-179.0
 21
42.0
 31
0.0
100
AcDbAttributeDefinition
280
     0
  3
Department
  2
DEPT
 70
     0
 74
     3
280
     1
  0
ENDBLK
  5
25F
330
226
100
AcDbEntity
  8
0
100
AcDbBlockEnd
  0
BLOCK
  5
274
330
272
100
AcDbEntity
  8
0
100
AcDbBlockBegin
  2
ISO_A2_SHEET
 70
     0
 10
0.0
 20
0.0
 30
0.0
  3
ISO_A2_SHEET
  1

  0
LINE
  5
275
330
272
100
AcDbEntity
  8
Defpoints
100
AcDbLine
 10
0.0
 20
0.0
 30
0.0
 11
15.0
 21
0.0
 31
0.0
  0
LINE
  5
276
330
272
100
AcDbEntity
  8
Defpoints
100
AcDbLine
 10
0.0
 20
420.0
 30
0.0
 11
15.0
 21
420.0
 31
0.0
  0
LINE
  5
277
330
272
100
AcDbEntity
  8
BORDER
100
AcDbLine
 10
20.0
 20
410.0
 30
0.0
 11
584.0
 21
410.0
 31
0.0
  0
LINE
  5
278
330
272
100
AcDbEntity
  8
BORDER
100
AcDbLine
 10
20.0
 20
10.0
 30
0.0
 11
584.0
 21
10.0
 31
0.0
  0
LINE
  5
279
330
272
100
AcDbEntity
  8
Defpoints
100
AcDbLine
 10
0.0
 20
15.0
 30
0.0
 11
0.0
 21
0.0
 31
0.0
  0
LINE
  5
27A
330
272
100
AcDbEntity
  8
Defpoints
100
AcDbLine
 10
594.0
 20
15.0
 30
0.0
 11
594.0
 21
0.0
 31
0.0
  0
LINE
  5
27B
330
272
100
AcDbEntity
  8
BORDER
100
AcDbLine
 10
20.0
 20
410.0
 30
0.0
 11
20.0
 21
10.0
 31
0.0
  0
LINE
  5
27C
330
272
100
AcDbEntity
  8
Defpoints
100
AcDbLine
 10
579.0
 20
0.0
 30
0.0
 11
594.0
 21
0.0
 31
0.0
  0
LINE
  5
27D
330
272
100
AcDbEntity
  8
Defpoints
100
AcDbLine
 10
579.0
 20
420.0
 30
0.0
 11
594.0
 21
420.0
 31
0.0
  0
LINE
  5
27E
330
272
100
AcDbEntity
  8
Defpoints
100
AcDbLine
 10
0.0
 20
420.0
 30
0.0
 11
0.0
 21
405.0
 31
0.0
  0
LINE
  5
27F
330
272
100
AcDbEntity
  8
Defpoints
100
AcDbLine
 10
594.0
 20
420.0
 30
0.0
 11
594.0
 21
405.0
 31
0.0
  0
LINE
  5
280
330
272
100
AcDbEntity
  8
BORDER
100
AcDbLine
 10
584.0
 20
410.0
 30
0.0
 11
584.0
 21
10.0
 31
0.0
  0
LINE
  5
281
330
272
100
AcDbEntity
  8
BORDER
100
AcDbLine
 10
302.0
 20
415.0
 30
0.0
 11
302.0
 21
405.0
 31
0.0
  0
LINE
  5
282
330
272
100
AcDbEntity
  8
BORDER
100
AcDbLine
 10
302.0
 20
15.0
 30
0.0
 11
302.0
 21
5.0
 31
0.0
  0
LINE
  5
283
330
272
100
AcDbEntity
  8
BORDER
100
AcDbLine
 10
254.1667
 20
10.0
 30
0.0
 11
254.1667
 21
5.0
 31
0.0
  0
LINE
  5
284
330
272
100
AcDbEntity
  8
BORDER
100
AcDbLine
 10
206.3334
 20
10.0
 30
0.0
 11
206.3334
 21
5.0
 31
0.0
  0
LINE
  5
285
330
272
100
AcDbEntity
  8
BORDER
100
AcDbLine
 10
158.5001
 20
10.0
 30
0.0
 11
158.5001
 21
5.0
 31
0.0
  0
LINE
  5
286
330
272
100
AcDbEntity
  8
BORDER
100
AcDbLine
 10
110.6668
 20
10.0
 30
0.0
 11
110.6668
 21
5.0
 31
0.0
  0
LINE
  5
287
330
272
100
AcDbEntity
  8
BORDER
100
AcDbLine
 10
62.8335
 20
10.0
 30
0.0
 11
62.8335
 21
5.0
 31
0.0
  0
LINE
  5
288
330
272
100
AcDbEntity
  8
BORDER
100
AcDbLine
 10
349.8333
 20
10.0
 30
0.0
 11
349.8333
 21
5.0
 31
0.0
  0
LINE
  5
289
330
272
100
AcDbEntity
  8
BORDER
100
AcDbLine
 10
397.6666
 20
10.0
 30
0.0
 11
397.6666
 21
5.0
 31
0.0
  0
LINE
  5
28A
330
272
100
AcDbEntity
  8
BORDER
100
AcDbLine
 10
445.4999
 20
10.0
 30
0.0
 11
445.4999
 21
5.0
 31
0.0
  0
LINE
  5
28B
330
272
100
AcDbEntity
  8
BORDER
100
AcDbLine
 10
493.3332
 20
10.0
 30
0.0
 11
493.3332
 21
5.0
 31
0.0
  0
LINE
  5
28C
330
272
100
AcDbEntity
  8
BORDER
100
AcDbLine
 10
541.1665
 20
10.0
 30
0.0
 11
541.1665
 21
5.0
 31
0.0
  0
LINE
  5
28D
330
272
100
AcDbEntity
  8
BORDER
100
AcDbLine
 10
15.0
 20
210.0
 30
0.0
 11
25.0
 21
210.0
 31
0.0
  0
LINE
  5
28E
330
272
100
AcDbEntity
  8
BORDER
100
AcDbLine
 10
15.0
 20
158.75
 30
0.0
 11
20.0
 21
158.75
 31
0.0
  0
LINE
  5
28F
330
272
100
AcDbEntity
  8
BORDER
100
AcDbLine
 10
15.0
 20
107.5
 30
0.0
 11
20.0
 21
107.5
 31
0.0
  0
LINE
  5
290
330
272
100
AcDbEntity
  8
BORDER
100
AcDbLine
 10
15.0
 20
56.25
 30
0.0
 11
20.0
 21
56.25
 31
0.0
  0
LINE
  5
291
330
272
100
AcDbEntity
  8
BORDER
100
AcDbLine
 10
15.0
 20
261.25
 30
0.0
 11
20.0
 21
261.25
 31
0.0
  0
LINE
  5
292
330
272
100
AcDbEntity
  8
BORDER
100
AcDbLine
 10
15.0
 20
312.5
 30
0.0
 11
20.0
 21
312.5
 31
0.0
  0
LINE
  5
293
330
272
100
AcDbEntity
  8
BORDER
100
AcDbLine
 10
15.0
 20
363.75
 30
0.0
 11
20.0
 21
363.75
 31
0.0
  0
LINE
  5
294
330
272
100
AcDbEntity
  8
BORDER
100
AcDbLine
 10
579.0
 20
210.0
 30
0.0
 11
589.0
 21
210.0
 31
0.0
  0
TEXT
  5
295
330
272
100
AcDbEntity
  8
BORDER
100
AcDbText
 10
85.77897
 20
6.244884
 30
0.0
 40
2.5
  1
2
  7
FusionTitle
 72
     4
 11
86.75015
 21
7.5
 31
0.0
100
AcDbText
  0
TEXT
  5
296
330
272
100
AcDbEntity
  8
BORDER
100
AcDbText
 10
37.94567
 20
6.244884
 30
0.0
 40
2.5
  1
1
  7
FusionTitle
 72
     4
 11
38.91685
 21
7.5
 31
0.0
100
AcDbText
  0
TEXT
  5
297
330
272
100
AcDbEntity
  8
BORDER
100
AcDbText
 10
133.61227
 20
6.267053
 30
0.0
 40
2.5
  1
3
  7
FusionTitle
 72
     4
 11
134.58345
 21
7.5
 31
0.0
100
AcDbText
  0
TEXT
  5
298
330
272
100
AcDbEntity
  8
BORDER
100
AcDbText
 10
181.44557
 20
6.25
 30
0.0
 40
2.5
  1
4
  7
FusionTitle
 72
     4
 11
182.41675
 21
7.5
 31
0.0
100
AcDbText
  0
TEXT
  5
299
330
272
100
AcDbEntity
  8
BORDER
100
AcDbText
 10
229.27887
 20
6.28837
 30
0.0
 40
2.5
  1
5
  7
FusionTitle
 72
     4
 11
230.25005
 21
7.5
 31
0.0
100
AcDbText
  0
TEXT
  5
29A
330
272
100
AcDbEntity
  8
BORDER
100
AcDbText
 10
277.11217
 20
6.266201
 30
0.0
 40
2.5
  1
6
  7
FusionTitle
 72
     4
 11
278.08335
 21
7.5
 31
0.0
100
AcDbText
  0
TEXT
  5
29B
330
272
100
AcDbEntity
  8
BORDER
100
AcDbText
 10
324.94547
 20
6.266201
 30
0.0
 40
2.5
  1
7
  7
FusionTitle
 72
     4
 11
325.91665
 21
7.5
 31
0.0
100
AcDbText
  0
TEXT
  5
29C
330
272
100
AcDbEntity
  8
BORDER
100
AcDbText
 10
372.77877
 20
6.266201
 30
0.0
 40
2.5
  1
8
  7
FusionTitle
 72
     4
 11
373.74995
 21
7.5
 31
0.0
100
AcDbText
  0
TEXT
  5
29D
330
272
100
AcDbEntity
  8
BORDER
100
AcDbText
 10
420.61207
 20
6.266201
 30
0.0
 40
2.5
  1
9
  7
FusionTitle
 72
     4
 11
421.58325
 21
7.5
 31
0.0
100
AcDbText
  0
TEXT
  5
29E
330
272
100
AcDbEntity
  8
BORDER
100
AcDbText
 10
467.47419
 20
6.266201
 30
0.0
 40
2.5
  1
10
  7
FusionTitle
 72
     4
 11
469.41655
 21
7.5
 31
0.0
100
AcDbText
  0
TEXT
  5
29F
330
272
100
AcDbEntity
  8
BORDER
100
AcDbText
 10
515.30749
 20
6.244884
 30
0.0
 40
2.5
  1
11
  7
FusionTitle
 72
     4
 11
517.24985
 21
7.5
 31
0.0
100
AcDbText
  0
TEXT
  5
2A0
330
272
100
AcDbEntity
  8
BORDER
100
AcDbText
 10
563.14079
 20
6.244884
 30
0.0
 40
2.5
  1
12
  7
FusionTitle
 72
     4
 11
565.08315
 21
7.5
 31
0.0
100
AcDbText
  0
LINE
  5
2A1
330
272
100
AcDbEntity
  8
BORDER
100
AcDbLine
 10
254.1667
 20
415.0
 30
0.0
 11
254.1667
 21
410.0
 31
0.0
  0
LINE
  5
2A2
330
272
100
AcDbEntity
  8
BORDER
100
AcDbLine
 10
206.3334
 20
415.0
 30
0.0
 11
206.3334
 21
410.0
 31
0.0
  0
LINE
  5
2A3
330
272
100
AcDbEntity
  8
BORDER
100
AcDbLine
 10
158.5001
 20
415.0
 30
0.0
 11
158.5001
 21
410.0
 31
0.0
  0
LINE
  5
2A4
330
272
100
AcDbEntity
  8
BORDER
100
AcDbLine
 10
110.6668
 20
415.0
 30
0.0
 11
110.6668
 21
410.0
 31
0.0
  0
LINE
  5
2A5
330
272
100
AcDbEntity
  8
BORDER
100
AcDbLine
 10
62.8335
 20
415.0
 30
0.0
 11
62.8335
 21
410.0
 31
0.0
  0
LINE
  5
2A6
330
272
100
AcDbEntity
  8
BORDER
100
AcDbLine
 10
349.8333
 20
415.0
 30
0.0
 11
349.8333
 21
410.0
 31
0.0
  0
LINE
  5
2A7
330
272
100
AcDbEntity
  8
BORDER
100
AcDbLine
 10
397.6666
 20
415.0
 30
0.0
 11
397.6666
 21
410.0
 31
0.0
  0
LINE
  5
2A8
330
272
100
AcDbEntity
  8
BORDER
100
AcDbLine
 10
445.4999
 20
415.0
 30
0.0
 11
445.4999
 21
410.0
 31
0.0
  0
LINE
  5
2A9
330
272
100
AcDbEntity
  8
BORDER
100
AcDbLine
 10
493.3332
 20
415.0
 30
0.0
 11
493.3332
 21
410.0
 31
0.0
  0
LINE
  5
2AA
330
272
100
AcDbEntity
  8
BORDER
100
AcDbLine
 10
541.1665
 20
415.0
 30
0.0
 11
541.1665
 21
410.0
 31
0.0
  0
TEXT
  5
2AB
330
272
100
AcDbEntity
  8
BORDER
100
AcDbText
 10
85.77897
 20
411.244884
 30
0.0
 40
2.5
  1
2
  7
FusionTitle
 72
     4
 11
86.75015
 21
412.5
 31
0.0
100
AcDbText
  0
TEXT
  5
2AC
330
272
100
AcDbEntity
  8
BORDER
100
AcDbText
 10
37.94567
 20
411.244884
 30
0.0
 40
2.5
  1
1
  7
FusionTitle
 72
     4
 11
38.91685
 21
412.5
 31
0.0
100
AcDbText
  0
TEXT
  5
2AD
330
272
100
AcDbEntity
  8
BORDER
100
AcDbText
 10
133.61227
 20
411.267053
 30
0.0
 40
2.5
  1
3
  7
FusionTitle
 72
     4
 11
134.58345
 21
412.5
 31
0.0
100
AcDbText
  0
TEXT
  5
2AE
330
272
100
AcDbEntity
  8
BORDER
100
AcDbText
 10
181.44557
 20
411.25
 30
0.0
 40
2.5
  1
4
  7
FusionTitle
 72
     4
 11
182.41675
 21
412.5
 31
0.0
100
AcDbText
  0
TEXT
  5
2AF
330
272
100
AcDbEntity
  8
BORDER
100
AcDbText
 10
229.27887
 20
411.28837
 30
0.0
 40
2.5
  1
5
  7
FusionTitle
 72
     4
 11
230.25005
 21
412.5
 31
0.0
100
AcDbText
  0
TEXT
  5
2B0
330
272
100
AcDbEntity
  8
BORDER
100
AcDbText
 10
277.11217
 20
411.266201
 30
0.0
 40
2.5
  1
6
  7
FusionTitle
 72
     4
 11
278.08335
 21
412.5
 31
0.0
100
AcDbText
  0
TEXT
  5
2B1
330
272
100
AcDbEntity
  8
BORDER
100
AcDbText
 10
324.94547
 20
411.266201
 30
0.0
 40
2.5
  1
7
  7
FusionTitle
 72
     4
 11
325.91665
 21
412.5
 31
0.0
100
AcDbText
  0
TEXT
  5
2B2
330
272
100
AcDbEntity
  8
BORDER
100
AcDbText
 10
372.77877
 20
411.266201
 30
0.0
 40
2.5
  1
8
  7
FusionTitle
 72
     4
 11
373.74995
 21
412.5
 31
0.0
100
AcDbText
  0
TEXT
  5
2B3
330
272
100
AcDbEntity
  8
BORDER
100
AcDbText
 10
420.61207
 20
411.266201
 30
0.0
 40
2.5
  1
9
  7
FusionTitle
 72
     4
 11
421.58325
 21
412.5
 31
0.0
100
AcDbText
  0
TEXT
  5
2B4
330
272
100
AcDbEntity
  8
BORDER
100
AcDbText
 10
467.47419
 20
411.266201
 30
0.0
 40
2.5
  1
10
  7
FusionTitle
 72
     4
 11
469.41655
 21
412.5
 31
0.0
100
AcDbText
  0
TEXT
  5
2B5
330
272
100
AcDbEntity
  8
BORDER
100
AcDbText
 10
515.30749
 20
411.244884
 30
0.0
 40
2.5
  1
11
  7
FusionTitle
 72
     4
 11
517.24985
 21
412.5
 31
0.0
100
AcDbText
  0
TEXT
  5
2B6
330
272
100
AcDbEntity
  8
BORDER
100
AcDbText
 10
563.14079
 20
411.244884
 30
0.0
 40
2.5
  1
12
  7
FusionTitle
 72
     4
 11
565.08315
 21
412.5
 31
0.0
100
AcDbText
  0
TEXT
  5
2B7
330
272
100
AcDbEntity
  8
BORDER
100
AcDbText
 10
16.335266
 20
336.875
 30
0.0
 40
2.5
  1
B
  7
FusionTitle
 72
     4
 11
17.5
 21
338.125
 31
0.0
100
AcDbText
  0
TEXT
  5
2B8
330
272
100
AcDbEntity
  8
BORDER
100
AcDbText
 10
16.335266
 20
388.125
 30
0.0
 40
2.5
  1
A
  7
FusionTitle
 72
     4
 11
17.5
 21
389.375
 31
0.0
100
AcDbText
  0
TEXT
  5
2B9
330
272
100
AcDbEntity
  8
BORDER
100
AcDbText
 10
16.238915
 20
285.625
 30
0.0
 40
2.5
  1
C
  7
FusionTitle
 72
     4
 11
17.5
 21
286.875
 31
0.0
100
AcDbText
  0
TEXT
  5
2BA
330
272
100
AcDbEntity
  8
BORDER
100
AcDbText
 10
16.238915
 20
234.375
 30
0.0
 40
2.5
  1
D
  7
FusionTitle
 72
     4
 11
17.5
 21
235.625
 31
0.0
100
AcDbText
  0
TEXT
  5
2BB
330
272
100
AcDbEntity
  8
BORDER
100
AcDbText
 10
16.335266
 20
183.125
 30
0.0
 40
2.5
  1
E
  7
FusionTitle
 72
     4
 11
17.5
 21
184.375
 31
0.0
100
AcDbText
  0
TEXT
  5
2BC
330
272
100
AcDbEntity
  8
BORDER
100
AcDbText
 10
16.433322
 20
131.875
 30
0.0
 40
2.5
  1
F
  7
FusionTitle
 72
     4
 11
17.5
 21
133.125
 31
0.0
100
AcDbText
  0
TEXT
  5
2BD
330
272
100
AcDbEntity
  8
BORDER
100
AcDbText
 10
16.141712
 20
80.625
 30
0.0
 40
2.5
  1
G
  7
FusionTitle
 72
     4
 11
17.5
 21
81.875
 31
0.0
100
AcDbText
  0
TEXT
  5
2BE
330
272
100
AcDbEntity
  8
BORDER
100
AcDbText
 10
16.238915
 20
29.375
 30
0.0
 40
2.5
  1
H
  7
FusionTitle
 72
     4
 11
17.5
 21
30.625
 31
0.0
100
AcDbText
  0
LINE
  5
2BF
330
272
100
AcDbEntity
  8
BORDER
100
AcDbLine
 10
584.0
 20
158.75
 30
0.0
 11
589.0
 21
158.75
 31
0.0
  0
LINE
  5
2C0
330
272
100
AcDbEntity
  8
BORDER
100
AcDbLine
 10
584.0
 20
107.5
 30
0.0
 11
589.0
 21
107.5
 31
0.0
  0
LINE
  5
2C1
330
272
100
AcDbEntity
  8
BORDER
100
AcDbLine
 10
584.0
 20
56.25
 30
0.0
 11
589.0
 21
56.25
 31
0.0
  0
LINE
  5
2C2
330
272
100
AcDbEntity
  8
BORDER
100
AcDbLine
 10
584.0
 20
261.25
 30
0.0
 11
589.0
 21
261.25
 31
0.0
  0
LINE
  5
2C3
330
272
100
AcDbEntity
  8
BORDER
100
AcDbLine
 10
584.0
 20
312.5
 30
0.0
 11
589.0
 21
312.5
 31
0.0
  0
LINE
  5
2C4
330
272
100
AcDbEntity
  8
BORDER
100
AcDbLine
 10
584.0
 20
363.75
 30
0.0
 11
589.0
 21
363.75
 31
0.0
  0
TEXT
  5
2C5
330
272
100
AcDbEntity
  8
BORDER
100
AcDbText
 10
585.335266
 20
336.875
 30
0.0
 40
2.5
  1
B
  7
FusionTitle
 72
     4
 11
586.5
 21
338.125
 31
0.0
100
AcDbText
  0
TEXT
  5
2C6
330
272
100
AcDbEntity
  8
BORDER
100
AcDbText
 10
585.335266
 20
388.125
 30
0.0
 40
2.5
  1
A
  7
FusionTitle
 72
     4
 11
586.5
 21
389.375
 31
0.0
100
AcDbText
  0
TEXT
  5
2C7
330
272
100
AcDbEntity
  8
BORDER
100
AcDbText
 10
585.238915
 20
285.625
 30
0.0
 40
2.5
  1
C
  7
FusionTitle
 72
     4
 11
586.5
 21
286.875
 31
0.0
100
AcDbText
  0
TEXT
  5
2C8
330
272
100
AcDbEntity
  8
BORDER
100
AcDbText
 10
585.238915
 20
234.375
 30
0.0
 40
2.5
  1
D
  7
FusionTitle
 72
     4
 11
586.5
 21
235.625
 31
0.0
100
AcDbText
  0
TEXT
  5
2C9
330
272
100
AcDbEntity
  8
BORDER
100
AcDbText
 10
585.335266
 20
183.125
 30
0.0
 40
2.5
  1
E
  7
FusionTitle
 72
     4
 11
586.5
 21
184.375
 31
0.0
100
AcDbText
  0
TEXT
  5
2CA
330
272
100
AcDbEntity
  8
BORDER
100
AcDbText
 10
585.433322
 20
131.875
 30
0.0
 40
2.5
  1
F
  7
FusionTitle
 72
     4
 11
586.5
 21
133.125
 31
0.0
100
AcDbText
  0
TEXT
  5
2CB
330
272
100
AcDbEntity
  8
BORDER
100
AcDbText
 10
585.141712
 20
80.625
 30
0.0
 40
2.5
  1
G
  7
FusionTitle
 72
     4
 11
586.5
 21
81.875
 31
0.0
100
AcDbText
  0
TEXT
  5
2CC
330
272
100
AcDbEntity
  8
BORDER
100
AcDbText
 10
585.238915
 20
29.375
 30
0.0
 40
2.5
  1
H
  7
FusionTitle
 72
     4
 11
586.5
 21
30.625
 31
0.0
100
AcDbText
  0
ENDBLK
  5
2CD
330
272
100
AcDbEntity
  8
0
100
AcDbBlockEnd
  0
ENDSEC
  0
SECTION
  2
ENTITIES
  0
INSERT
  5
224
330
70
100
AcDbEntity
  8
TITLEBLOCK
100
AcDbBlockReference
 66
     1
  2
ISO_TITLEBLOCK
 10
584.0
 20
10.0
 30
0.0
  0
ATTRIB
  5
260
330
224
100
AcDbEntity
  8
TITLEBLOCK
100
AcDbText
 10
534.0
 20
11.5
 30
0.0
 40
3.5
  1

  7
FusionTitle
 11
534.0
 21
15.0
 31
0.0
100
AcDbAttribute
280
     0
  2
DATE_OF_ISSUE
 70
     0
 74
     3
280
     1
  0
ATTRIB
  5
261
330
224
100
AcDbEntity
  8
TITLEBLOCK
100
AcDbText
 10
528.0
 20
11.35
 30
0.0
 40
3.5
  1

  7
FusionTitle
 72
     1
 11
528.0
 21
14.85
 31
0.0
100
AcDbAttribute
280
     0
  2
REV
 70
     0
 74
     3
280
     1
  0
ATTRIB
  5
262
330
224
100
AcDbEntity
  8
TITLEBLOCK
100
AcDbText
 10
463.0
 20
11.5
 30
0.0
 40
5.0
  1
: 3  : 1
  7
FusionTitle
 11
463.0
 21
16.5
 31
0.0
100
AcDbAttribute
280
     0
  2
TITLE_3
 70
     0
 74
     3
280
     1
1001
FUSIONTITLEBLOCKATTRIBUTEOVERRIDE
1070
     1
  0
ATTRIB
  5
263
330
224
100
AcDbEntity
  8
TITLEBLOCK
100
AcDbText
 10
524.0
 20
38.5
 30
0.0
 40
3.5
  1

  7
FusionTitle
 11
524.0
 21
42.0
 31
0.0
100
AcDbAttribute
280
     0
  2
DOCUMENT_STATUS
 70
     0
 74
     3
280
     1
  0
ATTRIB
  5
264
330
224
100
AcDbEntity
  8
TITLEBLOCK
100
AcDbText
 10
463.0
 20
38.5
 30
0.0
 40
3.5
  1

  7
FusionTitle
 11
463.0
 21
42.0
 31
0.0
100
AcDbAttribute
280
     0
  2
DOCUMENT_TYPE
 70
     0
 74
     3
280
     1
  0
ATTRIB
  5
265
330
224
100
AcDbEntity
  8
TITLEBLOCK
100
AcDbText
 10
583.007162
 20
48.5
 30
0.0
 40
3.5
  1

  7
FusionTitle
 72
     2
 11
583.007162
 21
52.0
 31
0.0
100
AcDbAttribute
280
     0
  2
APPROVED_DATE
 70
     0
 74
     3
280
     1
  0
ATTRIB
  5
266
330
224
100
AcDbEntity
  8
TITLEBLOCK
100
AcDbText
 10
500.247954
 20
48.5
 30
0.0
 40
3.5
  1
2024/9/26
  7
FusionTitle
 72
     2
 11
522.0
 21
52.0
 31
0.0
100
AcDbAttribute
280
     0
  2
CREATED_DATE
 70
     0
 74
     3
280
     1
  0
ATTRIB
  5
267
330
224
100
AcDbEntity
  8
TITLEBLOCK
100
AcDbText
 10
570.382162
 20
11.35
 30
0.0
 40
3.5
  1
23/24
  7
FusionTitle
 72
     1
 11
576.5
 21
14.85
 31
0.0
100
AcDbAttribute
280
     0
  2
SHEET
 70
     0
 74
     3
280
     1
  0
ATTRIB
  5
268
330
224
100
AcDbEntity
  8
TITLEBLOCK
100
AcDbText
 10
463.0
 20
19.0
 30
0.0
 40
5.0
  1
PL_C3__ 
  7
FusionTitle
 11
463.0
 21
24.0
 31
0.0
100
AcDbAttribute
280
     0
  2
TITLE_2
 70
     0
 74
     3
280
     1
1001
FUSIONTITLEBLOCKATTRIBUTEOVERRIDE
1070
     1
  0
ATTRIB
  5
269
330
224
100
AcDbEntity
  8
TITLEBLOCK
100
AcDbText
 10
553.5
 20
24.751432
 30
0.0
 40
5.0
  1

  7
FusionTitle
 72
     1
 11
553.5
 21
29.751432
 31
0.0
100
AcDbAttribute
280
     0
  2
DRAWING_NUMBER
 70
     0
 74
     3
280
     1
  0
ATTRIB
  5
26A
330
224
100
AcDbEntity
  8
TITLEBLOCK
100
AcDbText
 10
463.0
 20
26.5
 30
0.0
 40
5.0
  1
Aokee
  7
FusionTitle
 11
463.0
 21
31.5
 31
0.0
100
AcDbAttribute
280
     0
  2
TITLE_1
 70
     0
 74
     3
280
     1
  0
ATTRIB
  5
26B
330
224
100
AcDbEntity
  8
TITLEBLOCK
100
AcDbText
 10
524.0
 20
48.5
 30
0.0
 40
3.5
  1

  7
FusionTitle
 11
524.0
 21
52.0
 31
0.0
100
AcDbAttribute
280
     0
  2
APPROVED_BY
 70
     0
 74
     3
280
     1
  0
ATTRIB
  5
26C
330
224
100
AcDbEntity
  8
TITLEBLOCK
100
AcDbText
 10
463.0
 20
48.5
 30
0.0
 40
3.5
  1
 
  7
FusionTitle
 11
463.0
 21
52.0
 31
0.0
100
AcDbAttribute
280
     0
  2
CREATED_BY
 70
     0
 74
     3
280
     1
  0
ATTRIB
  5
26D
330
224
100
AcDbEntity
  8
TITLEBLOCK
100
AcDbText
 10
429.0
 20
48.5
 30
0.0
 40
3.5
  1

  7
FusionTitle
 11
429.0
 21
52.0
 31
0.0
100
AcDbAttribute
280
     0
  2
TECHNICAL_REFERENCE
 70
     0
 74
     3
280
     1
  0
ATTRIB
  5
26E
330
224
100
AcDbEntity
  8
TITLEBLOCK
100
AcDbText
 10
405.0
 20
48.5
 30
0.0
 40
3.5
  1

  7
FusionTitle
 11
405.0
 21
52.0
 31
0.0
100
AcDbAttribute
280
     0
  2
DEPT
 70
     0
 74
     3
280
     1
  0
SEQEND
  5
26F
330
224
100
AcDbEntity
  8
TITLEBLOCK
  0
INSERT
  5
270
330
70
100
AcDbEntity
  8
BORDER
100
AcDbBlockReference
  2
ISO_A2_SHEET
 10
0.0
 20
0.0
 30
0.0
  0
ARC
  5
2CF
330
70
100
AcDbEntity
  8
Visible
100
AcDbCircle
 10
262.378667
 20
163.641701
 30
0.0
 40
3.0
100
AcDbArc
 50
180.0
 51
285.961863
  0
LINE
  5
2D0
330
70
100
AcDbEntity
  8
Visible
100
AcDbLine
 10
282.283419
 20
166.214658
 30
0.0
 11
263.203659
 21
160.757366
 31
0.0
  0
ARC
  5
2D1
330
70
100
AcDbEntity
  8
Visible
100
AcDbCircle
 10
262.378667
 20
197.58803
 30
0.0
 40
3.0
100
AcDbArc
 50
74.038137
 51
180.0
  0
LINE
  5
2D2
330
70
100
AcDbEntity
  8
Visible
100
AcDbLine
 10
259.378667
 20
186.673447
 30
0.0
 11
259.378667
 21
197.58803
 31
0.0
  0
ARC
  5
2D3
330
70
100
AcDbEntity
  8
Visible
100
AcDbCircle
 10
296.640413
 20
175.157574
 30
0.0
 40
3.0
100
AcDbArc
 50
254.038137
 51
0.0
  0
LINE
  5
2D4
330
70
100
AcDbEntity
  8
Visible
100
AcDbLine
 10
299.640413
 20
186.072157
 30
0.0
 11
299.640413
 21
175.157574
 31
0.0
  0
ARC
  5
2D5
330
70
100
AcDbEntity
  8
Visible
100
AcDbCircle
 10
262.378667
 20
186.673447
 30
0.0
 40
3.0
100
AcDbArc
 50
180.0
 51
285.961863
  0
LINE
  5
2D6
330
70
100
AcDbEntity
  8
Visible
100
AcDbLine
 10
282.283419
 20
189.246404
 30
0.0
 11
263.203659
 21
183.789112
 31
0.0
  0
ARC
  5
2D7
330
70
100
AcDbEntity
  8
Visible
100
AcDbCircle
 10
281.458427
 20
192.130739
 30
0.0
 40
3.0
100
AcDbArc
 50
285.961863
 51
74.038137
  0
LINE
  5
2D8
330
70
100
AcDbEntity
  8
Visible
100
AcDbLine
 10
263.203659
 20
200.472365
 30
0.0
 11
282.283419
 21
195.015073
 31
0.0
  0
ARC
  5
2D9
330
70
100
AcDbEntity
  8
Visible
100
AcDbCircle
 10
281.458427
 20
169.098992
 30
0.0
 40
3.0
100
AcDbArc
 50
285.961863
 51
74.038137
  0
LINE
  5
2DA
330
70
100
AcDbEntity
  8
Visible
100
AcDbLine
 10
263.203659
 20
177.440619
 30
0.0
 11
282.283419
 21
171.983327
 31
0.0
  0
ARC
  5
2DB
330
70
100
AcDbEntity
  8
Visible
100
AcDbCircle
 10
262.378667
 20
174.556284
 30
0.0
 40
3.0
100
AcDbArc
 50
74.038137
 51
180.0
  0
LINE
  5
2DC
330
70
100
AcDbEntity
  8
Visible
100
AcDbLine
 10
259.378667
 20
163.641701
 30
0.0
 11
259.378667
 21
174.556284
 31
0.0
  0
ARC
  5
2DD
330
70
100
AcDbEntity
  8
Visible
100
AcDbCircle
 10
296.640413
 20
278.199142
 30
0.0
 40
3.0
100
AcDbArc
 50
0.0
 51
105.961863
  0
LINE
  5
2DE
330
70
100
AcDbEntity
  8
Visible
100
AcDbLine
 10
276.73566
 20
275.626185
 30
0.0
 11
295.81542
 21
281.083477
 31
0.0
  0
ARC
  5
2DF
330
70
100
AcDbEntity
  8
Visible
100
AcDbCircle
 10
277.560653
 20
272.74185
 30
0.0
 40
3.0
100
AcDbArc
 50
105.961863
 51
254.038137
  0
LINE
  5
2E0
330
70
100
AcDbEntity
  8
Visible
100
AcDbLine
 10
295.81542
 20
264.400223
 30
0.0
 11
276.73566
 21
269.857515
 31
0.0
  0
ARC
  5
2E1
330
70
100
AcDbEntity
  8
Visible
100
AcDbCircle
 10
296.640413
 20
267.284558
 30
0.0
 40
3.0
100
AcDbArc
 50
254.038137
 51
0.0
  0
LINE
  5
2E2
330
70
100
AcDbEntity
  8
Visible
100
AcDbLine
 10
299.640413
 20
278.199142
 30
0.0
 11
299.640413
 21
267.284558
 31
0.0
  0
ARC
  5
2E3
330
70
100
AcDbEntity
  8
Visible
100
AcDbCircle
 10
296.640413
 20
221.221066
 30
0.0
 40
3.0
100
AcDbArc
 50
254.038137
 51
0.0
  0
LINE
  5
2E4
330
70
100
AcDbEntity
  8
Visible
100
AcDbLine
 10
299.640413
 20
232.13565
 30
0.0
 11
299.640413
 21
221.221066
 31
0.0
  0
ARC
  5
2E5
330
70
100
AcDbEntity
  8
Visible
100
AcDbCircle
 10
296.640413
 20
232.13565
 30
0.0
 40
3.0
100
AcDbArc
 50
0.0
 51
105.961863
  0
LINE
  5
2E6
330
70
100
AcDbEntity
  8
Visible
100
AcDbLine
 10
276.73566
 20
229.562693
 30
0.0
 11
295.81542
 21
235.019984
 31
0.0
  0
ARC
  5
2E7
330
70
100
AcDbEntity
  8
Visible
100
AcDbCircle
 10
277.560653
 20
226.678358
 30
0.0
 40
3.0
100
AcDbArc
 50
105.961863
 51
254.038137
  0
LINE
  5
2E8
330
70
100
AcDbEntity
  8
Visible
100
AcDbLine
 10
295.81542
 20
218.336731
 30
0.0
 11
276.73566
 21
223.794023
 31
0.0
  0
ARC
  5
2E9
330
70
100
AcDbEntity
  8
Visible
100
AcDbCircle
 10
281.458427
 20
215.162485
 30
0.0
 40
3.0
100
AcDbArc
 50
285.961863
 51
74.038137
  0
LINE
  5
2EA
330
70
100
AcDbEntity
  8
Visible
100
AcDbLine
 10
263.203659
 20
223.504111
 30
0.0
 11
282.283419
 21
218.04682
 31
0.0
  0
ARC
  5
2EB
330
70
100
AcDbEntity
  8
Visible
100
AcDbCircle
 10
281.458427
 20
238.194231
 30
0.0
 40
3.0
100
AcDbArc
 50
285.961863
 51
74.038137
  0
LINE
  5
2EC
330
70
100
AcDbEntity
  8
Visible
100
AcDbLine
 10
263.203659
 20
246.535857
 30
0.0
 11
282.283419
 21
241.078566
 31
0.0
  0
ARC
  5
2ED
330
70
100
AcDbEntity
  8
Visible
100
AcDbCircle
 10
262.378667
 20
243.651523
 30
0.0
 40
3.0
100
AcDbArc
 50
74.038137
 51
180.0
  0
LINE
  5
2EE
330
70
100
AcDbEntity
  8
Visible
100
AcDbLine
 10
259.378667
 20
232.736939
 30
0.0
 11
259.378667
 21
243.651523
 31
0.0
  0
ARC
  5
2EF
330
70
100
AcDbEntity
  8
Visible
100
AcDbCircle
 10
262.378667
 20
232.736939
 30
0.0
 40
3.0
100
AcDbArc
 50
180.0
 51
285.961863
  0
LINE
  5
2F0
330
70
100
AcDbEntity
  8
Visible
100
AcDbLine
 10
282.283419
 20
235.309896
 30
0.0
 11
263.203659
 21
229.852604
 31
0.0
  0
ARC
  5
2F1
330
70
100
AcDbEntity
  8
Visible
100
AcDbCircle
 10
296.640413
 20
160.583119
 30
0.0
 40
3.0
100
AcDbArc
 50
270.0
 51
0.0
  0
LINE
  5
2F2
330
70
100
AcDbEntity
  8
Visible
100
AcDbLine
 10
299.640413
 20
163.040411
 30
0.0
 11
299.640413
 21
160.583119
 31
0.0
  0
ARC
  5
2F3
330
70
100
AcDbEntity
  8
Visible
100
AcDbCircle
 10
262.378667
 20
278.800431
 30
0.0
 40
3.0
100
AcDbArc
 50
180.0
 51
285.961863
  0
LINE
  5
2F4
330
70
100
AcDbEntity
  8
Visible
100
AcDbLine
 10
271.794832
 20
278.373388
 30
0.0
 11
263.203659
 21
275.916097
 31
0.0
  0
ARC
  5
2F5
330
70
100
AcDbEntity
  8
Visible
100
AcDbCircle
 10
277.560653
 20
249.710104
 30
0.0
 40
3.0
100
AcDbArc
 50
105.961863
 51
254.038137
  0
LINE
  5
2F6
330
70
100
AcDbEntity
  8
Visible
100
AcDbLine
 10
295.81542
 20
241.368477
 30
0.0
 11
276.73566
 21
246.825769
 31
0.0
  0
ARC
  5
2F7
330
70
100
AcDbEntity
  8
Visible
100
AcDbCircle
 10
281.458427
 20
261.225977
 30
0.0
 40
3.0
100
AcDbArc
 50
285.961863
 51
74.038137
  0
LINE
  5
2F8
330
70
100
AcDbEntity
  8
Visible
100
AcDbLine
 10
263.203659
 20
269.567604
 30
0.0
 11
282.283419
 21
264.110312
 31
0.0
  0
ARC
  5
2F9
330
70
100
AcDbEntity
  8
Visible
100
AcDbCircle
 10
262.378667
 20
266.683269
 30
0.0
 40
3.0
100
AcDbArc
 50
74.038137
 51
180.0
  0
LINE
  5
2FA
330
70
100
AcDbEntity
  8
Visible
100
AcDbLine
 10
259.378667
 20
255.768685
 30
0.0
 11
259.378667
 21
266.683269
 31
0.0
  0
ARC
  5
2FB
330
70
100
AcDbEntity
  8
Visible
100
AcDbCircle
 10
262.378667
 20
255.768685
 30
0.0
 40
3.0
100
AcDbArc
 50
180.0
 51
285.961863
  0
LINE
  5
2FC
330
70
100
AcDbEntity
  8
Visible
100
AcDbLine
 10
282.283419
 20
258.341642
 30
0.0
 11
263.203659
 21
252.88435
 31
0.0
  0
ARC
  5
2FD
330
70
100
AcDbEntity
  8
Visible
100
AcDbCircle
 10
270.96984
 20
281.257723
 30
0.0
 40
3.0
100
AcDbArc
 50
285.961863
 51
90.0
  0
LINE
  5
2FE
330
70
100
AcDbEntity
  8
Visible
100
AcDbLine
 10
262.378667
 20
284.257723
 30
0.0
 11
270.96984
 21
284.257723
 31
0.0
  0
ARC
  5
2FF
330
70
100
AcDbEntity
  8
Visible
100
AcDbCircle
 10
262.378667
 20
281.257723
 30
0.0
 40
3.0
100
AcDbArc
 50
90.0
 51
180.0
  0
LINE
  5
300
330
70
100
AcDbEntity
  8
Visible
100
AcDbLine
 10
259.378667
 20
278.800431
 30
0.0
 11
259.378667
 21
281.257723
 31
0.0
  0
ARC
  5
301
330
70
100
AcDbEntity
  8
Visible
100
AcDbCircle
 10
296.640413
 20
198.18932
 30
0.0
 40
3.0
100
AcDbArc
 50
254.038137
 51
0.0
  0
LINE
  5
302
330
70
100
AcDbEntity
  8
Visible
100
AcDbLine
 10
299.640413
 20
209.103903
 30
0.0
 11
299.640413
 21
198.18932
 31
0.0
  0
ARC
  5
303
330
70
100
AcDbEntity
  8
Visible
100
AcDbCircle
 10
296.640413
 20
209.103903
 30
0.0
 40
3.0
100
AcDbArc
 50
0.0
 51
105.961863
  0
LINE
  5
304
330
70
100
AcDbEntity
  8
Visible
100
AcDbLine
 10
276.73566
 20
206.530946
 30
0.0
 11
295.81542
 21
211.988238
 31
0.0
  0
ARC
  5
305
330
70
100
AcDbEntity
  8
Visible
100
AcDbCircle
 10
277.560653
 20
203.646612
 30
0.0
 40
3.0
100
AcDbArc
 50
105.961863
 51
254.038137
  0
LINE
  5
306
330
70
100
AcDbEntity
  8
Visible
100
AcDbLine
 10
295.81542
 20
195.304985
 30
0.0
 11
276.73566
 21
200.762277
 31
0.0
  0
ARC
  5
307
330
70
100
AcDbEntity
  8
Visible
100
AcDbCircle
 10
296.640413
 20
163.040411
 30
0.0
 40
3.0
100
AcDbArc
 50
0.0
 51
105.961863
  0
LINE
  5
308
330
70
100
AcDbEntity
  8
Visible
100
AcDbLine
 10
287.224247
 20
163.467454
 30
0.0
 11
295.81542
 21
165.924746
 31
0.0
  0
ARC
  5
309
330
70
100
AcDbEntity
  8
Visible
100
AcDbCircle
 10
288.04924
 20
160.583119
 30
0.0
 40
3.0
100
AcDbArc
 50
105.961863
 51
270.0
  0
LINE
  5
30A
330
70
100
AcDbEntity
  8
Visible
100
AcDbLine
 10
296.640413
 20
157.583119
 30
0.0
 11
288.04924
 21
157.583119
 31
0.0
  0
ARC
  5
30B
330
70
100
AcDbEntity
  8
Visible
100
AcDbCircle
 10
296.640413
 20
186.072157
 30
0.0
 40
3.0
100
AcDbArc
 50
0.0
 51
105.961863
  0
LINE
  5
30C
330
70
100
AcDbEntity
  8
Visible
100
AcDbLine
 10
276.73566
 20
183.4992
 30
0.0
 11
295.81542
 21
188.956492
 31
0.0
  0
ARC
  5
30D
330
70
100
AcDbEntity
  8
Visible
100
AcDbCircle
 10
277.560653
 20
180.614865
 30
0.0
 40
3.0
100
AcDbArc
 50
105.961863
 51
254.038137
  0
LINE
  5
30E
330
70
100
AcDbEntity
  8
Visible
100
AcDbLine
 10
295.81542
 20
172.273239
 30
0.0
 11
276.73566
 21
177.730531
 31
0.0
  0
ARC
  5
30F
330
70
100
AcDbEntity
  8
Visible
100
AcDbCircle
 10
262.378667
 20
220.619776
 30
0.0
 40
3.0
100
AcDbArc
 50
74.038137
 51
180.0
  0
LINE
  5
310
330
70
100
AcDbEntity
  8
Visible
100
AcDbLine
 10
259.378667
 20
209.705193
 30
0.0
 11
259.378667
 21
220.619776
 31
0.0
  0
ARC
  5
311
330
70
100
AcDbEntity
  8
Visible
100
AcDbCircle
 10
262.378667
 20
209.705193
 30
0.0
 40
3.0
100
AcDbArc
 50
180.0
 51
285.961863
  0
LINE
  5
312
330
70
100
AcDbEntity
  8
Visible
100
AcDbLine
 10
282.283419
 20
212.27815
 30
0.0
 11
263.203659
 21
206.820858
 31
0.0
  0
ARC
  5
313
330
70
100
AcDbEntity
  8
Visible
100
AcDbCircle
 10
296.640413
 20
244.252812
 30
0.0
 40
3.0
100
AcDbArc
 50
254.038137
 51
0.0
  0
LINE
  5
314
330
70
100
AcDbEntity
  8
Visible
100
AcDbLine
 10
299.640413
 20
255.167396
 30
0.0
 11
299.640413
 21
244.252812
 31
0.0
  0
ARC
  5
315
330
70
100
AcDbEntity
  8
Visible
100
AcDbCircle
 10
296.640413
 20
255.167396
 30
0.0
 40
3.0
100
AcDbArc
 50
0.0
 51
105.961863
  0
LINE
  5
316
330
70
100
AcDbEntity
  8
Visible
100
AcDbLine
 10
276.73566
 20
252.594439
 30
0.0
 11
295.81542
 21
258.051731
 31
0.0
  0
ARC
  5
317
330
70
100
AcDbEntity
  8
Visible
100
AcDbCircle
 10
105.902158
 20
266.683269
 30
0.0
 40
3.0
100
AcDbArc
 50
0.0
 51
105.961863
  0
LINE
  5
318
330
70
100
AcDbEntity
  8
Visible
100
AcDbLine
 10
85.997406
 20
264.110312
 30
0.0
 11
105.077166
 21
269.567604
 31
0.0
  0
ARC
  5
319
330
70
100
AcDbEntity
  8
Visible
100
AcDbCircle
 10
71.640413
 20
198.18932
 30
0.0
 40
3.0
100
AcDbArc
 50
180.0
 51
285.961863
  0
LINE
  5
31A
330
70
100
AcDbEntity
  8
Visible
100
AcDbLine
 10
91.545165
 20
200.762277
 30
0.0
 11
72.465405
 21
195.304985
 31
0.0
  0
ARC
  5
31B
330
70
100
AcDbEntity
  8
Visible
100
AcDbCircle
 10
105.902158
 20
163.641701
 30
0.0
 40
3.0
100
AcDbArc
 50
254.038137
 51
0.0
  0
LINE
  5
31C
330
70
100
AcDbEntity
  8
Visible
100
AcDbLine
 10
108.902158
 20
174.556284
 30
0.0
 11
108.902158
 21
163.641701
 31
0.0
  0
ARC
  5
31D
330
70
100
AcDbEntity
  8
Visible
100
AcDbCircle
 10
105.902158
 20
197.58803
 30
0.0
 40
3.0
100
AcDbArc
 50
0.0
 51
105.961863
  0
LINE
  5
31E
330
70
100
AcDbEntity
  8
Visible
100
AcDbLine
 10
85.997406
 20
195.015073
 30
0.0
 11
105.077166
 21
200.472365
 31
0.0
  0
ARC
  5
31F
330
70
100
AcDbEntity
  8
Visible
100
AcDbCircle
 10
86.822398
 20
192.130739
 30
0.0
 40
3.0
100
AcDbArc
 50
105.961863
 51
254.038137
  0
LINE
  5
320
330
70
100
AcDbEntity
  8
Visible
100
AcDbLine
 10
105.077166
 20
183.789112
 30
0.0
 11
85.997406
 21
189.246404
 31
0.0
  0
ARC
  5
321
330
70
100
AcDbEntity
  8
Visible
100
AcDbCircle
 10
105.902158
 20
186.673447
 30
0.0
 40
3.0
100
AcDbArc
 50
254.038137
 51
0.0
  0
LINE
  5
322
330
70
100
AcDbEntity
  8
Visible
100
AcDbLine
 10
108.902158
 20
197.58803
 30
0.0
 11
108.902158
 21
186.673447
 31
0.0
  0
ARC
  5
323
330
70
100
AcDbEntity
  8
Visible
100
AcDbCircle
 10
105.902158
 20
209.705193
 30
0.0
 40
3.0
100
AcDbArc
 50
254.038137
 51
0.0
  0
LINE
  5
324
330
70
100
AcDbEntity
  8
Visible
100
AcDbLine
 10
108.902158
 20
220.619776
 30
0.0
 11
108.902158
 21
209.705193
 31
0.0
  0
ARC
  5
325
330
70
100
AcDbEntity
  8
Visible
100
AcDbCircle
 10
105.902158
 20
243.651523
 30
0.0
 40
3.0
100
AcDbArc
 50
0.0
 51
105.961863
  0
LINE
  5
326
330
70
100
AcDbEntity
  8
Visible
100
AcDbLine
 10
85.997406
 20
241.078566
 30
0.0
 11
105.077166
 21
246.535857
 31
0.0
  0
ARC
  5
327
330
70
100
AcDbEntity
  8
Visible
100
AcDbCircle
 10
71.640413
 20
163.040411
 30
0.0
 40
3.0
100
AcDbArc
 50
74.038137
 51
180.0
  0
LINE
  5
328
330
70
100
AcDbEntity
  8
Visible
100
AcDbLine
 10
68.640413
 20
160.583119
 30
0.0
 11
68.640413
 21
163.040411
 31
0.0
  0
ARC
  5
329
330
70
100
AcDbEntity
  8
Visible
100
AcDbCircle
 10
71.640413
 20
160.583119
 30
0.0
 40
3.0
100
AcDbArc
 50
180.0
 51
270.0
  0
LINE
  5
32A
330
70
100
AcDbEntity
  8
Visible
100
AcDbLine
 10
80.231586
 20
157.583119
 30
0.0
 11
71.640413
 21
157.583119
 31
0.0
  0
ARC
  5
32B
330
70
100
AcDbEntity
  8
Visible
100
AcDbCircle
 10
80.231586
 20
160.583119
 30
0.0
 40
3.0
100
AcDbArc
 50
270.0
 51
74.038137
  0
LINE
  5
32C
330
70
100
AcDbEntity
  8
Visible
100
AcDbLine
 10
72.465405
 20
165.924746
 30
0.0
 11
81.056578
 21
163.467454
 31
0.0
  0
ARC
  5
32D
330
70
100
AcDbEntity
  8
Visible
100
AcDbCircle
 10
71.640413
 20
221.221066
 30
0.0
 40
3.0
100
AcDbArc
 50
180.0
 51
285.961863
  0
LINE
  5
32E
330
70
100
AcDbEntity
  8
Visible
100
AcDbLine
 10
91.545165
 20
223.794023
 30
0.0
 11
72.465405
 21
218.336731
 31
0.0
  0
ARC
  5
32F
330
70
100
AcDbEntity
  8
Visible
100
AcDbCircle
 10
71.640413
 20
186.072157
 30
0.0
 40
3.0
100
AcDbArc
 50
74.038137
 51
180.0
  0
LINE
  5
330
330
70
100
AcDbEntity
  8
Visible
100
AcDbLine
 10
68.640413
 20
175.157574
 30
0.0
 11
68.640413
 21
186.072157
 31
0.0
  0
ARC
  5
331
330
70
100
AcDbEntity
  8
Visible
100
AcDbCircle
 10
90.720173
 20
203.646612
 30
0.0
 40
3.0
100
AcDbArc
 50
285.961863
 51
74.038137
  0
LINE
  5
332
330
70
100
AcDbEntity
  8
Visible
100
AcDbLine
 10
72.465405
 20
211.988238
 30
0.0
 11
91.545165
 21
206.530946
 31
0.0
  0
ARC
  5
333
330
70
100
AcDbEntity
  8
Visible
100
AcDbCircle
 10
71.640413
 20
209.103903
 30
0.0
 40
3.0
100
AcDbArc
 50
74.038137
 51
180.0
  0
LINE
  5
334
330
70
100
AcDbEntity
  8
Visible
100
AcDbLine
 10
68.640413
 20
198.18932
 30
0.0
 11
68.640413
 21
209.103903
 31
0.0
  0
ARC
  5
335
330
70
100
AcDbEntity
  8
Visible
100
AcDbCircle
 10
90.720173
 20
226.678358
 30
0.0
 40
3.0
100
AcDbArc
 50
285.961863
 51
74.038137
  0
LINE
  5
336
330
70
100
AcDbEntity
  8
Visible
100
AcDbLine
 10
72.465405
 20
235.019984
 30
0.0
 11
91.545165
 21
229.562693
 31
0.0
  0
ARC
  5
337
330
70
100
AcDbEntity
  8
Visible
100
AcDbCircle
 10
71.640413
 20
232.13565
 30
0.0
 40
3.0
100
AcDbArc
 50
74.038137
 51
180.0
  0
LINE
  5
338
330
70
100
AcDbEntity
  8
Visible
100
AcDbLine
 10
68.640413
 20
221.221066
 30
0.0
 11
68.640413
 21
232.13565
 31
0.0
  0
ARC
  5
339
330
70
100
AcDbEntity
  8
Visible
100
AcDbCircle
 10
71.640413
 20
175.157574
 30
0.0
 40
3.0
100
AcDbArc
 50
180.0
 51
285.961863
  0
LINE
  5
33A
330
70
100
AcDbEntity
  8
Visible
100
AcDbLine
 10
91.545165
 20
177.730531
 30
0.0
 11
72.465405
 21
172.273239
 31
0.0
  0
ARC
  5
33B
330
70
100
AcDbEntity
  8
Visible
100
AcDbCircle
 10
90.720173
 20
180.614865
 30
0.0
 40
3.0
100
AcDbArc
 50
285.961863
 51
74.038137
  0
LINE
  5
33C
330
70
100
AcDbEntity
  8
Visible
100
AcDbLine
 10
72.465405
 20
188.956492
 30
0.0
 11
91.545165
 21
183.4992
 31
0.0
  0
ARC
  5
33D
330
70
100
AcDbEntity
  8
Visible
100
AcDbCircle
 10
71.640413
 20
278.199142
 30
0.0
 40
3.0
100
AcDbArc
 50
74.038137
 51
180.0
  0
LINE
  5
33E
330
70
100
AcDbEntity
  8
Visible
100
AcDbLine
 10
68.640413
 20
267.284558
 30
0.0
 11
68.640413
 21
278.199142
 31
0.0
  0
ARC
  5
33F
330
70
100
AcDbEntity
  8
Visible
100
AcDbCircle
 10
86.822398
 20
238.194231
 30
0.0
 40
3.0
100
AcDbArc
 50
105.961863
 51
254.038137
  0
LINE
  5
340
330
70
100
AcDbEntity
  8
Visible
100
AcDbLine
 10
105.077166
 20
229.852604
 30
0.0
 11
85.997406
 21
235.309896
 31
0.0
  0
ARC
  5
341
330
70
100
AcDbEntity
  8
Visible
100
AcDbCircle
 10
105.902158
 20
232.736939
 30
0.0
 40
3.0
100
AcDbArc
 50
254.038137
 51
0.0
  0
LINE
  5
342
330
70
100
AcDbEntity
  8
Visible
100
AcDbLine
 10
108.902158
 20
243.651523
 30
0.0
 11
108.902158
 21
232.736939
 31
0.0
  0
ARC
  5
343
330
70
100
AcDbEntity
  8
Visible
100
AcDbCircle
 10
97.310985
 20
281.257723
 30
0.0
 40
3.0
100
AcDbArc
 50
90.0
 51
254.038137
  0
LINE
  5
344
330
70
100
AcDbEntity
  8
Visible
100
AcDbLine
 10
105.077166
 20
275.916097
 30
0.0
 11
96.485993
 21
278.373388
 31
0.0
  0
ARC
  5
345
330
70
100
AcDbEntity
  8
Visible
100
AcDbCircle
 10
105.902158
 20
174.556284
 30
0.0
 40
3.0
100
AcDbArc
 50
0.0
 51
105.961863
  0
LINE
  5
346
330
70
100
AcDbEntity
  8
Visible
100
AcDbLine
 10
85.997406
 20
171.983327
 30
0.0
 11
105.077166
 21
177.440619
 31
0.0
  0
ARC
  5
347
330
70
100
AcDbEntity
  8
Visible
100
AcDbCircle
 10
86.822398
 20
169.098992
 30
0.0
 40
3.0
100
AcDbArc
 50
105.961863
 51
254.038137
  0
LINE
  5
348
330
70
100
AcDbEntity
  8
Visible
100
AcDbLine
 10
105.077166
 20
160.757366
 30
0.0
 11
85.997406
 21
166.214658
 31
0.0
  0
ARC
  5
349
330
70
100
AcDbEntity
  8
Visible
100
AcDbCircle
 10
105.902158
 20
278.800431
 30
0.0
 40
3.0
100
AcDbArc
 50
254.038137
 51
0.0
  0
LINE
  5
34A
330
70
100
AcDbEntity
  8
Visible
100
AcDbLine
 10
108.902158
 20
281.257723
 30
0.0
 11
108.902158
 21
278.800431
 31
0.0
  0
ARC
  5
34B
330
70
100
AcDbEntity
  8
Visible
100
AcDbCircle
 10
105.902158
 20
281.257723
 30
0.0
 40
3.0
100
AcDbArc
 50
0.0
 51
90.0
  0
LINE
  5
34C
330
70
100
AcDbEntity
  8
Visible
100
AcDbLine
 10
97.310985
 20
284.257723
 30
0.0
 11
105.902158
 21
284.257723
 31
0.0
  0
ARC
  5
34D
330
70
100
AcDbEntity
  8
Visible
100
AcDbCircle
 10
71.640413
 20
267.284558
 30
0.0
 40
3.0
100
AcDbArc
 50
180.0
 51
285.961863
  0
LINE
  5
34E
330
70
100
AcDbEntity
  8
Visible
100
AcDbLine
 10
91.545165
 20
269.857515
 30
0.0
 11
72.465405
 21
264.400223
 31
0.0
  0
ARC
  5
34F
330
70
100
AcDbEntity
  8
Visible
100
AcDbCircle
 10
90.720173
 20
272.74185
 30
0.0
 40
3.0
100
AcDbArc
 50
285.961863
 51
74.038137
  0
LINE
  5
350
330
70
100
AcDbEntity
  8
Visible
100
AcDbLine
 10
72.465405
 20
281.083477
 30
0.0
 11
91.545165
 21
275.626185
 31
0.0
  0
ARC
  5
351
330
70
100
AcDbEntity
  8
Visible
100
AcDbCircle
 10
71.640413
 20
244.252812
 30
0.0
 40
3.0
100
AcDbArc
 50
180.0
 51
285.961863
  0
LINE
  5
352
330
70
100
AcDbEntity
  8
Visible
100
AcDbLine
 10
91.545165
 20
246.825769
 30
0.0
 11
72.465405
 21
241.368477
 31
0.0
  0
ARC
  5
353
330
70
100
AcDbEntity
  8
Visible
100
AcDbCircle
 10
90.720173
 20
249.710104
 30
0.0
 40
3.0
100
AcDbArc
 50
285.961863
 51
74.038137
  0
LINE
  5
354
330
70
100
AcDbEntity
  8
Visible
100
AcDbLine
 10
72.465405
 20
258.051731
 30
0.0
 11
91.545165
 21
252.594439
 31
0.0
  0
ARC
  5
355
330
70
100
AcDbEntity
  8
Visible
100
AcDbCircle
 10
71.640413
 20
255.167396
 30
0.0
 40
3.0
100
AcDbArc
 50
74.038137
 51
180.0
  0
LINE
  5
356
330
70
100
AcDbEntity
  8
Visible
100
AcDbLine
 10
68.640413
 20
244.252812
 30
0.0
 11
68.640413
 21
255.167396
 31
0.0
  0
ARC
  5
357
330
70
100
AcDbEntity
  8
Visible
100
AcDbCircle
 10
86.822398
 20
261.225977
 30
0.0
 40
3.0
100
AcDbArc
 50
105.961863
 51
254.038137
  0
LINE
  5
358
330
70
100
AcDbEntity
  8
Visible
100
AcDbLine
 10
105.077166
 20
252.88435
 30
0.0
 11
85.997406
 21
258.341642
 31
0.0
  0
ARC
  5
359
330
70
100
AcDbEntity
  8
Visible
100
AcDbCircle
 10
105.902158
 20
255.768685
 30
0.0
 40
3.0
100
AcDbArc
 50
254.038137
 51
0.0
  0
LINE
  5
35A
330
70
100
AcDbEntity
  8
Visible
100
AcDbLine
 10
108.902158
 20
266.683269
 30
0.0
 11
108.902158
 21
255.768685
 31
0.0
  0
ARC
  5
35B
330
70
100
AcDbEntity
  8
Visible
100
AcDbCircle
 10
105.902158
 20
220.619776
 30
0.0
 40
3.0
100
AcDbArc
 50
0.0
 51
105.961863
  0
LINE
  5
35C
330
70
100
AcDbEntity
  8
Visible
100
AcDbLine
 10
85.997406
 20
218.04682
 30
0.0
 11
105.077166
 21
223.504111
 31
0.0
  0
ARC
  5
35D
330
70
100
AcDbEntity
  8
Visible
100
AcDbCircle
 10
86.822398
 20
215.162485
 30
0.0
 40
3.0
100
AcDbArc
 50
105.961863
 51
254.038137
  0
LINE
  5
35E
330
70
100
AcDbEntity
  8
Visible
100
AcDbLine
 10
105.077166
 20
206.820858
 30
0.0
 11
85.997406
 21
212.27815
 31
0.0
  0
ARC
  5
35F
330
70
100
AcDbEntity
  8
Visible
100
AcDbCircle
 10
118.140413
 20
341.189876
 30
0.0
 40
4.0
100
AcDbArc
 50
10.636659
 51
169.363341
  0
LINE
  5
360
330
70
100
AcDbEntity
  8
Visible
100
AcDbLine
 10
105.582752
 20
295.996044
 30
0.0
 11
114.209143
 21
341.928197
 31
0.0
  0
ARC
  5
361
330
70
100
AcDbEntity
  8
Visible
100
AcDbCircle
 10
101.640413
 20
329.181613
 30
0.0
 40
4.0
100
AcDbArc
 50
190.636659
 51
349.363341
  0
LINE
  5
362
330
70
100
AcDbEntity
  8
Visible
100
AcDbLine
 10
114.198073
 20
374.375445
 30
0.0
 11
105.571682
 21
328.443292
 31
0.0
  0
ARC
  5
363
330
70
100
AcDbEntity
  8
Visible
100
AcDbCircle
 10
109.514022
 20
295.257723
 30
0.0
 40
3.999999999999999
100
AcDbArc
 50
169.363341
 51
270.0
  0
LINE
  5
364
330
70
100
AcDbEntity
  8
Visible
100
AcDbLine
 10
126.766803
 20
291.257723
 30
0.0
 11
109.514022
 21
291.257723
 31
0.0
  0
ARC
  5
365
330
70
100
AcDbEntity
  8
Visible
100
AcDbCircle
 10
126.766803
 20
295.257723
 30
0.0
 40
4.0
100
AcDbArc
 50
270.0
 51
10.636659
  0
LINE
  5
366
330
70
100
AcDbEntity
  8
Visible
100
AcDbLine
 10
122.071682
 20
341.928197
 30
0.0
 11
130.698073
 21
295.996044
 31
0.0
  0
ARC
  5
367
330
70
100
AcDbEntity
  8
Visible
100
AcDbCircle
 10
283.140413
 20
341.189876
 30
0.0
 40
4.0
100
AcDbArc
 50
10.636659
 51
169.363341
  0
LINE
  5
368
330
70
100
AcDbEntity
  8
Visible
100
AcDbLine
 10
270.582752
 20
295.996044
 30
0.0
 11
279.209143
 21
341.928197
 31
0.0
  0
ARC
  5
369
330
70
100
AcDbEntity
  8
Visible
100
AcDbCircle
 10
159.014022
 20
375.113766
 30
0.0
 40
3.999999999999999
100
AcDbArc
 50
90.0
 51
190.636659
  0
LINE
  5
36A
330
70
100
AcDbEntity
  8
Visible
100
AcDbLine
 10
163.709143
 20
328.443292
 30
0.0
 11
155.082752
 21
374.375445
 31
0.0
  0
ARC
  5
36B
330
70
100
AcDbEntity
  8
Visible
100
AcDbCircle
 10
266.640413
 20
329.181613
 30
0.0
 40
4.0
100
AcDbArc
 50
190.636659
 51
349.363341
  0
LINE
  5
36C
330
70
100
AcDbEntity
  8
Visible
100
AcDbLine
 10
279.198073
 20
374.375445
 30
0.0
 11
270.571682
 21
328.443292
 31
0.0
  0
ARC
  5
36D
330
70
100
AcDbEntity
  8
Visible
100
AcDbCircle
 10
209.266803
 20
375.113766
 30
0.0
 40
4.0
100
AcDbArc
 50
349.363341
 51
90.0
  0
LINE
  5
36E
330
70
100
AcDbEntity
  8
Visible
100
AcDbLine
 10
192.014022
 20
379.113766
 30
0.0
 11
209.266803
 21
379.113766
 31
0.0
  0
ARC
  5
36F
330
70
100
AcDbEntity
  8
Visible
100
AcDbCircle
 10
274.514022
 20
295.257723
 30
0.0
 40
4.0
100
AcDbArc
 50
169.363341
 51
270.0
  0
LINE
  5
370
330
70
100
AcDbEntity
  8
Visible
100
AcDbLine
 10
291.766803
 20
291.257723
 30
0.0
 11
274.514022
 21
291.257723
 31
0.0
  0
ARC
  5
371
330
70
100
AcDbEntity
  8
Visible
100
AcDbCircle
 10
291.766803
 20
295.257723
 30
0.0
 40
4.0
100
AcDbArc
 50
270.0
 51
10.636659
  0
LINE
  5
372
330
70
100
AcDbEntity
  8
Visible
100
AcDbLine
 10
287.071682
 20
341.928197
 30
0.0
 11
295.698073
 21
295.996044
 31
0.0
  0
ARC
  5
373
330
70
100
AcDbEntity
  8
Visible
100
AcDbCircle
 10
192.014022
 20
375.113766
 30
0.0
 40
3.999999999999999
100
AcDbArc
 50
90.0
 51
190.636659
  0
LINE
  5
374
330
70
100
AcDbEntity
  8
Visible
100
AcDbLine
 10
196.709143
 20
328.443292
 30
0.0
 11
188.082752
 21
374.375445
 31
0.0
  0
ARC
  5
375
330
70
100
AcDbEntity
  8
Visible
100
AcDbCircle
 10
200.640413
 20
329.181613
 30
0.0
 40
4.0
100
AcDbArc
 50
190.636659
 51
349.363341
  0
LINE
  5
376
330
70
100
AcDbEntity
  8
Visible
100
AcDbLine
 10
213.198073
 20
374.375445
 30
0.0
 11
204.571682
 21
328.443292
 31
0.0
  0
ARC
  5
377
330
70
100
AcDbEntity
  8
Visible
100
AcDbCircle
 10
72.640413
 20
350.480047
 30
0.0
 40
4.0
100
AcDbArc
 50
180.0
 51
349.363341
  0
LINE
  5
378
330
70
100
AcDbEntity
  8
Visible
100
AcDbLine
 10
81.198073
 20
374.375445
 30
0.0
 11
76.571682
 21
349.741727
 31
0.0
  0
ARC
  5
379
330
70
100
AcDbEntity
  8
Visible
100
AcDbCircle
 10
242.266803
 20
375.113766
 30
0.0
 40
4.0
100
AcDbArc
 50
349.363341
 51
90.0
  0
LINE
  5
37A
330
70
100
AcDbEntity
  8
Visible
100
AcDbLine
 10
225.014022
 20
379.113766
 30
0.0
 11
242.266803
 21
379.113766
 31
0.0
  0
ARC
  5
37B
330
70
100
AcDbEntity
  8
Visible
100
AcDbCircle
 10
225.014022
 20
375.113766
 30
0.0
 40
3.999999999999999
100
AcDbArc
 50
90.0
 51
190.636659
  0
LINE
  5
37C
330
70
100
AcDbEntity
  8
Visible
100
AcDbLine
 10
229.709143
 20
328.443292
 30
0.0
 11
221.082752
 21
374.375445
 31
0.0
  0
ARC
  5
37D
330
70
100
AcDbEntity
  8
Visible
100
AcDbCircle
 10
233.640413
 20
329.181613
 30
0.0
 40
4.0
100
AcDbArc
 50
190.636659
 51
349.363341
  0
LINE
  5
37E
330
70
100
AcDbEntity
  8
Visible
100
AcDbLine
 10
246.198073
 20
374.375445
 30
0.0
 11
237.571682
 21
328.443292
 31
0.0
  0
ARC
  5
37F
330
70
100
AcDbEntity
  8
Visible
100
AcDbCircle
 10
93.766803
 20
295.257723
 30
0.0
 40
4.0
100
AcDbArc
 50
270.0
 51
10.636659
  0
LINE
  5
380
330
70
100
AcDbEntity
  8
Visible
100
AcDbLine
 10
89.071682
 20
341.928197
 30
0.0
 11
97.698073
 21
295.996044
 31
0.0
  0
ARC
  5
381
330
70
100
AcDbEntity
  8
Visible
100
AcDbCircle
 10
134.640413
 20
329.181613
 30
0.0
 40
4.0
100
AcDbArc
 50
190.636659
 51
349.363341
  0
LINE
  5
382
330
70
100
AcDbEntity
  8
Visible
100
AcDbLine
 10
147.198073
 20
374.375445
 30
0.0
 11
138.571682
 21
328.443292
 31
0.0
  0
ARC
  5
383
330
70
100
AcDbEntity
  8
Visible
100
AcDbCircle
 10
143.266803
 20
375.113766
 30
0.0
 40
4.0
100
AcDbArc
 50
349.363341
 51
90.0
  0
LINE
  5
384
330
70
100
AcDbEntity
  8
Visible
100
AcDbLine
 10
126.014022
 20
379.113766
 30
0.0
 11
143.266803
 21
379.113766
 31
0.0
  0
ARC
  5
385
330
70
100
AcDbEntity
  8
Visible
100
AcDbCircle
 10
126.014022
 20
375.113766
 30
0.0
 40
3.999999999999999
100
AcDbArc
 50
90.0
 51
190.636659
  0
LINE
  5
386
330
70
100
AcDbEntity
  8
Visible
100
AcDbLine
 10
130.709143
 20
328.443292
 30
0.0
 11
122.082752
 21
374.375445
 31
0.0
  0
ARC
  5
387
330
70
100
AcDbEntity
  8
Visible
100
AcDbCircle
 10
175.514022
 20
295.257723
 30
0.0
 40
4.0
100
AcDbArc
 50
169.363341
 51
270.0
  0
LINE
  5
388
330
70
100
AcDbEntity
  8
Visible
100
AcDbLine
 10
192.766803
 20
291.257723
 30
0.0
 11
175.514022
 21
291.257723
 31
0.0
  0
ARC
  5
389
330
70
100
AcDbEntity
  8
Visible
100
AcDbCircle
 10
159.766803
 20
295.257723
 30
0.0
 40
4.0
100
AcDbArc
 50
270.0
 51
10.636659
  0
LINE
  5
38A
330
70
100
AcDbEntity
  8
Visible
100
AcDbLine
 10
155.071682
 20
341.928197
 30
0.0
 11
163.698073
 21
295.996044
 31
0.0
  0
ARC
  5
38B
330
70
100
AcDbEntity
  8
Visible
100
AcDbCircle
 10
217.140413
 20
341.189876
 30
0.0
 40
4.0
100
AcDbArc
 50
10.636659
 51
169.363341
  0
LINE
  5
38C
330
70
100
AcDbEntity
  8
Visible
100
AcDbLine
 10
204.582752
 20
295.996044
 30
0.0
 11
213.209143
 21
341.928197
 31
0.0
  0
ARC
  5
38D
330
70
100
AcDbEntity
  8
Visible
100
AcDbCircle
 10
151.140413
 20
341.189876
 30
0.0
 40
4.0
100
AcDbArc
 50
10.636659
 51
169.363341
  0
LINE
  5
38E
330
70
100
AcDbEntity
  8
Visible
100
AcDbLine
 10
138.582752
 20
295.996044
 30
0.0
 11
147.209143
 21
341.928197
 31
0.0
  0
ARC
  5
38F
330
70
100
AcDbEntity
  8
Visible
100
AcDbCircle
 10
142.514022
 20
295.257723
 30
0.0
 40
4.0
100
AcDbArc
 50
169.363341
 51
270.0
  0
LINE
  5
390
330
70
100
AcDbEntity
  8
Visible
100
AcDbLine
 10
159.766803
 20
291.257723
 30
0.0
 11
142.514022
 21
291.257723
 31
0.0
  0
ARC
  5
391
330
70
100
AcDbEntity
  8
Visible
100
AcDbCircle
 10
208.514022
 20
295.257723
 30
0.0
 40
4.0
100
AcDbArc
 50
169.363341
 51
270.0
  0
LINE
  5
392
330
70
100
AcDbEntity
  8
Visible
100
AcDbLine
 10
225.766803
 20
291.257723
 30
0.0
 11
208.514022
 21
291.257723
 31
0.0
  0
ARC
  5
393
330
70
100
AcDbEntity
  8
Visible
100
AcDbCircle
 10
225.766803
 20
295.257723
 30
0.0
 40
4.0
100
AcDbArc
 50
270.0
 51
10.636659
  0
LINE
  5
394
330
70
100
AcDbEntity
  8
Visible
100
AcDbLine
 10
221.071682
 20
341.928197
 30
0.0
 11
229.698073
 21
295.996044
 31
0.0
  0
ARC
  5
395
330
70
100
AcDbEntity
  8
Visible
100
AcDbCircle
 10
85.140413
 20
341.189876
 30
0.0
 40
4.0
100
AcDbArc
 50
10.636659
 51
169.363341
  0
LINE
  5
396
330
70
100
AcDbEntity
  8
Visible
100
AcDbLine
 10
72.582752
 20
295.996044
 30
0.0
 11
81.209143
 21
341.928197
 31
0.0
  0
ARC
  5
397
330
70
100
AcDbEntity
  8
Visible
100
AcDbCircle
 10
76.514022
 20
295.257723
 30
0.0
 40
4.0
100
AcDbArc
 50
169.363341
 51
270.0
  0
LINE
  5
398
330
70
100
AcDbEntity
  8
Visible
100
AcDbLine
 10
93.766803
 20
291.257723
 30
0.0
 11
76.514022
 21
291.257723
 31
0.0
  0
ARC
  5
399
330
70
100
AcDbEntity
  8
Visible
100
AcDbCircle
 10
275.266803
 20
375.113766
 30
0.0
 40
4.0
100
AcDbArc
 50
349.363341
 51
90.0
  0
LINE
  5
39A
330
70
100
AcDbEntity
  8
Visible
100
AcDbLine
 10
258.014022
 20
379.113766
 30
0.0
 11
275.266803
 21
379.113766
 31
0.0
  0
ARC
  5
39B
330
70
100
AcDbEntity
  8
Visible
100
AcDbCircle
 10
258.014022
 20
375.113766
 30
0.0
 40
3.999999999999999
100
AcDbArc
 50
90.0
 51
190.636659
  0
LINE
  5
39C
330
70
100
AcDbEntity
  8
Visible
100
AcDbLine
 10
262.709143
 20
328.443292
 30
0.0
 11
254.082752
 21
374.375445
 31
0.0
  0
ARC
  5
39D
330
70
100
AcDbEntity
  8
Visible
100
AcDbCircle
 10
110.266803
 20
375.113766
 30
0.0
 40
4.0
100
AcDbArc
 50
349.363341
 51
90.0
  0
LINE
  5
39E
330
70
100
AcDbEntity
  8
Visible
100
AcDbLine
 10
93.014022
 20
379.113766
 30
0.0
 11
110.266803
 21
379.113766
 31
0.0
  0
ARC
  5
39F
330
70
100
AcDbEntity
  8
Visible
100
AcDbCircle
 10
93.014022
 20
375.113766
 30
0.0
 40
4.0
100
AcDbArc
 50
90.0
 51
190.636659
  0
LINE
  5
3A0
330
70
100
AcDbEntity
  8
Visible
100
AcDbLine
 10
97.709143
 20
328.443292
 30
0.0
 11
89.082752
 21
374.375445
 31
0.0
  0
ARC
  5
3A1
330
70
100
AcDbEntity
  8
Visible
100
AcDbCircle
 10
241.514022
 20
295.257723
 30
0.0
 40
4.0
100
AcDbArc
 50
169.363341
 51
270.0
  0
LINE
  5
3A2
330
70
100
AcDbEntity
  8
Visible
100
AcDbLine
 10
258.766803
 20
291.257723
 30
0.0
 11
241.514022
 21
291.257723
 31
0.0
  0
ARC
  5
3A3
330
70
100
AcDbEntity
  8
Visible
100
AcDbCircle
 10
77.266803
 20
375.113766
 30
0.0
 40
4.0
100
AcDbArc
 50
349.363341
 51
90.0
  0
LINE
  5
3A4
330
70
100
AcDbEntity
  8
Visible
100
AcDbLine
 10
72.640413
 20
379.113766
 30
0.0
 11
77.266803
 21
379.113766
 31
0.0
  0
ARC
  5
3A5
330
70
100
AcDbEntity
  8
Visible
100
AcDbCircle
 10
72.640413
 20
375.113766
 30
0.0
 40
3.999999999999999
100
AcDbArc
 50
90.0
 51
180.0
  0
LINE
  5
3A6
330
70
100
AcDbEntity
  8
Visible
100
AcDbLine
 10
68.640413
 20
350.480047
 30
0.0
 11
68.640413
 21
375.113766
 31
0.0
  0
ARC
  5
3A7
330
70
100
AcDbEntity
  8
Visible
100
AcDbCircle
 10
295.640413
 20
375.113766
 30
0.0
 40
4.0
100
AcDbArc
 50
0.0
 51
90.0
  0
LINE
  5
3A8
330
70
100
AcDbEntity
  8
Visible
100
AcDbLine
 10
291.014022
 20
379.113766
 30
0.0
 11
295.640413
 21
379.113766
 31
0.0
  0
ARC
  5
3A9
330
70
100
AcDbEntity
  8
Visible
100
AcDbCircle
 10
192.766803
 20
295.257723
 30
0.0
 40
4.0
100
AcDbArc
 50
270.0
 51
10.636659
  0
LINE
  5
3AA
330
70
100
AcDbEntity
  8
Visible
100
AcDbLine
 10
188.071682
 20
341.928197
 30
0.0
 11
196.698073
 21
295.996044
 31
0.0
  0
ARC
  5
3AB
330
70
100
AcDbEntity
  8
Visible
100
AcDbCircle
 10
184.140413
 20
341.189876
 30
0.0
 40
4.0
100
AcDbArc
 50
10.636659
 51
169.363341
  0
LINE
  5
3AC
330
70
100
AcDbEntity
  8
Visible
100
AcDbLine
 10
171.582752
 20
295.996044
 30
0.0
 11
180.209143
 21
341.928197
 31
0.0
  0
ARC
  5
3AD
330
70
100
AcDbEntity
  8
Visible
100
AcDbCircle
 10
167.640413
 20
329.181613
 30
0.0
 40
4.0
100
AcDbArc
 50
190.636659
 51
349.363341
  0
LINE
  5
3AE
330
70
100
AcDbEntity
  8
Visible
100
AcDbLine
 10
180.198073
 20
374.375445
 30
0.0
 11
171.571682
 21
328.443292
 31
0.0
  0
ARC
  5
3AF
330
70
100
AcDbEntity
  8
Visible
100
AcDbCircle
 10
176.266803
 20
375.113766
 30
0.0
 40
4.0
100
AcDbArc
 50
349.363341
 51
90.0
  0
LINE
  5
3B0
330
70
100
AcDbEntity
  8
Visible
100
AcDbLine
 10
159.014022
 20
379.113766
 30
0.0
 11
176.266803
 21
379.113766
 31
0.0
  0
ARC
  5
3B1
330
70
100
AcDbEntity
  8
Visible
100
AcDbCircle
 10
291.014022
 20
375.113766
 30
0.0
 40
3.999999999999999
100
AcDbArc
 50
90.0
 51
190.636659
  0
LINE
  5
3B2
330
70
100
AcDbEntity
  8
Visible
100
AcDbLine
 10
291.709143
 20
349.741727
 30
0.0
 11
287.082752
 21
374.375445
 31
0.0
  0
ARC
  5
3B3
330
70
100
AcDbEntity
  8
Visible
100
AcDbCircle
 10
295.640413
 20
350.480047
 30
0.0
 40
4.0
100
AcDbArc
 50
190.636659
 51
0.0
  0
LINE
  5
3B4
330
70
100
AcDbEntity
  8
Visible
100
AcDbLine
 10
299.640413
 20
375.113766
 30
0.0
 11
299.640413
 21
350.480047
 31
0.0
  0
ARC
  5
3B5
330
70
100
AcDbEntity
  8
Visible
100
AcDbCircle
 10
258.766803
 20
295.257723
 30
0.0
 40
4.0
100
AcDbArc
 50
270.0
 51
10.636659
  0
LINE
  5
3B6
330
70
100
AcDbEntity
  8
Visible
100
AcDbLine
 10
254.071682
 20
341.928197
 30
0.0
 11
262.698073
 21
295.996044
 31
0.0
  0
ARC
  5
3B7
330
70
100
AcDbEntity
  8
Visible
100
AcDbCircle
 10
250.140413
 20
341.189876
 30
0.0
 40
4.0
100
AcDbArc
 50
10.636659
 51
169.363341
  0
LINE
  5
3B8
330
70
100
AcDbEntity
  8
Visible
100
AcDbLine
 10
237.582752
 20
295.996044
 30
0.0
 11
246.209143
 21
341.928197
 31
0.0
  0
CIRCLE
  5
3B9
330
70
100
AcDbEntity
  8
Visible
100
AcDbCircle
 10
-114.902158
 20
285.257723
 30
0.0
 40
1.550000000000002
210
0.0
220
0.0
230
-1.0
  0
CIRCLE
  5
3BA
330
70
100
AcDbEntity
  8
Visible
100
AcDbCircle
 10
-253.378667
 20
285.257723
 30
0.0
 40
1.550000000000011
210
0.0
220
0.0
230
-1.0
  0
CIRCLE
  5
3BB
330
70
100
AcDbEntity
  8
Visible
100
AcDbCircle
 10
-114.902158
 20
173.583119
 30
0.0
 40
1.549999999999998
210
0.0
220
0.0
230
-1.0
  0
CIRCLE
  5
3BC
330
70
100
AcDbEntity
  8
Visible
100
AcDbCircle
 10
-253.378667
 20
173.583119
 30
0.0
 40
1.550000000000011
210
0.0
220
0.0
230
-1.0
  0
ARC
  5
3BD
330
70
100
AcDbEntity
  8
Visible
100
AcDbCircle
 10
-240.690413
 20
180.870421
 30
0.0
 40
4.287301923729387
210
0.0
220
0.0
230
-1.0
100
AcDbArc
 50
180.0
 51
270.0
  0
LINE
  5
3BE
330
70
100
AcDbEntity
  8
Visible
100
AcDbLine
 10
244.977715
 20
277.970421
 30
0.0
 11
244.977715
 21
180.870421
 31
0.0
  0
ARC
  5
3BF
330
70
100
AcDbEntity
  8
Visible
100
AcDbCircle
 10
-240.690413
 20
277.970421
 30
0.0
 40
4.287301923729369
210
0.0
220
0.0
230
-1.0
100
AcDbArc
 50
90.0
 51
180.0
  0
LINE
  5
3C0
330
70
100
AcDbEntity
  8
Visible
100
AcDbLine
 10
127.590413
 20
282.257723
 30
0.0
 11
240.690413
 21
282.257723
 31
0.0
  0
ARC
  5
3C1
330
70
100
AcDbEntity
  8
Visible
100
AcDbCircle
 10
-127.590413
 20
277.970421
 30
0.0
 40
4.287301923729374
210
0.0
220
0.0
230
-1.0
100
AcDbArc
 50
0.0
 51
90.0
  0
LINE
  5
3C2
330
70
100
AcDbEntity
  8
Visible
100
AcDbLine
 10
123.303111
 20
180.870421
 30
0.0
 11
123.303111
 21
277.970421
 31
0.0
  0
ARC
  5
3C3
330
70
100
AcDbEntity
  8
Visible
100
AcDbCircle
 10
-127.590413
 20
180.870421
 30
0.0
 40
4.287301923729378
210
0.0
220
0.0
230
-1.0
100
AcDbArc
 50
270.0
 51
0.0
  0
LINE
  5
3C4
330
70
100
AcDbEntity
  8
Visible
100
AcDbLine
 10
240.690413
 20
176.583119
 30
0.0
 11
127.590413
 21
176.583119
 31
0.0
  0
ARC
  5
3C5
330
70
100
AcDbEntity
  8
Visible
100
AcDbCircle
 10
-202.044487
 20
140.583119
 30
0.0
 40
2.0
210
0.0
220
0.0
230
-1.0
100
AcDbArc
 50
270.0
 51
0.0
  0
LINE
  5
3C6
330
70
100
AcDbEntity
  8
Visible
100
AcDbLine
 10
200.044487
 20
144.583119
 30
0.0
 11
200.044487
 21
140.583119
 31
0.0
  0
ARC
  5
3C7
330
70
100
AcDbEntity
  8
Visible
100
AcDbCircle
 10
198.044487
 20
144.583119
 30
0.0
 40
2.0
100
AcDbArc
 50
0.0
 51
90.0
  0
ARC
  5
3C8
330
70
100
AcDbEntity
  8
Visible
100
AcDbCircle
 10
-160.044494
 20
140.583119
 30
0.0
 40
2.0
210
0.0
220
0.0
230
-1.0
100
AcDbArc
 50
180.0
 51
270.0
  0
LINE
  5
3C9
330
70
100
AcDbEntity
  8
Visible
100
AcDbLine
 10
202.044487
 20
138.583119
 30
0.0
 11
311.640413
 21
138.583119
 31
0.0
  0
LINE
  5
3CA
330
70
100
AcDbEntity
  8
Visible
100
AcDbLine
 10
311.640413
 20
138.583119
 30
0.0
 11
311.640413
 21
168.348443
 31
0.0
  0
ARC
  5
3CB
330
70
100
AcDbEntity
  8
Visible
100
AcDbCircle
 10
-311.640413
 20
169.348443
 30
0.0
 40
1.000000000000014
210
0.0
220
0.0
230
-1.0
100
AcDbArc
 50
270.0
 51
180.0
  0
LINE
  5
3CC
330
70
100
AcDbEntity
  8
Visible
100
AcDbLine
 10
312.640413
 20
169.348443
 30
0.0
 11
314.640413
 21
169.348443
 31
0.0
  0
LINE
  5
3CD
330
70
100
AcDbEntity
  8
Visible
100
AcDbLine
 10
314.640413
 20
169.348443
 30
0.0
 11
314.640413
 21
177.348443
 31
0.0
  0
LINE
  5
3CE
330
70
100
AcDbEntity
  8
Visible
100
AcDbLine
 10
314.640413
 20
177.348443
 30
0.0
 11
312.640413
 21
177.348443
 31
0.0
  0
ARC
  5
3CF
330
70
100
AcDbEntity
  8
Visible
100
AcDbCircle
 10
-311.640413
 20
177.348443
 30
0.0
 40
1.000000000000014
210
0.0
220
0.0
230
-1.0
100
AcDbArc
 50
180.0
 51
90.0
  0
LINE
  5
3D0
330
70
100
AcDbEntity
  8
Visible
100
AcDbLine
 10
311.640413
 20
178.348443
 30
0.0
 11
311.640413
 21
184.348443
 31
0.0
  0
ARC
  5
3D1
330
70
100
AcDbEntity
  8
Visible
100
AcDbCircle
 10
-311.640413
 20
185.348443
 30
0.0
 40
1.000000000000014
210
0.0
220
0.0
230
-1.0
100
AcDbArc
 50
270.0
 51
180.0
  0
LINE
  5
3D2
330
70
100
AcDbEntity
  8
Visible
100
AcDbLine
 10
312.640413
 20
185.348443
 30
0.0
 11
314.640413
 21
185.348443
 31
0.0
  0
LINE
  5
3D3
330
70
100
AcDbEntity
  8
Visible
100
AcDbLine
 10
314.640413
 20
185.348443
 30
0.0
 11
314.640413
 21
193.348443
 31
0.0
  0
LINE
  5
3D4
330
70
100
AcDbEntity
  8
Visible
100
AcDbLine
 10
314.640413
 20
193.348443
 30
0.0
 11
312.640413
 21
193.348443
 31
0.0
  0
ARC
  5
3D5
330
70
100
AcDbEntity
  8
Visible
100
AcDbCircle
 10
-311.640413
 20
193.348443
 30
0.0
 40
1.000000000000014
210
0.0
220
0.0
230
-1.0
100
AcDbArc
 50
180.0
 51
90.0
  0
LINE
  5
3D6
330
70
100
AcDbEntity
  8
Visible
100
AcDbLine
 10
311.640413
 20
194.348443
 30
0.0
 11
311.640413
 21
200.348443
 31
0.0
  0
ARC
  5
3D7
330
70
100
AcDbEntity
  8
Visible
100
AcDbCircle
 10
-311.640413
 20
201.348443
 30
0.0
 40
1.000000000000014
210
0.0
220
0.0
230
-1.0
100
AcDbArc
 50
270.0
 51
180.0
  0
LINE
  5
3D8
330
70
100
AcDbEntity
  8
Visible
100
AcDbLine
 10
312.640413
 20
201.348443
 30
0.0
 11
314.640413
 21
201.348443
 31
0.0
  0
LINE
  5
3D9
330
70
100
AcDbEntity
  8
Visible
100
AcDbLine
 10
314.640413
 20
201.348443
 30
0.0
 11
314.640413
 21
225.348443
 31
0.0
  0
LINE
  5
3DA
330
70
100
AcDbEntity
  8
Visible
100
AcDbLine
 10
314.640413
 20
225.348443
 30
0.0
 11
312.640413
 21
225.348443
 31
0.0
  0
ARC
  5
3DB
330
70
100
AcDbEntity
  8
Visible
100
AcDbCircle
 10
-311.640413
 20
225.348443
 30
0.0
 40
1.000000000000014
210
0.0
220
0.0
230
-1.0
100
AcDbArc
 50
180.0
 51
90.0
  0
LINE
  5
3DC
330
70
100
AcDbEntity
  8
Visible
100
AcDbLine
 10
311.640413
 20
226.348443
 30
0.0
 11
311.640413
 21
248.348443
 31
0.0
  0
ARC
  5
3DD
330
70
100
AcDbEntity
  8
Visible
100
AcDbCircle
 10
-311.640413
 20
249.348443
 30
0.0
 40
1.000000000000014
210
0.0
220
0.0
230
-1.0
100
AcDbArc
 50
270.0
 51
180.0
  0
LINE
  5
3DE
330
70
100
AcDbEntity
  8
Visible
100
AcDbLine
 10
312.640413
 20
249.348443
 30
0.0
 11
314.640413
 21
249.348443
 31
0.0
  0
LINE
  5
3DF
330
70
100
AcDbEntity
  8
Visible
100
AcDbLine
 10
314.640413
 20
249.348443
 30
0.0
 11
314.640413
 21
273.348443
 31
0.0
  0
LINE
  5
3E0
330
70
100
AcDbEntity
  8
Visible
100
AcDbLine
 10
314.640413
 20
273.348443
 30
0.0
 11
312.640413
 21
273.348443
 31
0.0
  0
ARC
  5
3E1
330
70
100
AcDbEntity
  8
Visible
100
AcDbCircle
 10
-311.640413
 20
273.348443
 30
0.0
 40
1.000000000000014
210
0.0
220
0.0
230
-1.0
100
AcDbArc
 50
180.0
 51
90.0
  0
LINE
  5
3E2
330
70
100
AcDbEntity
  8
Visible
100
AcDbLine
 10
311.640413
 20
274.348443
 30
0.0
 11
311.640413
 21
296.348443
 31
0.0
  0
ARC
  5
3E3
330
70
100
AcDbEntity
  8
Visible
100
AcDbCircle
 10
-311.640413
 20
297.348443
 30
0.0
 40
1.000000000000014
210
0.0
220
0.0
230
-1.0
100
AcDbArc
 50
270.0
 51
180.0
  0
LINE
  5
3E4
330
70
100
AcDbEntity
  8
Visible
100
AcDbLine
 10
312.640413
 20
297.348443
 30
0.0
 11
314.640413
 21
297.348443
 31
0.0
  0
LINE
  5
3E5
330
70
100
AcDbEntity
  8
Visible
100
AcDbLine
 10
314.640413
 20
297.348443
 30
0.0
 11
314.640413
 21
321.348443
 31
0.0
  0
LINE
  5
3E6
330
70
100
AcDbEntity
  8
Visible
100
AcDbLine
 10
314.640413
 20
321.348443
 30
0.0
 11
312.640413
 21
321.348443
 31
0.0
  0
ARC
  5
3E7
330
70
100
AcDbEntity
  8
Visible
100
AcDbCircle
 10
-311.640413
 20
321.348443
 30
0.0
 40
1.000000000000014
210
0.0
220
0.0
230
-1.0
100
AcDbArc
 50
180.0
 51
90.0
  0
LINE
  5
3E8
330
70
100
AcDbEntity
  8
Visible
100
AcDbLine
 10
311.640413
 20
322.348443
 30
0.0
 11
311.640413
 21
328.348443
 31
0.0
  0
ARC
  5
3E9
330
70
100
AcDbEntity
  8
Visible
100
AcDbCircle
 10
-311.640413
 20
329.348443
 30
0.0
 40
1.000000000000014
210
0.0
220
0.0
230
-1.0
100
AcDbArc
 50
270.0
 51
180.0
  0
LINE
  5
3EA
330
70
100
AcDbEntity
  8
Visible
100
AcDbLine
 10
312.640413
 20
329.348443
 30
0.0
 11
314.640413
 21
329.348443
 31
0.0
  0
LINE
  5
3EB
330
70
100
AcDbEntity
  8
Visible
100
AcDbLine
 10
314.640413
 20
329.348443
 30
0.0
 11
314.640413
 21
337.348443
 31
0.0
  0
LINE
  5
3EC
330
70
100
AcDbEntity
  8
Visible
100
AcDbLine
 10
314.640413
 20
337.348443
 30
0.0
 11
312.640413
 21
337.348443
 31
0.0
  0
ARC
  5
3ED
330
70
100
AcDbEntity
  8
Visible
100
AcDbCircle
 10
-311.640413
 20
337.348443
 30
0.0
 40
1.000000000000014
210
0.0
220
0.0
230
-1.0
100
AcDbArc
 50
180.0
 51
90.0
  0
LINE
  5
3EE
330
70
100
AcDbEntity
  8
Visible
100
AcDbLine
 10
311.640413
 20
338.348443
 30
0.0
 11
311.640413
 21
344.348443
 31
0.0
  0
ARC
  5
3EF
330
70
100
AcDbEntity
  8
Visible
100
AcDbCircle
 10
-311.640413
 20
345.348443
 30
0.0
 40
1.000000000000014
210
0.0
220
0.0
230
-1.0
100
AcDbArc
 50
270.0
 51
180.0
  0
LINE
  5
3F0
330
70
100
AcDbEntity
  8
Visible
100
AcDbLine
 10
312.640413
 20
345.348443
 30
0.0
 11
314.640413
 21
345.348443
 31
0.0
  0
LINE
  5
3F1
330
70
100
AcDbEntity
  8
Visible
100
AcDbLine
 10
314.640413
 20
345.348443
 30
0.0
 11
314.640413
 21
353.348443
 31
0.0
  0
LINE
  5
3F2
330
70
100
AcDbEntity
  8
Visible
100
AcDbLine
 10
314.640413
 20
353.348443
 30
0.0
 11
312.640413
 21
353.348443
 31
0.0
  0
ARC
  5
3F3
330
70
100
AcDbEntity
  8
Visible
100
AcDbCircle
 10
-311.640413
 20
353.348443
 30
0.0
 40
1.000000000000014
210
0.0
220
0.0
230
-1.0
100
AcDbArc
 50
180.0
 51
90.0
  0
LINE
  5
3F4
330
70
100
AcDbEntity
  8
Visible
100
AcDbLine
 10
311.640413
 20
354.348443
 30
0.0
 11
311.640413
 21
384.113766
 31
0.0
  0
LINE
  5
3F5
330
70
100
AcDbEntity
  8
Visible
100
AcDbLine
 10
311.640413
 20
384.113766
 30
0.0
 11
56.640413
 21
384.113766
 31
0.0
  0
LINE
  5
3F6
330
70
100
AcDbEntity
  8
Visible
100
AcDbLine
 10
56.640413
 20
384.113766
 30
0.0
 11
56.640413
 21
354.348443
 31
0.0
  0
ARC
  5
3F7
330
70
100
AcDbEntity
  8
Visible
100
AcDbCircle
 10
-56.640413
 20
353.348443
 30
0.0
 40
1.000000000000014
210
0.0
220
0.0
230
-1.0
100
AcDbArc
 50
90.0
 51
0.0
  0
LINE
  5
3F8
330
70
100
AcDbEntity
  8
Visible
100
AcDbLine
 10
55.640413
 20
353.348443
 30
0.0
 11
53.640413
 21
353.348443
 31
0.0
  0
LINE
  5
3F9
330
70
100
AcDbEntity
  8
Visible
100
AcDbLine
 10
53.640413
 20
353.348443
 30
0.0
 11
53.640413
 21
345.348443
 31
0.0
  0
LINE
  5
3FA
330
70
100
AcDbEntity
  8
Visible
100
AcDbLine
 10
53.640413
 20
345.348443
 30
0.0
 11
55.640413
 21
345.348443
 31
0.0
  0
ARC
  5
3FB
330
70
100
AcDbEntity
  8
Visible
100
AcDbCircle
 10
-56.640413
 20
345.348443
 30
0.0
 40
1.000000000000014
210
0.0
220
0.0
230
-1.0
100
AcDbArc
 50
0.0
 51
270.0
  0
LINE
  5
3FC
330
70
100
AcDbEntity
  8
Visible
100
AcDbLine
 10
56.640413
 20
344.348443
 30
0.0
 11
56.640413
 21
338.348443
 31
0.0
  0
ARC
  5
3FD
330
70
100
AcDbEntity
  8
Visible
100
AcDbCircle
 10
-56.640413
 20
337.348443
 30
0.0
 40
1.000000000000014
210
0.0
220
0.0
230
-1.0
100
AcDbArc
 50
90.0
 51
0.0
  0
LINE
  5
3FE
330
70
100
AcDbEntity
  8
Visible
100
AcDbLine
 10
55.640413
 20
337.348443
 30
0.0
 11
53.640413
 21
337.348443
 31
0.0
  0
LINE
  5
3FF
330
70
100
AcDbEntity
  8
Visible
100
AcDbLine
 10
53.640413
 20
337.348443
 30
0.0
 11
53.640413
 21
329.348443
 31
0.0
  0
LINE
  5
400
330
70
100
AcDbEntity
  8
Visible
100
AcDbLine
 10
53.640413
 20
329.348443
 30
0.0
 11
55.640413
 21
329.348443
 31
0.0
  0
ARC
  5
401
330
70
100
AcDbEntity
  8
Visible
100
AcDbCircle
 10
-56.640413
 20
329.348443
 30
0.0
 40
1.000000000000014
210
0.0
220
0.0
230
-1.0
100
AcDbArc
 50
0.0
 51
270.0
  0
LINE
  5
402
330
70
100
AcDbEntity
  8
Visible
100
AcDbLine
 10
56.640413
 20
328.348443
 30
0.0
 11
56.640413
 21
322.348443
 31
0.0
  0
ARC
  5
403
330
70
100
AcDbEntity
  8
Visible
100
AcDbCircle
 10
-56.640413
 20
321.348443
 30
0.0
 40
1.000000000000014
210
0.0
220
0.0
230
-1.0
100
AcDbArc
 50
90.0
 51
0.0
  0
LINE
  5
404
330
70
100
AcDbEntity
  8
Visible
100
AcDbLine
 10
55.640413
 20
321.348443
 30
0.0
 11
53.640413
 21
321.348443
 31
0.0
  0
LINE
  5
405
330
70
100
AcDbEntity
  8
Visible
100
AcDbLine
 10
53.640413
 20
321.348443
 30
0.0
 11
53.640413
 21
297.348443
 31
0.0
  0
LINE
  5
406
330
70
100
AcDbEntity
  8
Visible
100
AcDbLine
 10
53.640413
 20
297.348443
 30
0.0
 11
55.640413
 21
297.348443
 31
0.0
  0
ARC
  5
407
330
70
100
AcDbEntity
  8
Visible
100
AcDbCircle
 10
-56.640413
 20
297.348443
 30
0.0
 40
1.000000000000014
210
0.0
220
0.0
230
-1.0
100
AcDbArc
 50
0.0
 51
270.0
  0
LINE
  5
408
330
70
100
AcDbEntity
  8
Visible
100
AcDbLine
 10
56.640413
 20
296.348443
 30
0.0
 11
56.640413
 21
274.348443
 31
0.0
  0
ARC
  5
409
330
70
100
AcDbEntity
  8
Visible
100
AcDbCircle
 10
-56.640413
 20
273.348443
 30
0.0
 40
1.000000000000014
210
0.0
220
0.0
230
-1.0
100
AcDbArc
 50
90.0
 51
0.0
  0
LINE
  5
40A
330
70
100
AcDbEntity
  8
Visible
100
AcDbLine
 10
55.640413
 20
273.348443
 30
0.0
 11
53.640413
 21
273.348443
 31
0.0
  0
LINE
  5
40B
330
70
100
AcDbEntity
  8
Visible
100
AcDbLine
 10
53.640413
 20
273.348443
 30
0.0
 11
53.640413
 21
249.348443
 31
0.0
  0
LINE
  5
40C
330
70
100
AcDbEntity
  8
Visible
100
AcDbLine
 10
53.640413
 20
249.348443
 30
0.0
 11
55.640413
 21
249.348443
 31
0.0
  0
ARC
  5
40D
330
70
100
AcDbEntity
  8
Visible
100
AcDbCircle
 10
-56.640413
 20
249.348443
 30
0.0
 40
1.000000000000014
210
0.0
220
0.0
230
-1.0
100
AcDbArc
 50
0.0
 51
270.0
  0
LINE
  5
40E
330
70
100
AcDbEntity
  8
Visible
100
AcDbLine
 10
56.640413
 20
248.348443
 30
0.0
 11
56.640413
 21
226.348443
 31
0.0
  0
ARC
  5
40F
330
70
100
AcDbEntity
  8
Visible
100
AcDbCircle
 10
-56.640413
 20
225.348443
 30
0.0
 40
1.000000000000014
210
0.0
220
0.0
230
-1.0
100
AcDbArc
 50
90.0
 51
0.0
  0
LINE
  5
410
330
70
100
AcDbEntity
  8
Visible
100
AcDbLine
 10
55.640413
 20
225.348443
 30
0.0
 11
53.640413
 21
225.348443
 31
0.0
  0
LINE
  5
411
330
70
100
AcDbEntity
  8
Visible
100
AcDbLine
 10
53.640413
 20
225.348443
 30
0.0
 11
53.640413
 21
201.348443
 31
0.0
  0
LINE
  5
412
330
70
100
AcDbEntity
  8
Visible
100
AcDbLine
 10
53.640413
 20
201.348443
 30
0.0
 11
55.640413
 21
201.348443
 31
0.0
  0
ARC
  5
413
330
70
100
AcDbEntity
  8
Visible
100
AcDbCircle
 10
-56.640413
 20
201.348443
 30
0.0
 40
1.000000000000014
210
0.0
220
0.0
230
-1.0
100
AcDbArc
 50
0.0
 51
270.0
  0
LINE
  5
414
330
70
100
AcDbEntity
  8
Visible
100
AcDbLine
 10
56.640413
 20
200.348443
 30
0.0
 11
56.640413
 21
194.348443
 31
0.0
  0
ARC
  5
415
330
70
100
AcDbEntity
  8
Visible
100
AcDbCircle
 10
-56.640413
 20
193.348443
 30
0.0
 40
1.000000000000014
210
0.0
220
0.0
230
-1.0
100
AcDbArc
 50
90.0
 51
0.0
  0
LINE
  5
416
330
70
100
AcDbEntity
  8
Visible
100
AcDbLine
 10
55.640413
 20
193.348443
 30
0.0
 11
53.640413
 21
193.348443
 31
0.0
  0
LINE
  5
417
330
70
100
AcDbEntity
  8
Visible
100
AcDbLine
 10
53.640413
 20
193.348443
 30
0.0
 11
53.640413
 21
185.348443
 31
0.0
  0
LINE
  5
418
330
70
100
AcDbEntity
  8
Visible
100
AcDbLine
 10
53.640413
 20
185.348443
 30
0.0
 11
55.640413
 21
185.348443
 31
0.0
  0
ARC
  5
419
330
70
100
AcDbEntity
  8
Visible
100
AcDbCircle
 10
-56.640413
 20
185.348443
 30
0.0
 40
1.000000000000014
210
0.0
220
0.0
230
-1.0
100
AcDbArc
 50
0.0
 51
270.0
  0
LINE
  5
41A
330
70
100
AcDbEntity
  8
Visible
100
AcDbLine
 10
56.640413
 20
184.348443
 30
0.0
 11
56.640413
 21
178.348443
 31
0.0
  0
ARC
  5
41B
330
70
100
AcDbEntity
  8
Visible
100
AcDbCircle
 10
-56.640413
 20
177.348443
 30
0.0
 40
1.000000000000014
210
0.0
220
0.0
230
-1.0
100
AcDbArc
 50
90.0
 51
0.0
  0
LINE
  5
41C
330
70
100
AcDbEntity
  8
Visible
100
AcDbLine
 10
55.640413
 20
177.348443
 30
0.0
 11
53.640413
 21
177.348443
 31
0.0
  0
LINE
  5
41D
330
70
100
AcDbEntity
  8
Visible
100
AcDbLine
 10
53.640413
 20
177.348443
 30
0.0
 11
53.640413
 21
169.348443
 31
0.0
  0
LINE
  5
41E
330
70
100
AcDbEntity
  8
Visible
100
AcDbLine
 10
53.640413
 20
169.348443
 30
0.0
 11
55.640413
 21
169.348443
 31
0.0
  0
ARC
  5
41F
330
70
100
AcDbEntity
  8
Visible
100
AcDbCircle
 10
-56.640413
 20
169.348443
 30
0.0
 40
1.000000000000014
210
0.0
220
0.0
230
-1.0
100
AcDbArc
 50
0.0
 51
270.0
  0
LINE
  5
420
330
70
100
AcDbEntity
  8
Visible
100
AcDbLine
 10
56.640413
 20
168.348443
 30
0.0
 11
56.640413
 21
138.583119
 31
0.0
  0
LINE
  5
421
330
70
100
AcDbEntity
  8
Visible
100
AcDbLine
 10
56.640413
 20
138.583119
 30
0.0
 11
160.044494
 21
138.583119
 31
0.0
  0
LINE
  5
422
330
70
100
AcDbEntity
  8
Visible
100
AcDbLine
 10
162.044494
 20
140.583119
 30
0.0
 11
162.044494
 21
144.583119
 31
0.0
  0
ARC
  5
423
330
70
100
AcDbEntity
  8
Visible
100
AcDbCircle
 10
164.044494
 20
144.583119
 30
0.0
 40
1.999999999999999
100
AcDbArc
 50
90.0
 51
180.0
  0
LINE
  5
424
330
70
100
AcDbEntity
  8
Visible
100
AcDbLine
 10
164.044494
 20
146.583119
 30
0.0
 11
198.044487
 21
146.583119
 31
0.0
  0
CIRCLE
  5
425
330
70
100
AcDbEntity
  8
Visible
100
AcDbCircle
 10
-227.544487
 20
172.083119
 30
0.0
 40
1.549999999999993
210
0.0
220
0.0
230
-1.0
  0
CIRCLE
  5
426
330
70
100
AcDbEntity
  8
Visible
100
AcDbCircle
 10
-152.544487
 20
172.083119
 30
0.0
 40
1.549999999999993
210
0.0
220
0.0
230
-1.0
  0
CIRCLE
  5
427
330
70
100
AcDbEntity
  8
Visible
100
AcDbCircle
 10
-167.04449
 20
150.083119
 30
0.0
 40
1.550000000000011
210
0.0
220
0.0
230
-1.0
  0
CIRCLE
  5
428
330
70
100
AcDbEntity
  8
Visible
100
AcDbCircle
 10
-152.544487
 20
150.083119
 30
0.0
 40
1.550000000000002
210
0.0
220
0.0
230
-1.0
  0
CIRCLE
  5
429
330
70
100
AcDbEntity
  8
Visible
100
AcDbCircle
 10
-227.544487
 20
150.083119
 30
0.0
 40
1.549999999999993
210
0.0
220
0.0
230
-1.0
  0
CIRCLE
  5
42A
330
70
100
AcDbEntity
  8
Visible
100
AcDbCircle
 10
-195.04449
 20
150.083119
 30
0.0
 40
1.549999999999993
210
0.0
220
0.0
230
-1.0
  0
LINE
  5
42B
330
70
100
AcDbEntity
  8
Visible
100
AcDbLine
 10
92.640413
 20
152.583119
 30
0.0
 11
109.640413
 21
152.583119
 31
0.0
  0
ARC
  5
42C
330
70
100
AcDbEntity
  8
Visible
100
AcDbCircle
 10
109.640413
 20
148.583119
 30
0.0
 40
3.999999999999999
100
AcDbArc
 50
0.0
 51
90.0
  0
LINE
  5
42D
330
70
100
AcDbEntity
  8
Visible
100
AcDbLine
 10
113.640413
 20
148.583119
 30
0.0
 11
113.640413
 21
146.583119
 31
0.0
  0
ARC
  5
42E
330
70
100
AcDbEntity
  8
Visible
100
AcDbCircle
 10
109.640413
 20
146.583119
 30
0.0
 40
3.999999999999999
100
AcDbArc
 50
270.0
 51
0.0
  0
LINE
  5
42F
330
70
100
AcDbEntity
  8
Visible
100
AcDbLine
 10
109.640413
 20
142.583119
 30
0.0
 11
92.640413
 21
142.583119
 31
0.0
  0
ARC
  5
430
330
70
100
AcDbEntity
  8
Visible
100
AcDbCircle
 10
92.640413
 20
146.583119
 30
0.0
 40
4.0
100
AcDbArc
 50
180.0
 51
270.0
  0
LINE
  5
431
330
70
100
AcDbEntity
  8
Visible
100
AcDbLine
 10
88.640413
 20
146.583119
 30
0.0
 11
88.640413
 21
148.583119
 31
0.0
  0
ARC
  5
432
330
70
100
AcDbEntity
  8
Visible
100
AcDbCircle
 10
92.640413
 20
148.583119
 30
0.0
 40
4.0
100
AcDbArc
 50
90.0
 51
180.0
  0
LINE
  5
433
330
70
100
AcDbEntity
  8
Visible
100
AcDbLine
 10
258.640413
 20
152.583119
 30
0.0
 11
275.640413
 21
152.583119
 31
0.0
  0
ARC
  5
434
330
70
100
AcDbEntity
  8
Visible
100
AcDbCircle
 10
275.640413
 20
148.583119
 30
0.0
 40
3.999999999999999
100
AcDbArc
 50
0.0
 51
90.0
  0
LINE
  5
435
330
70
100
AcDbEntity
  8
Visible
100
AcDbLine
 10
279.640413
 20
148.583119
 30
0.0
 11
279.640413
 21
146.583119
 31
0.0
  0
ARC
  5
436
330
70
100
AcDbEntity
  8
Visible
100
AcDbCircle
 10
275.640413
 20
146.583119
 30
0.0
 40
4.0
100
AcDbArc
 50
270.0
 51
0.0
  0
LINE
  5
437
330
70
100
AcDbEntity
  8
Visible
100
AcDbLine
 10
275.640413
 20
142.583119
 30
0.0
 11
258.640413
 21
142.583119
 31
0.0
  0
ARC
  5
438
330
70
100
AcDbEntity
  8
Visible
100
AcDbCircle
 10
258.640413
 20
146.583119
 30
0.0
 40
4.0
100
AcDbArc
 50
180.0
 51
270.0
  0
LINE
  5
439
330
70
100
AcDbEntity
  8
Visible
100
AcDbLine
 10
254.640413
 20
146.583119
 30
0.0
 11
254.640413
 21
148.583119
 31
0.0
  0
ARC
  5
43A
330
70
100
AcDbEntity
  8
Visible
100
AcDbCircle
 10
258.640413
 20
148.583119
 30
0.0
 40
4.0
100
AcDbArc
 50
90.0
 51
180.0
  0
CIRCLE
  5
43B
330
70
100
AcDbEntity
  8
Visible
100
AcDbCircle
 10
-61.640413
 20
333.348443
 30
0.0
 40
2.05
210
0.0
220
0.0
230
-1.0
  0
CIRCLE
  5
43C
330
70
100
AcDbEntity
  8
Visible
100
AcDbCircle
 10
-306.640413
 20
333.348443
 30
0.0
 40
2.050000000000018
210
0.0
220
0.0
230
-1.0
  0
CIRCLE
  5
43D
330
70
100
AcDbEntity
  8
Visible
100
AcDbCircle
 10
-61.640413
 20
189.348443
 30
0.0
 40
2.05
210
0.0
220
0.0
230
-1.0
  0
CIRCLE
  5
43E
330
70
100
AcDbEntity
  8
Visible
100
AcDbCircle
 10
-61.640413
 20
173.348443
 30
0.0
 40
2.050000000000005
210
0.0
220
0.0
230
-1.0
  0
CIRCLE
  5
43F
330
70
100
AcDbEntity
  8
Visible
100
AcDbCircle
 10
-306.640413
 20
349.348443
 30
0.0
 40
2.050000000000018
210
0.0
220
0.0
230
-1.0
  0
CIRCLE
  5
440
330
70
100
AcDbEntity
  8
Visible
100
AcDbCircle
 10
-306.640413
 20
189.348443
 30
0.0
 40
2.050000000000018
210
0.0
220
0.0
230
-1.0
  0
CIRCLE
  5
441
330
70
100
AcDbEntity
  8
Visible
100
AcDbCircle
 10
-61.640413
 20
349.348443
 30
0.0
 40
2.050000000000005
210
0.0
220
0.0
230
-1.0
  0
CIRCLE
  5
442
330
70
100
AcDbEntity
  8
Visible
100
AcDbCircle
 10
-306.640413
 20
173.348443
 30
0.0
 40
2.050000000000018
210
0.0
220
0.0
230
-1.0
  0
ENDSEC
  0
SECTION
  2
OBJECTS
  0
DICTIONARY
  5
C
330
0
100
AcDbDictionary
281
     1
  3
ACAD_COLOR
350
63
  3
ACAD_DETAILVIEWSTYLE
350
6A
  3
ACAD_GROUP
350
D
  3
ACAD_LAYOUT
350
62
  3
ACAD_MATERIAL
350
10
  3
ACAD_MLEADERSTYLE
350
66
  3
ACAD_MLINESTYLE
350
5F
  3
ACAD_PLOTSETTINGS
350
61
  3
ACAD_PLOTSTYLENAME
350
E
  3
ACAD_SCALELIST
350
42
  3
ACAD_SECTIONVIEWSTYLE
350
68
  3
ACAD_TABLESTYLE
350
64
  3
ACAD_VISUALSTYLE
350
29
  3
ACDB_RECOMPOSE_DATA
350
44C
  3
AcDbVariableDictionary
350
443
  0
DICTIONARY
  5
A8
330
70
100
AcDbDictionary
280
     1
281
     1
  3
ACAD_SORTENTS
360
A9
  0
DICTIONARY
  5
227
330
226
100
AcDbDictionary
280
     1
281
     1
  3
ACAD_SORTENTS
360
2CE
  0
DICTIONARY
  5
273
330
272
100
AcDbDictionary
280
     1
281
     1
  0
DICTIONARY
  5
242
330
241
100
AcDbDictionary
280
     1
281
     1
  0
DICTIONARY
  5
244
330
243
100
AcDbDictionary
280
     1
281
     1
  0
DICTIONARY
  5
246
330
245
100
AcDbDictionary
280
     1
281
     1
  0
DICTIONARY
  5
248
330
247
100
AcDbDictionary
280
     1
281
     1
  0
DICTIONARY
  5
24A
330
249
100
AcDbDictionary
280
     1
281
     1
  0
DICTIONARY
  5
24C
330
24B
100
AcDbDictionary
280
     1
281
     1
  0
DICTIONARY
  5
24E
330
24D
100
AcDbDictionary
280
     1
281
     1
  0
DICTIONARY
  5
250
330
24F
100
AcDbDictionary
280
     1
281
     1
  0
DICTIONARY
  5
252
330
251
100
AcDbDictionary
280
     1
281
     1
  0
DICTIONARY
  5
254
330
253
100
AcDbDictionary
280
     1
281
     1
  0
DICTIONARY
  5
256
330
255
100
AcDbDictionary
280
     1
281
     1
  0
DICTIONARY
  5
258
330
257
100
AcDbDictionary
280
     1
281
     1
  0
DICTIONARY
  5
25A
330
259
100
AcDbDictionary
280
     1
281
     1
  0
DICTIONARY
  5
25C
330
25B
100
AcDbDictionary
280
     1
281
     1
  0
DICTIONARY
  5
25E
330
25D
100
AcDbDictionary
280
     1
281
     1
  0
DICTIONARY
  5
63
102
{ACAD_REACTORS
330
C
102
}
330
C
100
AcDbDictionary
281
     1
  0
DICTIONARY
  5
6A
102
{ACAD_REACTORS
330
C
102
}
330
C
100
AcDbDictionary
281
     1
  3
Imperial24
350
6B
  0
DICTIONARY
  5
D
102
{ACAD_REACTORS
330
C
102
}
330
C
100
AcDbDictionary
281
     1
  0
DICTIONARY
  5
62
102
{ACAD_REACTORS
330
C
102
}
330
C
100
AcDbDictionary
281
     1
  3
Model
350
73
  3
1
350
6F
  3
2
350
77
  0
DICTIONARY
  5
10
102
{ACAD_REACTORS
330
C
102
}
330
C
100
AcDbDictionary
281
     1
  3
ByBlock
350
19
  3
ByLayer
350
11
  3
Global
350
21
  0
DICTIONARY
  5
66
102
{ACAD_REACTORS
330
C
102
}
330
C
100
AcDbDictionary
281
     1
  3
Standard
350
67
  0
DICTIONARY
  5
5F
102
{ACAD_REACTORS
330
C
102
}
330
C
100
AcDbDictionary
281
     1
  3
Standard
350
60
  0
DICTIONARY
  5
61
102
{ACAD_REACTORS
330
C
102
}
330
C
100
AcDbDictionary
281
     1
  0
ACDBDICTIONARYWDFLT
  5
E
102
{ACAD_REACTORS
330
C
102
}
330
C
100
AcDbDictionary
281
     1
  3
Normal
350
F
100
AcDbDictionaryWithDefault
340
F
  0
DICTIONARY
  5
42
102
{ACAD_REACTORS
330
C
102
}
330
C
100
AcDbDictionary
281
     1
  3
*A1
350
A7
  3
A0
350
43
  3
A1
350
44
  3
A2
350
45
  3
A3
350
46
  3
A4
350
47
  3
A5
350
48
  3
A6
350
49
  3
A7
350
4A
  3
A8
350
4B
  3
A9
350
4C
  3
B0
350
4D
  3
B1
350
4E
  3
B2
350
4F
  3
B3
350
50
  3
B4
350
51
  3
B5
350
52
  3
B6
350
53
  0
DICTIONARY
  5
68
102
{ACAD_REACTORS
330
C
102
}
330
C
100
AcDbDictionary
281
     1
  3
Imperial24
350
69
  0
DICTIONARY
  5
64
102
{ACAD_REACTORS
330
C
102
}
330
C
100
AcDbDictionary
281
     1
  3
Standard
350
65
  0
DICTIONARY
  5
29
102
{ACAD_REACTORS
330
C
102
}
330
C
100
AcDbDictionary
281
     1
  3
2dWireframe
350
2F
  3
Basic
350
2E
  3
Brighten
350
35
  3
ColorChange
350
39
  3
Conceptual
350
32
  3
Dim
350
34
  3
EdgeColorOff
350
41
  3
Facepattern
350
38
  3
Flat
350
2A
  3
FlatWithEdges
350
2B
  3
Gouraud
350
2C
  3
GouraudWithEdges
350
2D
  3
Hidden
350
31
  3
JitterOff
350
3F
  3
Linepattern
350
37
  3
OverhangOff
350
40
  3
Realistic
350
33
  3
Shaded
350
3E
  3
Shaded with edges
350
3D
  3
Shades of Gray
350
3A
  3
Sketchy
350
3B
  3
Thicken
350
36
  3
Wireframe
350
30
  3
X-Ray
350
3C
  0
XRECORD
  5
44C
102
{ACAD_REACTORS
330
C
102
}
330
C
100
AcDbXrecord
280
     1
 90
        1
330
65
  0
DICTIONARY
  5
443
102
{ACAD_REACTORS
330
C
102
}
330
C
100
AcDbDictionary
281
     1
  3
ANNOALLVISIBLE
350
448
  3
CANNOSCALE
350
449
  3
CMLEADERSTYLE
350
445
  3
CTABLESTYLE
350
444
  3
CVIEWDETAILSTYLE
350
446
  3
CVIEWSECTIONSTYLE
350
447
  0
SORTENTSTABLE
  5
A9
102
{ACAD_REACTORS
330
A8
102
}
330
A8
100
AcDbSortentsTable
330
70
  0
SORTENTSTABLE
  5
2CE
102
{ACAD_REACTORS
330
227
102
}
330
227
100
AcDbSortentsTable
330
226
  0
ACDBDETAILVIEWSTYLE
  5
6B
102
{ACAD_XDICTIONARY
360
44F
102
}
102
{ACAD_REACTORS
330
6A
102
}
330
6A
100
AcDbModelDocViewStyle
 70
     0
  3
Imperial24
290
     0
100
AcDbDetailViewStyle
 70
     0
 71
     0
 90
        3
 71
     1
340
55
 62
   256
 40
0.24
340
0
 62
   256
 40
0.24
300

 40
0.36
280
     3
 71
     2
340
5D
 90
       25
 62
   256
 71
     3
340
55
 62
   256
 40
0.24
 90
        1
 40
0.75
 90
        1
300
%<\AcVar ViewType \f "%tc1">% %<\AcVar ViewDetailId>%\P %<\AcVar ViewScale \f "%sn">%
 71
     4
340
5D
 90
       25
 62
   256
340
5D
 90
       25
 62
   256
280
     0
  0
LAYOUT
  5
73
102
{ACAD_REACTORS
330
62
102
}
330
62
100
AcDbPlotSettings
  1

  2
AutoCAD PDF (High Quality Print).pc3
  4
ISO_full_bleed_A2_(594.00_x_420.00_MM)
  6

 40
0.0
 41
0.0
 42
0.0
 43
0.0
 44
594.0
 45
420.0
 46
0.0
 47
0.0
 48
0.0
 49
0.0
140
0.0
141
0.0
142
1.0
143
1.074807
 70
 11952
 72
     1
 73
     0
 74
     0
  7

 75
     0
147
0.9304
 76
     0
 77
     2
 78
   300
148
2.168618
149
24.088802
100
AcDbLayout
  1
Model
 70
     1
 71
     0
 10
0.0
 20
0.0
 11
12.0
 21
9.0
 12
0.0
 22
0.0
 32
0.0
 14
0.0
 24
0.0
 34
0.0
 15
0.0
 25
0.0
 35
0.0
146
0.0
 13
0.0
 23
0.0
 33
0.0
 16
1.0
 26
0.0
 36
0.0
 17
0.0
 27
1.0
 37
0.0
 76
     0
330
70
1001
ACAD_PSEXT
1000
AutoCAD PDF (High Quality Print).pc3
1000
DWG To PDF
1000

1000

1070
     0
  0
LAYOUT
  5
6F
102
{ACAD_REACTORS
330
62
102
}
330
62
100
AcDbPlotSettings
  1

  2
None
  4

  6

 40
0.0
 41
0.0
 42
0.0
 43
0.0
 44
0.0
 45
0.0
 46
0.0
 47
0.0
 48
0.0
 49
0.0
140
0.0
141
0.0
142
1.0
143
1.0
 70
   688
 72
     0
 73
     0
 74
     5
  7

 75
    16
147
1.0
 76
     0
 77
     2
 78
   300
148
0.0
149
0.0
100
AcDbLayout
  1
1
 70
     1
 71
     1
 10
0.0
 20
0.0
 11
12.0
 21
9.0
 12
0.0
 22
0.0
 32
0.0
 14
0.0
 24
0.0
 34
0.0
 15
0.0
 25
0.0
 35
0.0
146
0.0
 13
0.0
 23
0.0
 33
0.0
 16
1.0
 26
0.0
 36
0.0
 17
0.0
 27
1.0
 37
0.0
 76
     0
330
6C
  0
LAYOUT
  5
77
102
{ACAD_REACTORS
330
62
102
}
330
62
100
AcDbPlotSettings
  1

  2
None
  4

  6

 40
0.0
 41
0.0
 42
0.0
 43
0.0
 44
0.0
 45
0.0
 46
0.0
 47
0.0
 48
0.0
 49
0.0
140
0.0
141
0.0
142
1.0
143
1.0
 70
   688
 72
     0
 73
     0
 74
     5
  7

 75
    16
147
1.0
 76
     0
 77
     2
 78
   300
148
0.0
149
0.0
100
AcDbLayout
  1
2
 70
     1
 71
     2
 10
0.0
 20
0.0
 11
12.0
 21
9.0
 12
0.0
 22
0.0
 32
0.0
 14
0.0
 24
0.0
 34
0.0
 15
0.0
 25
0.0
 35
0.0
146
0.0
 13
0.0
 23
0.0
 33
0.0
 16
1.0
 26
0.0
 36
0.0
 17
0.0
 27
1.0
 37
0.0
 76
     0
330
74
  0
MATERIAL
  5
19
102
{ACAD_XDICTIONARY
360
1A
102
}
102
{ACAD_REACTORS
330
10
102
}
330
10
100
AcDbMaterial
  1
ByBlock
 72
     0
 43
0.020833
 43
0.0
 43
0.0
 43
0.0
 43
0.0
 43
0.020833
 43
0.0
 43
0.0
 43
0.0
 43
0.0
 43
1.0
 43
0.0
 43
0.0
 43
0.0
 43
0.0
 43
1.0
 77
     0
 47
0.020833
 47
0.0
 47
0.0
 47
0.0
 47
0.0
 47
0.020833
 47
0.0
 47
0.0
 47
0.0
 47
0.0
 47
1.0
 47
0.0
 47
0.0
 47
0.0
 47
0.0
 47
1.0
171
     0
 49
0.020833
 49
0.0
 49
0.0
 49
0.0
 49
0.0
 49
0.020833
 49
0.0
 49
0.0
 49
0.0
 49
0.0
 49
1.0
 49
0.0
 49
0.0
 49
0.0
 49
0.0
 49
1.0
175
     0
142
0.020833
142
0.0
142
0.0
142
0.0
142
0.0
142
0.020833
142
0.0
142
0.0
142
0.0
142
0.0
142
1.0
142
0.0
142
0.0
142
0.0
142
0.0
142
1.0
179
     0
144
0.020833
144
0.0
144
0.0
144
0.0
144
0.0
144
0.020833
144
0.0
144
0.0
144
0.0
144
0.0
144
1.0
144
0.0
144
0.0
144
0.0
144
0.0
144
1.0
147
0.020833
147
0.0
147
0.0
147
0.0
147
0.0
147
0.020833
147
0.0
147
0.0
147
0.0
147
0.0
147
1.0
147
0.0
147
0.0
147
0.0
147
0.0
147
1.0
  0
MATERIAL
  5
11
102
{ACAD_XDICTIONARY
360
12
102
}
102
{ACAD_REACTORS
330
10
102
}
330
10
100
AcDbMaterial
  1
ByLayer
 72
     0
 43
0.020833
 43
0.0
 43
0.0
 43
0.0
 43
0.0
 43
0.020833
 43
0.0
 43
0.0
 43
0.0
 43
0.0
 43
1.0
 43
0.0
 43
0.0
 43
0.0
 43
0.0
 43
1.0
 77
     0
 47
0.020833
 47
0.0
 47
0.0
 47
0.0
 47
0.0
 47
0.020833
 47
0.0
 47
0.0
 47
0.0
 47
0.0
 47
1.0
 47
0.0
 47
0.0
 47
0.0
 47
0.0
 47
1.0
171
     0
 49
0.020833
 49
0.0
 49
0.0
 49
0.0
 49
0.0
 49
0.020833
 49
0.0
 49
0.0
 49
0.0
 49
0.0
 49
1.0
 49
0.0
 49
0.0
 49
0.0
 49
0.0
 49
1.0
175
     0
142
0.020833
142
0.0
142
0.0
142
0.0
142
0.0
142
0.020833
142
0.0
142
0.0
142
0.0
142
0.0
142
1.0
142
0.0
142
0.0
142
0.0
142
0.0
142
1.0
179
     0
144
0.020833
144
0.0
144
0.0
144
0.0
144
0.0
144
0.020833
144
0.0
144
0.0
144
0.0
144
0.0
144
1.0
144
0.0
144
0.0
144
0.0
144
0.0
144
1.0
147
0.020833
147
0.0
147
0.0
147
0.0
147
0.0
147
0.020833
147
0.0
147
0.0
147
0.0
147
0.0
147
1.0
147
0.0
147
0.0
147
0.0
147
0.0
147
1.0
  0
MATERIAL
  5
21
102
{ACAD_XDICTIONARY
360
22
102
}
102
{ACAD_REACTORS
330
10
102
}
330
10
100
AcDbMaterial
  1
Global
 72
     0
 43
0.020833
 43
0.0
 43
0.0
 43
0.0
 43
0.0
 43
0.020833
 43
0.0
 43
0.0
 43
0.0
 43
0.0
 43
1.0
 43
0.0
 43
0.0
 43
0.0
 43
0.0
 43
1.0
 77
     0
 47
0.020833
 47
0.0
 47
0.0
 47
0.0
 47
0.0
 47
0.020833
 47
0.0
 47
0.0
 47
0.0
 47
0.0
 47
1.0
 47
0.0
 47
0.0
 47
0.0
 47
0.0
 47
1.0
171
     0
 49
0.020833
 49
0.0
 49
0.0
 49
0.0
 49
0.0
 49
0.020833
 49
0.0
 49
0.0
 49
0.0
 49
0.0
 49
1.0
 49
0.0
 49
0.0
 49
0.0
 49
0.0
 49
1.0
175
     0
142
0.020833
142
0.0
142
0.0
142
0.0
142
0.0
142
0.020833
142
0.0
142
0.0
142
0.0
142
0.0
142
1.0
142
0.0
142
0.0
142
0.0
142
0.0
142
1.0
179
     0
144
0.020833
144
0.0
144
0.0
144
0.0
144
0.0
144
0.020833
144
0.0
144
0.0
144
0.0
144
0.0
144
1.0
144
0.0
144
0.0
144
0.0
144
0.0
144
1.0
147
0.020833
147
0.0
147
0.0
147
0.0
147
0.0
147
0.020833
147
0.0
147
0.0
147
0.0
147
0.0
147
1.0
147
0.0
147
0.0
147
0.0
147
0.0
147
1.0
  0
MLEADERSTYLE
  5
67
102
{ACAD_REACTORS
330
66
102
}
330
66
100
AcDbMLeaderStyle
179
     2
170
     2
171
     1
172
     0
 90
        2
 40
0.0
 41
0.0
173
     1
 91
-1056964608
340
5B
 92
       -2
290
     1
 42
0.09
291
     1
 43
0.36
  3
Standard
 44
0.18
300

342
55
174
     1
178
     6
175
     1
176
     0
 93
-1056964608
 45
0.18
292
     0
297
     0
 46
0.18
 94
-1056964608
 47
1.0
 49
1.0
140
1.0
293
     1
141
0.0
294
     1
177
     0
142
1.0
295
     0
296
     0
143
0.125
271
     0
272
     9
273
     9
298
     1
  0
MLINESTYLE
  5
60
102
{ACAD_REACTORS
330
5F
102
}
330
5F
100
AcDbMlineStyle
  2
STANDARD
 70
     0
  3

 62
   256
 51
90.0
 52
90.0
 71
     0
  0
ACDBPLACEHOLDER
  5
F
102
{ACAD_REACTORS
330
E
102
}
330
E
  0
SCALE
  5
A7
102
{ACAD_REACTORS
330
42
102
}
330
42
100
AcDbScale
 70
     0
300
1:11
140
0.090909
141
1.0
290
     0
  0
SCALE
  5
43
102
{ACAD_REACTORS
330
42
102
}
330
42
100
AcDbScale
 70
     0
300
1:1
140
1.0
141
1.0
290
     1
  0
SCALE
  5
44
102
{ACAD_REACTORS
330
42
102
}
330
42
100
AcDbScale
 70
     0
300
1:2
140
1.0
141
2.0
290
     0
  0
SCALE
  5
45
102
{ACAD_REACTORS
330
42
102
}
330
42
100
AcDbScale
 70
     0
300
1:4
140
1.0
141
4.0
290
     0
  0
SCALE
  5
46
102
{ACAD_REACTORS
330
42
102
}
330
42
100
AcDbScale
 70
     0
300
1:5
140
1.0
141
5.0
290
     0
  0
SCALE
  5
47
102
{ACAD_REACTORS
330
42
102
}
330
42
100
AcDbScale
 70
     0
300
1:8
140
1.0
141
8.0
290
     0
  0
SCALE
  5
48
102
{ACAD_REACTORS
330
42
102
}
330
42
100
AcDbScale
 70
     0
300
1:10
140
1.0
141
10.0
290
     0
  0
SCALE
  5
49
102
{ACAD_REACTORS
330
42
102
}
330
42
100
AcDbScale
 70
     0
300
1:16
140
1.0
141
16.0
290
     0
  0
SCALE
  5
4A
102
{ACAD_REACTORS
330
42
102
}
330
42
100
AcDbScale
 70
     0
300
1:20
140
1.0
141
20.0
290
     0
  0
SCALE
  5
4B
102
{ACAD_REACTORS
330
42
102
}
330
42
100
AcDbScale
 70
     0
300
1:30
140
1.0
141
30.0
290
     0
  0
SCALE
  5
4C
102
{ACAD_REACTORS
330
42
102
}
330
42
100
AcDbScale
 70
     0
300
1:40
140
1.0
141
40.0
290
     0
  0
SCALE
  5
4D
102
{ACAD_REACTORS
330
42
102
}
330
42
100
AcDbScale
 70
     0
300
1:50
140
1.0
141
50.0
290
     0
  0
SCALE
  5
4E
102
{ACAD_REACTORS
330
42
102
}
330
42
100
AcDbScale
 70
     0
300
1:100
140
1.0
141
100.0
290
     0
  0
SCALE
  5
4F
102
{ACAD_REACTORS
330
42
102
}
330
42
100
AcDbScale
 70
     0
300
2:1
140
2.0
141
1.0
290
     0
  0
SCALE
  5
50
102
{ACAD_REACTORS
330
42
102
}
330
42
100
AcDbScale
 70
     0
300
4:1
140
4.0
141
1.0
290
     0
  0
SCALE
  5
51
102
{ACAD_REACTORS
330
42
102
}
330
42
100
AcDbScale
 70
     0
300
8:1
140
8.0
141
1.0
290
     0
  0
SCALE
  5
52
102
{ACAD_REACTORS
330
42
102
}
330
42
100
AcDbScale
 70
     0
300
10:1
140
10.0
141
1.0
290
     0
  0
SCALE
  5
53
102
{ACAD_REACTORS
330
42
102
}
330
42
100
AcDbScale
 70
     0
300
100:1
140
100.0
141
1.0
290
     0
  0
ACDBSECTIONVIEWSTYLE
  5
69
102
{ACAD_XDICTIONARY
360
44D
102
}
102
{ACAD_REACTORS
330
68
102
}
330
68
100
AcDbModelDocViewStyle
 70
     0
  3
Imperial24
290
     0
100
AcDbSectionViewStyle
 70
     0
 71
     0
 90
       78
 71
     1
340
55
 62
   256
 40
0.24
340
0
340
0
 62
   256
 40
0.24
300
I, O, Q, S, X, Z
 40
0.48
 90
        3
 40
0.18
 90
        1
 71
     2
340
5D
 90
       25
 62
   256
340
5D
 90
       50
 62
   256
 40
0.24
 40
0.0
 40
0.24
 71
     3
340
55
 62
   256
 40
0.24
 90
        1
 40
0.75
 90
        1
300
%<\AcVar ViewType \f "%tc1">% %<\AcVar ViewSectionStartId>%-%<\AcVar ViewSectionEndId>%\P %<\AcVar ViewScale \f "%sn">%
 71
     4
 62
   256
 62
   257
300
ANSI31
 40
1.0
 90
        0
290
     0
290
     0
 90
        6
 40
0.0
 40
1.570796
 40
0.261799
 40
1.308997
 40
-0.261799
 40
1.832596
  0
TABLESTYLE
  5
65
102
{ACAD_XDICTIONARY
360
44A
102
}
102
{ACAD_REACTORS
330
64
102
}
330
64
100
AcDbTableStyle
280
     0
  3
Standard
 70
     0
 71
     0
 40
1.5
 41
1.5
280
     0
281
     0
  7
Standard
140
0.18
170
     2
 62
     0
 63
     7
283
     0
 90
      512
 91
        0
  1

274
    -2
284
     1
 64
     0
275
    -2
285
     1
 65
     0
276
    -2
286
     1
 66
     0
277
    -2
287
     1
 67
     0
278
    -2
288
     1
 68
     0
279
    -2
289
     1
 69
     0
  7
Standard
140
0.25
170
     5
 62
     0
 63
     7
283
     0
 90
      512
 91
        0
  1

274
    -2
284
     1
 64
     0
275
    -2
285
     1
 65
     0
276
    -2
286
     1
 66
     0
277
    -2
287
     1
 67
     0
278
    -2
288
     1
 68
     0
279
    -2
289
     1
 69
     0
  7
Standard
140
0.18
170
     5
 62
     0
 63
     7
283
     0
 90
      512
 91
        0
  1

274
    -2
284
     1
 64
     0
275
    -2
285
     1
 65
     0
276
    -2
286
     1
 66
     0
277
    -2
287
     1
 67
     0
278
    -2
288
     1
 68
     0
279
    -2
289
     1
 69
     0
  0
VISUALSTYLE
  5
2F
102
{ACAD_REACTORS
330
29
102
}
330
29
100
AcDbVisualStyle
  2
2dWireframe
 70
     4
177
     3
291
     0
 70
    58
 90
        0
176
     1
 90
        2
176
     1
 90
        0
176
     1
 90
        0
176
     1
 40
0.6
176
     1
 40
30.0
176
     1
 62
     7
420
 16777215
176
     1
 90
        1
176
     1
 90
        4
176
     1
 62
     7
176
     1
 62
   257
176
     1
 90
        1
176
     1
 90
        1
176
     1
 40
1.0
176
     1
 90
        0
176
     1
 62
   257
176
     1
 40
1.0
176
     1
 90
        1
176
     1
 90
        6
176
     1
 90
        2
176
     1
 62
     7
176
     1
 90
        5
176
     1
 90
        0
176
     1
 90
        0
176
     1
290
     0
176
     1
 90
        1
176
     1
 40
0.0
176
     1
 90
        0
176
     1
290
     1
176
     1
290
     1
176
     1
290
     0
176
     1
290
     0
176
     1
290
     0
176
     1
290
     0
176
     1
290
     0
176
     1
290
     0
176
     1
290
     0
176
     1
 90
       50
176
     1
 40
0.0
176
     1
 40
1.0
176
     1
 90
        0
176
     1
 62
    18
420
        0
176
     1
 90
       50
176
     1
 90
        3
176
     1
 62
     5
420
      255
176
     1
290
     0
176
     1
 90
       50
176
     1
 90
       50
176
     1
 90
       50
176
     1
290
     0
176
     1
 90
       50
176
     1
 62
   256
176
     0
 40
1.0
176
     0
 90
        2
176
     1
  1
strokes_ogs.tif
176
     1
290
     0
176
     1
 40
1.0
176
     1
 40
1.0
176
     1
1001
ACAD
1000
AcDbSavedByObjectVersion
1070
     0
  0
VISUALSTYLE
  5
2E
102
{ACAD_REACTORS
330
29
102
}
330
29
100
AcDbVisualStyle
  2
Basic
 70
     7
177
     3
291
     1
 70
    58
 90
        1
176
     1
 90
        0
176
     1
 90
        1
176
     1
 90
        0
176
     1
 40
0.6
176
     1
 40
30.0
176
     1
 62
     7
420
 16777215
176
     1
 90
        0
176
     1
 90
        4
176
     1
 62
     7
176
     1
 62
   257
176
     1
 90
        1
176
     1
 90
        1
176
     1
 40
1.0
176
     1
 90
        8
176
     1
 62
     7
176
     1
 40
1.0
176
     1
 90
        1
176
     1
 90
        6
176
     1
 90
        2
176
     1
 62
     7
176
     1
 90
        5
176
     1
 90
        0
176
     1
 90
        0
176
     1
290
     0
176
     1
 90
        1
176
     1
 40
0.0
176
     1
 90
        0
176
     1
290
     0
176
     1
290
     1
176
     1
290
     1
176
     1
290
     0
176
     1
290
     0
176
     1
290
     0
176
     1
290
     0
176
     1
290
     0
176
     1
290
     0
176
     1
 90
       50
176
     1
 40
0.0
176
     1
 40
1.0
176
     1
 90
        0
176
     1
 62
    18
420
        0
176
     1
 90
       50
176
     1
 90
        3
176
     1
 62
     5
420
      255
176
     1
290
     0
176
     1
 90
       50
176
     1
 90
       50
176
     1
 90
       50
176
     1
290
     0
176
     1
 90
       50
176
     1
 62
   256
176
     0
 40
1.0
176
     0
 90
        2
176
     1
  1
strokes_ogs.tif
176
     1
290
     0
176
     1
 40
1.0
176
     1
 40
1.0
176
     1
1001
ACAD
1000
AcDbSavedByObjectVersion
1070
     0
  0
VISUALSTYLE
  5
35
102
{ACAD_REACTORS
330
29
102
}
330
29
100
AcDbVisualStyle
  2
Brighten
 70
    12
177
     3
291
     1
 70
    58
 90
        2
176
     1
 90
        2
176
     1
 90
        0
176
     1
 90
        0
176
     1
 40
0.6
176
     1
 40
30.0
176
     1
 62
     7
420
 16777215
176
     1
 90
        1
176
     1
 90
        4
176
     1
 62
     7
176
     1
 62
   257
176
     1
 90
        1
176
     1
 90
        1
176
     1
 40
1.0
176
     1
 90
        8
176
     1
 62
     7
176
     1
 40
1.0
176
     1
 90
        1
176
     1
 90
        6
176
     1
 90
        2
176
     1
 62
     7
176
     1
 90
        5
176
     1
 90
        0
176
     1
 90
        0
176
     1
290
     0
176
     1
 90
        1
176
     1
 40
50.0
176
     1
 90
        0
176
     1
290
     0
176
     1
290
     1
176
     1
290
     1
176
     1
290
     0
176
     1
290
     0
176
     1
290
     0
176
     1
290
     0
176
     1
290
     0
176
     1
290
     0
176
     1
 90
       50
176
     1
 40
0.0
176
     1
 40
1.0
176
     1
 90
        0
176
     1
 62
    18
420
        0
176
     1
 90
       50
176
     1
 90
        3
176
     1
 62
     5
420
      255
176
     1
290
     0
176
     1
 90
       50
176
     1
 90
       50
176
     1
 90
       50
176
     1
290
     0
176
     1
 90
       50
176
     1
 62
   256
176
     0
 40
1.0
176
     0
 90
        2
176
     1
  1
strokes_ogs.tif
176
     1
290
     0
176
     1
 40
1.0
176
     1
 40
1.0
176
     1
1001
ACAD
1000
AcDbSavedByObjectVersion
1070
     0
  0
VISUALSTYLE
  5
39
102
{ACAD_REACTORS
330
29
102
}
330
29
100
AcDbVisualStyle
  2
ColorChange
 70
    16
177
     3
291
     1
 70
    58
 90
        2
176
     1
 90
        2
176
     1
 90
        3
176
     1
 90
        0
176
     1
 40
0.6
176
     1
 40
30.0
176
     1
 62
     8
420
  8421504
176
     1
 90
        1
176
     1
 90
        4
176
     1
 62
     7
176
     1
 62
   257
176
     1
 90
        1
176
     1
 90
        1
176
     1
 40
1.0
176
     1
 90
        8
176
     1
 62
     8
420
  8421504
176
     1
 40
1.0
176
     1
 90
        1
176
     1
 90
        6
176
     1
 90
        2
176
     1
 62
     7
176
     1
 90
        5
176
     1
 90
        0
176
     1
 90
        0
176
     1
290
     0
176
     1
 90
        1
176
     1
 40
0.0
176
     1
 90
        0
176
     1
290
     0
176
     1
290
     1
176
     1
290
     1
176
     1
290
     0
176
     1
290
     0
176
     1
290
     0
176
     1
290
     0
176
     1
290
     0
176
     1
290
     0
176
     1
 90
       50
176
     1
 40
0.0
176
     1
 40
1.0
176
     1
 90
        0
176
     1
 62
    18
420
        0
176
     1
 90
       50
176
     1
 90
        3
176
     1
 62
     5
420
      255
176
     1
290
     0
176
     1
 90
       50
176
     1
 90
       50
176
     1
 90
       50
176
     1
290
     0
176
     1
 90
       50
176
     1
 62
   256
176
     0
 40
1.0
176
     0
 90
        2
176
     1
  1
strokes_ogs.tif
176
     1
290
     0
176
     1
 40
1.0
176
     1
 40
1.0
176
     1
1001
ACAD
1000
AcDbSavedByObjectVersion
1070
     0
  0
VISUALSTYLE
  5
32
102
{ACAD_REACTORS
330
29
102
}
330
29
100
AcDbVisualStyle
  2
Conceptual
 70
     9
177
     3
291
     0
 70
    58
 90
        3
176
     1
 90
        2
176
     1
 90
        0
176
     1
 90
        0
176
     1
 40
0.6
176
     1
 40
30.0
176
     1
 62
     7
420
 16777215
176
     1
 90
        2
176
     1
 90
        2
176
     1
 62
     7
176
     1
 62
   257
176
     1
 90
        1
176
     1
 90
        1
176
     1
 40
179.0
176
     1
 90
        8
176
     1
 62
     7
176
     1
 40
1.0
176
     1
 90
        1
176
     1
 90
        6
176
     1
 90
        2
176
     1
 62
     7
176
     1
 90
        3
176
     1
 90
        0
176
     1
 90
        0
176
     1
290
     0
176
     1
 90
        1
176
     1
 40
0.0
176
     1
 90
        0
176
     1
290
     0
176
     1
290
     1
176
     1
290
     1
176
     1
290
     0
176
     1
290
     0
176
     1
290
     0
176
     1
290
     0
176
     1
290
     0
176
     1
290
     0
176
     1
 90
       50
176
     1
 40
0.0
176
     1
 40
1.0
176
     1
 90
        0
176
     1
 62
    18
420
        0
176
     1
 90
       50
176
     1
 90
        3
176
     1
 62
     5
420
      255
176
     1
290
     0
176
     1
 90
       50
176
     1
 90
       50
176
     1
 90
       50
176
     1
290
     0
176
     1
 90
       50
176
     1
 62
   256
176
     0
 40
1.0
176
     0
 90
        2
176
     1
  1
strokes_ogs.tif
176
     1
290
     0
176
     1
 40
1.0
176
     1
 40
1.0
176
     1
1001
ACAD
1000
AcDbSavedByObjectVersion
1070
     0
  0
VISUALSTYLE
  5
34
102
{ACAD_REACTORS
330
29
102
}
330
29
100
AcDbVisualStyle
  2
Dim
 70
    11
177
     3
291
     1
 70
    58
 90
        2
176
     1
 90
        2
176
     1
 90
        0
176
     1
 90
        0
176
     1
 40
0.6
176
     1
 40
30.0
176
     1
 62
     7
420
 16777215
176
     1
 90
        1
176
     1
 90
        4
176
     1
 62
     7
176
     1
 62
   257
176
     1
 90
        1
176
     1
 90
        1
176
     1
 40
1.0
176
     1
 90
        8
176
     1
 62
     7
176
     1
 40
1.0
176
     1
 90
        1
176
     1
 90
        6
176
     1
 90
        2
176
     1
 62
     7
176
     1
 90
        5
176
     1
 90
        0
176
     1
 90
        0
176
     1
290
     0
176
     1
 90
        1
176
     1
 40
-50.0
176
     1
 90
        0
176
     1
290
     0
176
     1
290
     1
176
     1
290
     1
176
     1
290
     0
176
     1
290
     0
176
     1
290
     0
176
     1
290
     0
176
     1
290
     0
176
     1
290
     0
176
     1
 90
       50
176
     1
 40
0.0
176
     1
 40
1.0
176
     1
 90
        0
176
     1
 62
    18
420
        0
176
     1
 90
       50
176
     1
 90
        3
176
     1
 62
     5
420
      255
176
     1
290
     0
176
     1
 90
       50
176
     1
 90
       50
176
     1
 90
       50
176
     1
290
     0
176
     1
 90
       50
176
     1
 62
   256
176
     0
 40
1.0
176
     0
 90
        2
176
     1
  1
strokes_ogs.tif
176
     1
290
     0
176
     1
 40
1.0
176
     1
 40
1.0
176
     1
1001
ACAD
1000
AcDbSavedByObjectVersion
1070
     0
  0
VISUALSTYLE
  5
41
102
{ACAD_REACTORS
330
29
102
}
330
29
100
AcDbVisualStyle
  2
EdgeColorOff
 70
    22
177
     3
291
     1
 70
    58
 90
        2
176
     0
 90
        2
176
     0
 90
        0
176
     0
 90
        0
176
     0
 40
0.6
176
     0
 40
30.0
176
     0
 62
     7
420
 16777215
176
     0
 90
        1
176
     0
 90
        4
176
     0
 62
     7
176
     0
 62
   257
176
     0
 90
        1
176
     0
 90
        1
176
     0
 40
1.0
176
     0
 90
        8
176
     2
 62
     7
176
     0
 40
1.0
176
     0
 90
        1
176
     0
 90
        6
176
     0
 90
        2
176
     0
 62
     7
176
     0
 90
        5
176
     0
 90
        0
176
     0
 90
        0
176
     0
290
     0
176
     0
 90
        1
176
     0
 40
0.0
176
     0
 90
        0
176
     0
290
     0
176
     0
290
     1
176
     0
290
     1
176
     0
290
     0
176
     0
290
     0
176
     0
290
     0
176
     0
290
     0
176
     0
290
     0
176
     0
290
     0
176
     0
 90
       50
176
     0
 40
0.0
176
     0
 40
1.0
176
     0
 90
        0
176
     0
 62
    18
420
        0
176
     0
 90
       50
176
     0
 90
        3
176
     0
 62
     5
420
      255
176
     0
290
     0
176
     0
 90
       50
176
     0
 90
       50
176
     0
 90
       50
176
     0
290
     0
176
     0
 90
       50
176
     0
 62
   256
176
     0
 40
1.0
176
     0
 90
        2
176
     0
  1
strokes_ogs.tif
176
     0
290
     0
176
     0
 40
1.0
176
     0
 40
1.0
176
     0
1001
ACAD
1000
AcDbSavedByObjectVersion
1070
     0
  0
VISUALSTYLE
  5
38
102
{ACAD_REACTORS
330
29
102
}
330
29
100
AcDbVisualStyle
  2
Facepattern
 70
    15
177
     3
291
     1
 70
    58
 90
        2
176
     1
 90
        2
176
     1
 90
        0
176
     1
 90
        0
176
     1
 40
0.6
176
     1
 40
30.0
176
     1
 62
     7
420
 16777215
176
     1
 90
        1
176
     1
 90
        4
176
     1
 62
     7
176
     1
 62
   257
176
     1
 90
        1
176
     1
 90
        1
176
     1
 40
1.0
176
     1
 90
        8
176
     1
 62
     7
176
     1
 40
1.0
176
     1
 90
        1
176
     1
 90
        6
176
     1
 90
        2
176
     1
 62
     7
176
     1
 90
        5
176
     1
 90
        0
176
     1
 90
        0
176
     1
290
     0
176
     1
 90
        1
176
     1
 40
0.0
176
     1
 90
        0
176
     1
290
     0
176
     1
290
     1
176
     1
290
     1
176
     1
290
     0
176
     1
290
     0
176
     1
290
     0
176
     1
290
     0
176
     1
290
     0
176
     1
290
     0
176
     1
 90
       50
176
     1
 40
0.0
176
     1
 40
1.0
176
     1
 90
        0
176
     1
 62
    18
420
        0
176
     1
 90
       50
176
     1
 90
        3
176
     1
 62
     5
420
      255
176
     1
290
     0
176
     1
 90
       50
176
     1
 90
       50
176
     1
 90
       50
176
     1
290
     0
176
     1
 90
       50
176
     1
 62
   256
176
     0
 40
1.0
176
     0
 90
        2
176
     1
  1
strokes_ogs.tif
176
     1
290
     0
176
     1
 40
1.0
176
     1
 40
1.0
176
     1
1001
ACAD
1000
AcDbSavedByObjectVersion
1070
     0
  0
VISUALSTYLE
  5
2A
102
{ACAD_REACTORS
330
29
102
}
330
29
100
AcDbVisualStyle
  2
Flat
 70
     0
177
     3
291
     1
 70
    58
 90
        2
176
     1
 90
        1
176
     1
 90
        1
176
     1
 90
        2
176
     1
 40
0.6
176
     1
 40
30.0
176
     1
 62
     7
420
 16777215
176
     1
 90
        0
176
     1
 90
        0
176
     1
 62
     7
176
     1
 62
   257
176
     1
 90
        1
176
     1
 90
        1
176
     1
 40
1.0
176
     1
 90
        8
176
     1
 62
     7
176
     1
 40
1.0
176
     1
 90
        1
176
     1
 90
        6
176
     1
 90
        2
176
     1
 62
     7
176
     1
 90
        5
176
     1
 90
        0
176
     1
 90
        0
176
     1
290
     0
176
     1
 90
       13
176
     1
 40
0.0
176
     1
 90
        0
176
     1
290
     0
176
     1
290
     1
176
     1
290
     1
176
     1
290
     0
176
     1
290
     0
176
     1
290
     0
176
     1
290
     0
176
     1
290
     0
176
     1
290
     0
176
     1
 90
       50
176
     1
 40
0.0
176
     1
 40
1.0
176
     1
 90
        0
176
     1
 62
    18
420
        0
176
     1
 90
       50
176
     1
 90
        3
176
     1
 62
     5
420
      255
176
     1
290
     0
176
     1
 90
       50
176
     1
 90
       50
176
     1
 90
       50
176
     1
290
     0
176
     1
 90
       50
176
     1
 62
   256
176
     0
 40
1.0
176
     0
 90
        2
176
     1
  1
strokes_ogs.tif
176
     1
290
     0
176
     1
 40
1.0
176
     1
 40
1.0
176
     1
1001
ACAD
1000
AcDbSavedByObjectVersion
1070
     0
  0
VISUALSTYLE
  5
2B
102
{ACAD_REACTORS
330
29
102
}
330
29
100
AcDbVisualStyle
  2
FlatWithEdges
 70
     1
177
     3
291
     1
 70
    58
 90
        2
176
     1
 90
        1
176
     1
 90
        1
176
     1
 90
        2
176
     1
 40
0.6
176
     1
 40
30.0
176
     1
 62
     7
420
 16777215
176
     1
 90
        1
176
     1
 90
        0
176
     1
 62
     7
176
     1
 62
   257
176
     1
 90
        1
176
     1
 90
        1
176
     1
 40
1.0
176
     1
 90
        0
176
     1
 62
   257
176
     1
 40
1.0
176
     1
 90
        1
176
     1
 90
        6
176
     1
 90
        2
176
     1
 62
     7
176
     1
 90
        5
176
     1
 90
        0
176
     1
 90
        0
176
     1
290
     0
176
     1
 90
       13
176
     1
 40
0.0
176
     1
 90
        0
176
     1
290
     0
176
     1
290
     1
176
     1
290
     1
176
     1
290
     0
176
     1
290
     0
176
     1
290
     0
176
     1
290
     0
176
     1
290
     0
176
     1
290
     0
176
     1
 90
       50
176
     1
 40
0.0
176
     1
 40
1.0
176
     1
 90
        0
176
     1
 62
    18
420
        0
176
     1
 90
       50
176
     1
 90
        3
176
     1
 62
     5
420
      255
176
     1
290
     0
176
     1
 90
       50
176
     1
 90
       50
176
     1
 90
       50
176
     1
290
     0
176
     1
 90
       50
176
     1
 62
   256
176
     0
 40
1.0
176
     0
 90
        2
176
     1
  1
strokes_ogs.tif
176
     1
290
     0
176
     1
 40
1.0
176
     1
 40
1.0
176
     1
1001
ACAD
1000
AcDbSavedByObjectVersion
1070
     0
  0
VISUALSTYLE
  5
2C
102
{ACAD_REACTORS
330
29
102
}
330
29
100
AcDbVisualStyle
  2
Gouraud
 70
     2
177
     3
291
     1
 70
    58
 90
        2
176
     1
 90
        2
176
     1
 90
        1
176
     1
 90
        2
176
     1
 40
0.6
176
     1
 40
30.0
176
     1
 62
     7
420
 16777215
176
     1
 90
        0
176
     1
 90
        0
176
     1
 62
     7
176
     1
 62
   257
176
     1
 90
        1
176
     1
 90
        1
176
     1
 40
1.0
176
     1
 90
        0
176
     1
 62
     7
176
     1
 40
1.0
176
     1
 90
        1
176
     1
 90
        6
176
     1
 90
        2
176
     1
 62
     7
176
     1
 90
        5
176
     1
 90
        0
176
     1
 90
        0
176
     1
290
     0
176
     1
 90
       13
176
     1
 40
0.0
176
     1
 90
        0
176
     1
290
     0
176
     1
290
     1
176
     1
290
     1
176
     1
290
     0
176
     1
290
     0
176
     1
290
     0
176
     1
290
     0
176
     1
290
     0
176
     1
290
     0
176
     1
 90
       50
176
     1
 40
0.0
176
     1
 40
1.0
176
     1
 90
        0
176
     1
 62
    18
420
        0
176
     1
 90
       50
176
     1
 90
        3
176
     1
 62
     5
420
      255
176
     1
290
     0
176
     1
 90
       50
176
     1
 90
       50
176
     1
 90
       50
176
     1
290
     0
176
     1
 90
       50
176
     1
 62
   256
176
     0
 40
1.0
176
     0
 90
        2
176
     1
  1
strokes_ogs.tif
176
     1
290
     0
176
     1
 40
1.0
176
     1
 40
1.0
176
     1
1001
ACAD
1000
AcDbSavedByObjectVersion
1070
     0
  0
VISUALSTYLE
  5
2D
102
{ACAD_REACTORS
330
29
102
}
330
29
100
AcDbVisualStyle
  2
GouraudWithEdges
 70
     3
177
     3
291
     1
 70
    58
 90
        2
176
     1
 90
        2
176
     1
 90
        1
176
     1
 90
        2
176
     1
 40
0.6
176
     1
 40
30.0
176
     1
 62
     7
420
 16777215
176
     1
 90
        1
176
     1
 90
        0
176
     1
 62
     7
176
     1
 62
   257
176
     1
 90
        1
176
     1
 90
        1
176
     1
 40
1.0
176
     1
 90
        0
176
     1
 62
   257
176
     1
 40
1.0
176
     1
 90
        1
176
     1
 90
        6
176
     1
 90
        2
176
     1
 62
     7
176
     1
 90
        5
176
     1
 90
        0
176
     1
 90
        0
176
     1
290
     0
176
     1
 90
       13
176
     1
 40
0.0
176
     1
 90
        0
176
     1
290
     0
176
     1
290
     1
176
     1
290
     1
176
     1
290
     0
176
     1
290
     0
176
     1
290
     0
176
     1
290
     0
176
     1
290
     0
176
     1
290
     0
176
     1
 90
       50
176
     1
 40
0.0
176
     1
 40
1.0
176
     1
 90
        0
176
     1
 62
    18
420
        0
176
     1
 90
       50
176
     1
 90
        3
176
     1
 62
     5
420
      255
176
     1
290
     0
176
     1
 90
       50
176
     1
 90
       50
176
     1
 90
       50
176
     1
290
     0
176
     1
 90
       50
176
     1
 62
   256
176
     0
 40
1.0
176
     0
 90
        2
176
     1
  1
strokes_ogs.tif
176
     1
290
     0
176
     1
 40
1.0
176
     1
 40
1.0
176
     1
1001
ACAD
1000
AcDbSavedByObjectVersion
1070
     0
  0
VISUALSTYLE
  5
31
102
{ACAD_REACTORS
330
29
102
}
330
29
100
AcDbVisualStyle
  2
Hidden
 70
     6
177
     3
291
     0
 70
    58
 90
        1
176
     1
 90
        2
176
     1
 90
        2
176
     1
 90
        0
176
     1
 40
0.6
176
     1
 40
30.0
176
     1
 62
     7
420
 16777215
176
     1
 90
        2
176
     1
 90
        2
176
     1
 62
     7
176
     1
 62
   257
176
     1
 90
        2
176
     1
 90
        1
176
     1
 40
40.0
176
     1
 90
        0
176
     1
 62
   257
176
     1
 40
1.0
176
     1
 90
        1
176
     1
 90
        6
176
     1
 90
        2
176
     1
 62
     7
176
     1
 90
        3
176
     1
 90
        0
176
     1
 90
        0
176
     1
290
     0
176
     1
 90
        1
176
     1
 40
0.0
176
     1
 90
        0
176
     1
290
     0
176
     1
290
     1
176
     1
290
     1
176
     1
290
     0
176
     1
290
     0
176
     1
290
     0
176
     1
290
     0
176
     1
290
     0
176
     1
290
     0
176
     1
 90
       50
176
     1
 40
0.0
176
     1
 40
1.0
176
     1
 90
        0
176
     1
 62
    18
420
        0
176
     1
 90
       50
176
     1
 90
        3
176
     1
 62
     5
420
      255
176
     1
290
     0
176
     1
 90
       50
176
     1
 90
       50
176
     1
 90
       50
176
     1
290
     0
176
     1
 90
       50
176
     1
 62
   256
176
     0
 40
1.0
176
     0
 90
        2
176
     1
  1
strokes_ogs.tif
176
     1
290
     0
176
     1
 40
1.0
176
     1
 40
1.0
176
     1
1001
ACAD
1000
AcDbSavedByObjectVersion
1070
     0
  0
VISUALSTYLE
  5
3F
102
{ACAD_REACTORS
330
29
102
}
330
29
100
AcDbVisualStyle
  2
JitterOff
 70
    20
177
     3
291
     1
 70
    58
 90
        2
176
     0
 90
        2
176
     0
 90
        0
176
     0
 90
        0
176
     0
 40
0.6
176
     0
 40
30.0
176
     0
 62
     7
420
 16777215
176
     0
 90
        1
176
     0
 90
        4
176
     0
 62
     7
176
     0
 62
   257
176
     0
 90
        1
176
     0
 90
        1
176
     0
 40
1.0
176
     0
 90
       10
176
     2
 62
     7
176
     0
 40
1.0
176
     0
 90
        1
176
     0
 90
        6
176
     0
 90
        2
176
     0
 62
     7
176
     0
 90
        5
176
     0
 90
        0
176
     0
 90
        0
176
     0
290
     0
176
     0
 90
        1
176
     0
 40
0.0
176
     0
 90
        0
176
     0
290
     0
176
     0
290
     1
176
     0
290
     1
176
     0
290
     0
176
     0
290
     0
176
     0
290
     0
176
     0
290
     0
176
     0
290
     0
176
     0
290
     0
176
     0
 90
       50
176
     0
 40
0.0
176
     0
 40
1.0
176
     0
 90
        0
176
     0
 62
    18
420
        0
176
     0
 90
       50
176
     0
 90
        3
176
     0
 62
     5
420
      255
176
     0
290
     0
176
     0
 90
       50
176
     0
 90
       50
176
     0
 90
       50
176
     0
290
     0
176
     0
 90
       50
176
     0
 62
   256
176
     0
 40
1.0
176
     0
 90
        2
176
     0
  1
strokes_ogs.tif
176
     0
290
     0
176
     0
 40
1.0
176
     0
 40
1.0
176
     0
1001
ACAD
1000
AcDbSavedByObjectVersion
1070
     0
  0
VISUALSTYLE
  5
37
102
{ACAD_REACTORS
330
29
102
}
330
29
100
AcDbVisualStyle
  2
Linepattern
 70
    14
177
     3
291
     1
 70
    58
 90
        2
176
     1
 90
        2
176
     1
 90
        0
176
     1
 90
        0
176
     1
 40
0.6
176
     1
 40
30.0
176
     1
 62
     7
420
 16777215
176
     1
 90
        1
176
     1
 90
        4
176
     1
 62
     7
176
     1
 62
   257
176
     1
 90
        7
176
     1
 90
        7
176
     1
 40
1.0
176
     1
 90
        8
176
     1
 62
     7
176
     1
 40
1.0
176
     1
 90
        1
176
     1
 90
        6
176
     1
 90
        2
176
     1
 62
     7
176
     1
 90
        5
176
     1
 90
        0
176
     1
 90
        0
176
     1
290
     0
176
     1
 90
        1
176
     1
 40
0.0
176
     1
 90
        0
176
     1
290
     0
176
     1
290
     1
176
     1
290
     1
176
     1
290
     0
176
     1
290
     0
176
     1
290
     0
176
     1
290
     0
176
     1
290
     0
176
     1
290
     0
176
     1
 90
       50
176
     1
 40
0.0
176
     1
 40
1.0
176
     1
 90
        0
176
     1
 62
    18
420
        0
176
     1
 90
       50
176
     1
 90
        3
176
     1
 62
     5
420
      255
176
     1
290
     0
176
     1
 90
       50
176
     1
 90
       50
176
     1
 90
       50
176
     1
290
     0
176
     1
 90
       50
176
     1
 62
   256
176
     0
 40
1.0
176
     0
 90
        2
176
     1
  1
strokes_ogs.tif
176
     1
290
     0
176
     1
 40
1.0
176
     1
 40
1.0
176
     1
1001
ACAD
1000
AcDbSavedByObjectVersion
1070
     0
  0
VISUALSTYLE
  5
40
102
{ACAD_REACTORS
330
29
102
}
330
29
100
AcDbVisualStyle
  2
OverhangOff
 70
    21
177
     3
291
     1
 70
    58
 90
        2
176
     0
 90
        2
176
     0
 90
        0
176
     0
 90
        0
176
     0
 40
0.6
176
     0
 40
30.0
176
     0
 62
     7
420
 16777215
176
     0
 90
        1
176
     0
 90
        4
176
     0
 62
     7
176
     0
 62
   257
176
     0
 90
        1
176
     0
 90
        1
176
     0
 40
1.0
176
     0
 90
        9
176
     2
 62
     7
176
     0
 40
1.0
176
     0
 90
        1
176
     0
 90
        6
176
     0
 90
        2
176
     0
 62
     7
176
     0
 90
        5
176
     0
 90
        0
176
     0
 90
        0
176
     0
290
     0
176
     0
 90
        1
176
     0
 40
0.0
176
     0
 90
        0
176
     0
290
     0
176
     0
290
     1
176
     0
290
     1
176
     0
290
     0
176
     0
290
     0
176
     0
290
     0
176
     0
290
     0
176
     0
290
     0
176
     0
290
     0
176
     0
 90
       50
176
     0
 40
0.0
176
     0
 40
1.0
176
     0
 90
        0
176
     0
 62
    18
420
        0
176
     0
 90
       50
176
     0
 90
        3
176
     0
 62
     5
420
      255
176
     0
290
     0
176
     0
 90
       50
176
     0
 90
       50
176
     0
 90
       50
176
     0
290
     0
176
     0
 90
       50
176
     0
 62
   256
176
     0
 40
1.0
176
     0
 90
        2
176
     0
  1
strokes_ogs.tif
176
     0
290
     0
176
     0
 40
1.0
176
     0
 40
1.0
176
     0
1001
ACAD
1000
AcDbSavedByObjectVersion
1070
     0
  0
VISUALSTYLE
  5
33
102
{ACAD_REACTORS
330
29
102
}
330
29
100
AcDbVisualStyle
  2
Realistic
 70
     8
177
     3
291
     0
 70
    58
 90
        2
176
     1
 90
        3
176
     1
 90
        0
176
     1
 90
        2
176
     1
 40
0.6
176
     1
 40
30.0
176
     1
 62
     7
420
 16777215
176
     1
 90
        0
176
     1
 90
        0
176
     1
 62
     7
176
     1
 62
   257
176
     1
 90
        1
176
     1
 90
        1
176
     1
 40
1.0
176
     1
 90
        8
176
     1
 62
   257
176
     1
 40
1.0
176
     1
 90
        1
176
     1
 90
        6
176
     1
 90
        2
176
     1
 62
     7
176
     1
 90
        3
176
     1
 90
        0
176
     1
 90
        0
176
     1
290
     0
176
     1
 90
       13
176
     1
 40
0.0
176
     1
 90
        0
176
     1
290
     0
176
     1
290
     1
176
     1
290
     1
176
     1
290
     0
176
     1
290
     0
176
     1
290
     0
176
     1
290
     0
176
     1
290
     0
176
     1
290
     0
176
     1
 90
       50
176
     1
 40
0.0
176
     1
 40
1.0
176
     1
 90
        0
176
     1
 62
    18
420
        0
176
     1
 90
       50
176
     1
 90
        3
176
     1
 62
     5
420
      255
176
     1
290
     0
176
     1
 90
       50
176
     1
 90
       50
176
     1
 90
       50
176
     1
290
     0
176
     1
 90
       50
176
     1
 62
   256
176
     0
 40
1.0
176
     0
 90
        2
176
     1
  1
strokes_ogs.tif
176
     1
290
     0
176
     1
 40
1.0
176
     1
 40
1.0
176
     1
1001
ACAD
1000
AcDbSavedByObjectVersion
1070
     0
  0
VISUALSTYLE
  5
3E
102
{ACAD_REACTORS
330
29
102
}
330
29
100
AcDbVisualStyle
  2
Shaded
 70
    27
177
     3
291
     0
 70
    58
 90
        2
176
     1
 90
        2
176
     1
 90
        1
176
     1
 90
        2
176
     1
 40
0.6
176
     1
 40
30.0
176
     1
 62
     7
420
 16777215
176
     1
 90
        0
176
     1
 90
        4
176
     1
 62
     7
176
     1
 62
   257
176
     1
 90
        1
176
     1
 90
        1
176
     1
 40
1.0
176
     1
 90
        8
176
     1
 62
   257
176
     1
 40
1.0
176
     1
 90
        1
176
     1
 90
        6
176
     1
 90
        2
176
     1
 62
     8
420
  7895160
176
     1
 90
        3
176
     1
 90
        0
176
     1
 90
        0
176
     1
290
     0
176
     1
 90
        5
176
     1
 40
0.0
176
     1
 90
        0
176
     1
290
     0
176
     1
290
     1
176
     1
290
     1
176
     1
290
     0
176
     1
290
     0
176
     1
290
     0
176
     1
290
     0
176
     1
290
     0
176
     1
290
     0
176
     1
 90
       50
176
     1
 40
0.0
176
     1
 40
1.0
176
     1
 90
        0
176
     1
 62
    18
420
        0
176
     1
 90
       50
176
     1
 90
        3
176
     1
 62
     5
420
      255
176
     1
290
     0
176
     1
 90
       50
176
     1
 90
       50
176
     1
 90
       50
176
     1
290
     0
176
     1
 90
       50
176
     1
 62
   256
176
     0
 40
1.0
176
     0
 90
        2
176
     1
  1
strokes_ogs.tif
176
     1
290
     0
176
     1
 40
1.0
176
     1
 40
1.0
176
     1
1001
ACAD
1000
AcDbSavedByObjectVersion
1070
     0
  0
VISUALSTYLE
  5
3D
102
{ACAD_REACTORS
330
29
102
}
330
29
100
AcDbVisualStyle
  2
Shaded with edges
 70
    26
177
     3
291
     0
 70
    58
 90
        2
176
     1
 90
        2
176
     1
 90
        1
176
     1
 90
        2
176
     1
 40
0.6
176
     1
 40
30.0
176
     1
 62
     7
420
 16777215
176
     1
 90
        1
176
     1
 90
        2
176
     1
 62
     7
176
     1
 62
   257
176
     1
 90
        2
176
     1
 90
        1
176
     1
 40
1.0
176
     1
 90
        8
176
     1
 62
   257
176
     1
 40
1.0
176
     1
 90
        1
176
     1
 90
        6
176
     1
 90
        2
176
     1
 62
     7
176
     1
 90
        3
176
     1
 90
        0
176
     1
 90
        0
176
     1
290
     0
176
     1
 90
        5
176
     1
 40
0.0
176
     1
 90
        0
176
     1
290
     0
176
     1
290
     1
176
     1
290
     1
176
     1
290
     0
176
     1
290
     0
176
     1
290
     0
176
     1
290
     0
176
     1
290
     0
176
     1
290
     0
176
     1
 90
       50
176
     1
 40
0.0
176
     1
 40
1.0
176
     1
 90
        0
176
     1
 62
    18
420
        0
176
     1
 90
       50
176
     1
 90
        3
176
     1
 62
     5
420
      255
176
     1
290
     0
176
     1
 90
       50
176
     1
 90
       50
176
     1
 90
       50
176
     1
290
     0
176
     1
 90
       50
176
     1
 62
   256
176
     0
 40
1.0
176
     0
 90
        2
176
     1
  1
strokes_ogs.tif
176
     1
290
     0
176
     1
 40
1.0
176
     1
 40
1.0
176
     1
1001
ACAD
1000
AcDbSavedByObjectVersion
1070
     0
  0
VISUALSTYLE
  5
3A
102
{ACAD_REACTORS
330
29
102
}
330
29
100
AcDbVisualStyle
  2
Shades of Gray
 70
    23
177
     3
291
     0
 70
    58
 90
        2
176
     1
 90
        2
176
     1
 90
        3
176
     1
 90
        0
176
     1
 40
0.6
176
     1
 40
30.0
176
     1
 62
     7
420
 16777215
176
     1
 90
        2
176
     1
 90
        2
176
     1
 62
     7
176
     1
 62
     7
176
     1
 90
        1
176
     1
 90
        1
176
     1
 40
40.0
176
     1
 90
        8
176
     1
 62
     7
176
     1
 40
1.0
176
     1
 90
        1
176
     1
 90
        6
176
     1
 90
        2
176
     1
 62
     7
176
     1
 90
        3
176
     1
 90
        0
176
     1
 90
        0
176
     1
290
     0
176
     1
 90
        1
176
     1
 40
0.0
176
     1
 90
        0
176
     1
290
     0
176
     1
290
     1
176
     1
290
     1
176
     1
290
     0
176
     1
290
     0
176
     1
290
     0
176
     1
290
     0
176
     1
290
     0
176
     1
290
     0
176
     1
 90
       50
176
     1
 40
0.0
176
     1
 40
1.0
176
     1
 90
        0
176
     1
 62
    18
420
        0
176
     1
 90
       50
176
     1
 90
        3
176
     1
 62
     5
420
      255
176
     1
290
     0
176
     1
 90
       50
176
     1
 90
       50
176
     1
 90
       50
176
     1
290
     0
176
     1
 90
       50
176
     1
 62
   256
176
     0
 40
1.0
176
     0
 90
        2
176
     1
  1
strokes_ogs.tif
176
     1
290
     0
176
     1
 40
1.0
176
     1
 40
1.0
176
     1
1001
ACAD
1000
AcDbSavedByObjectVersion
1070
     0
  0
VISUALSTYLE
  5
3B
102
{ACAD_REACTORS
330
29
102
}
330
29
100
AcDbVisualStyle
  2
Sketchy
 70
    24
177
     3
291
     0
 70
    58
 90
        1
176
     1
 90
        2
176
     1
 90
        2
176
     1
 90
        0
176
     1
 40
0.6
176
     1
 40
30.0
176
     1
 62
     7
420
 16777215
176
     1
 90
        2
176
     1
 90
        2
176
     1
 62
     7
176
     1
 62
     7
176
     1
 90
        1
176
     1
 90
        1
176
     1
 40
40.0
176
     1
 90
       11
176
     1
 62
     7
176
     1
 40
1.0
176
     1
 90
        1
176
     1
 90
        6
176
     1
 90
        2
176
     1
 62
     7
176
     1
 90
        6
176
     1
 90
        0
176
     1
 90
        0
176
     1
290
     0
176
     1
 90
        1
176
     1
 40
0.0
176
     1
 90
        0
176
     1
290
     0
176
     1
290
     1
176
     1
290
     1
176
     1
290
     0
176
     1
290
     0
176
     1
290
     0
176
     1
290
     0
176
     1
290
     0
176
     1
290
     0
176
     1
 90
       50
176
     1
 40
0.0
176
     1
 40
1.0
176
     1
 90
        0
176
     1
 62
    18
420
        0
176
     1
 90
       50
176
     1
 90
        3
176
     1
 62
     5
420
      255
176
     1
290
     0
176
     1
 90
       50
176
     1
 90
       50
176
     1
 90
       50
176
     1
290
     0
176
     1
 90
       50
176
     1
 62
   256
176
     0
 40
1.0
176
     0
 90
        2
176
     1
  1
strokes_ogs.tif
176
     1
290
     0
176
     1
 40
1.0
176
     1
 40
1.0
176
     1
1001
ACAD
1000
AcDbSavedByObjectVersion
1070
     0
  0
VISUALSTYLE
  5
36
102
{ACAD_REACTORS
330
29
102
}
330
29
100
AcDbVisualStyle
  2
Thicken
 70
    13
177
     3
291
     1
 70
    58
 90
        2
176
     1
 90
        2
176
     1
 90
        0
176
     1
 90
        0
176
     1
 40
0.6
176
     1
 40
30.0
176
     1
 62
     7
420
 16777215
176
     1
 90
        1
176
     1
 90
        4
176
     1
 62
     7
176
     1
 62
   257
176
     1
 90
        1
176
     1
 90
        1
176
     1
 40
1.0
176
     1
 90
       12
176
     1
 62
     7
176
     1
 40
1.0
176
     1
 90
        1
176
     1
 90
        6
176
     1
 90
        2
176
     1
 62
     7
176
     1
 90
        5
176
     1
 90
        0
176
     1
 90
        0
176
     1
290
     0
176
     1
 90
        1
176
     1
 40
0.0
176
     1
 90
        0
176
     1
290
     0
176
     1
290
     1
176
     1
290
     1
176
     1
290
     0
176
     1
290
     0
176
     1
290
     0
176
     1
290
     0
176
     1
290
     0
176
     1
290
     0
176
     1
 90
       50
176
     1
 40
0.0
176
     1
 40
1.0
176
     1
 90
        0
176
     1
 62
    18
420
        0
176
     1
 90
       50
176
     1
 90
        3
176
     1
 62
     5
420
      255
176
     1
290
     0
176
     1
 90
       50
176
     1
 90
       50
176
     1
 90
       50
176
     1
290
     0
176
     1
 90
       50
176
     1
 62
   256
176
     0
 40
1.0
176
     0
 90
        2
176
     1
  1
strokes_ogs.tif
176
     1
290
     0
176
     1
 40
1.0
176
     1
 40
1.0
176
     1
1001
ACAD
1000
AcDbSavedByObjectVersion
1070
     0
  0
VISUALSTYLE
  5
30
102
{ACAD_REACTORS
330
29
102
}
330
29
100
AcDbVisualStyle
  2
Wireframe
 70
     5
177
     3
291
     0
 70
    58
 90
        0
176
     1
 90
        2
176
     1
 90
        0
176
     1
 90
        0
176
     1
 40
0.6
176
     1
 40
30.0
176
     1
 62
     7
420
 16777215
176
     1
 90
        1
176
     1
 90
        4
176
     1
 62
     7
176
     1
 62
   257
176
     1
 90
        1
176
     1
 90
        1
176
     1
 40
1.0
176
     1
 90
        0
176
     1
 62
   257
176
     1
 40
1.0
176
     1
 90
        1
176
     1
 90
        6
176
     1
 90
        2
176
     1
 62
     7
176
     1
 90
        3
176
     1
 90
        0
176
     1
 90
        0
176
     1
290
     0
176
     1
 90
        1
176
     1
 40
0.0
176
     1
 90
        0
176
     1
290
     0
176
     1
290
     1
176
     1
290
     1
176
     1
290
     0
176
     1
290
     0
176
     1
290
     0
176
     1
290
     0
176
     1
290
     0
176
     1
290
     0
176
     1
 90
       50
176
     1
 40
0.0
176
     1
 40
1.0
176
     1
 90
        0
176
     1
 62
    18
420
        0
176
     1
 90
       50
176
     1
 90
        3
176
     1
 62
     5
420
      255
176
     1
290
     0
176
     1
 90
       50
176
     1
 90
       50
176
     1
 90
       50
176
     1
290
     0
176
     1
 90
       50
176
     1
 62
   256
176
     0
 40
1.0
176
     0
 90
        2
176
     1
  1
strokes_ogs.tif
176
     1
290
     0
176
     1
 40
1.0
176
     1
 40
1.0
176
     1
1001
ACAD
1000
AcDbSavedByObjectVersion
1070
     0
  0
VISUALSTYLE
  5
3C
102
{ACAD_REACTORS
330
29
102
}
330
29
100
AcDbVisualStyle
  2
X-Ray
 70
    25
177
     3
291
     0
 70
    58
 90
        2
176
     1
 90
        2
176
     1
 90
        1
176
     1
 90
        1
176
     1
 40
0.5
176
     1
 40
30.0
176
     1
 62
     7
420
 16777215
176
     1
 90
        1
176
     1
 90
        0
176
     1
 62
     7
176
     1
 62
   257
176
     1
 90
        1
176
     1
 90
        1
176
     1
 40
1.0
176
     1
 90
        8
176
     1
 62
     7
176
     1
 40
1.0
176
     1
 90
        1
176
     1
 90
        6
176
     1
 90
        2
176
     1
 62
     7
176
     1
 90
        3
176
     1
 90
        0
176
     1
 90
        0
176
     1
290
     0
176
     1
 90
       13
176
     1
 40
0.0
176
     1
 90
        0
176
     1
290
     0
176
     1
290
     1
176
     1
290
     1
176
     1
290
     0
176
     1
290
     0
176
     1
290
     0
176
     1
290
     0
176
     1
290
     0
176
     1
290
     0
176
     1
 90
       50
176
     1
 40
0.0
176
     1
 40
1.0
176
     1
 90
        0
176
     1
 62
    18
420
        0
176
     1
 90
       50
176
     1
 90
        3
176
     1
 62
     5
420
      255
176
     1
290
     0
176
     1
 90
       50
176
     1
 90
       50
176
     1
 90
       50
176
     1
290
     0
176
     1
 90
       50
176
     1
 62
   256
176
     0
 40
1.0
176
     0
 90
        2
176
     1
  1
strokes_ogs.tif
176
     1
290
     0
176
     1
 40
1.0
176
     1
 40
1.0
176
     1
1001
ACAD
1000
AcDbSavedByObjectVersion
1070
     0
  0
DICTIONARYVAR
  5
448
102
{ACAD_REACTORS
330
443
102
}
330
443
100
DictionaryVariables
280
     0
  1
0
  0
DICTIONARYVAR
  5
449
102
{ACAD_REACTORS
330
443
102
}
330
443
100
DictionaryVariables
280
     0
  1
1:1
  0
DICTIONARYVAR
  5
445
102
{ACAD_REACTORS
330
443
102
}
330
443
100
DictionaryVariables
280
     0
  1
STANDARD
  0
DICTIONARYVAR
  5
444
102
{ACAD_REACTORS
330
443
102
}
330
443
100
DictionaryVariables
280
     0
  1
STANDARD
  0
DICTIONARYVAR
  5
446
102
{ACAD_REACTORS
330
443
102
}
330
443
100
DictionaryVariables
280
     0
  1
Imperial24
  0
DICTIONARYVAR
  5
447
102
{ACAD_REACTORS
330
443
102
}
330
443
100
DictionaryVariables
280
     0
  1
Imperial24
  0
DICTIONARY
  5
44F
330
6B
100
AcDbDictionary
280
     1
281
     1
  3
ACAD_XREC_ROUNDTRIP
360
450
  0
DICTIONARY
  5
1A
330
19
100
AcDbDictionary
280
     1
281
     1
  3
BUMPTILE
360
1C
  3
DIFFUSETILE
360
1B
  3
OPACITYTILE
360
1F
  3
REFLECTIONTILE
360
1E
  3
REFRACTIONTILE
360
20
  3
SPECULARTILE
360
1D
  0
DICTIONARY
  5
12
330
11
100
AcDbDictionary
280
     1
281
     1
  3
BUMPTILE
360
14
  3
DIFFUSETILE
360
13
  3
OPACITYTILE
360
17
  3
REFLECTIONTILE
360
16
  3
REFRACTIONTILE
360
18
  3
SPECULARTILE
360
15
  0
DICTIONARY
  5
22
330
21
100
AcDbDictionary
280
     1
281
     1
  3
BUMPTILE
360
24
  3
DIFFUSETILE
360
23
  3
OPACITYTILE
360
27
  3
REFLECTIONTILE
360
26
  3
REFRACTIONTILE
360
28
  3
SPECULARTILE
360
25
  0
DICTIONARY
  5
44D
330
69
100
AcDbDictionary
280
     1
281
     1
  3
ACAD_XREC_ROUNDTRIP
360
44E
  0
DICTIONARY
  5
44A
330
65
100
AcDbDictionary
280
     1
281
     1
  3
ACAD_ROUNDTRIP_2008_TABLESTYLE_CELLSTYLEMAP
360
44B
  0
XRECORD
  5
450
102
{ACAD_REACTORS
330
44F
102
}
330
44F
100
AcDbXrecord
280
     1
102
DISPLAYNAME
  1
Imperial24
102
FLAGS
 90
        0
  0
XRECORD
  5
1C
102
{ACAD_REACTORS
330
1A
102
}
330
1A
100
AcDbXrecord
280
     1
270
     1
271
     1
  0
XRECORD
  5
1B
102
{ACAD_REACTORS
330
1A
102
}
330
1A
100
AcDbXrecord
280
     1
270
     1
271
     1
  0
XRECORD
  5
1F
102
{ACAD_REACTORS
330
1A
102
}
330
1A
100
AcDbXrecord
280
     1
270
     1
271
     1
  0
XRECORD
  5
1E
102
{ACAD_REACTORS
330
1A
102
}
330
1A
100
AcDbXrecord
280
     1
270
     1
271
     1
  0
XRECORD
  5
20
102
{ACAD_REACTORS
330
1A
102
}
330
1A
100
AcDbXrecord
280
     1
270
     1
271
     1
  0
XRECORD
  5
1D
102
{ACAD_REACTORS
330
1A
102
}
330
1A
100
AcDbXrecord
280
     1
270
     1
271
     1
  0
XRECORD
  5
14
102
{ACAD_REACTORS
330
12
102
}
330
12
100
AcDbXrecord
280
     1
270
     1
271
     1
  0
XRECORD
  5
13
102
{ACAD_REACTORS
330
12
102
}
330
12
100
AcDbXrecord
280
     1
270
     1
271
     1
  0
XRECORD
  5
17
102
{ACAD_REACTORS
330
12
102
}
330
12
100
AcDbXrecord
280
     1
270
     1
271
     1
  0
XRECORD
  5
16
102
{ACAD_REACTORS
330
12
102
}
330
12
100
AcDbXrecord
280
     1
270
     1
271
     1
  0
XRECORD
  5
18
102
{ACAD_REACTORS
330
12
102
}
330
12
100
AcDbXrecord
280
     1
270
     1
271
     1
  0
XRECORD
  5
15
102
{ACAD_REACTORS
330
12
102
}
330
12
100
AcDbXrecord
280
     1
270
     1
271
     1
  0
XRECORD
  5
24
102
{ACAD_REACTORS
330
22
102
}
330
22
100
AcDbXrecord
280
     1
270
     1
271
     1
  0
XRECORD
  5
23
102
{ACAD_REACTORS
330
22
102
}
330
22
100
AcDbXrecord
280
     1
270
     1
271
     1
  0
XRECORD
  5
27
102
{ACAD_REACTORS
330
22
102
}
330
22
100
AcDbXrecord
280
     1
270
     1
271
     1
  0
XRECORD
  5
26
102
{ACAD_REACTORS
330
22
102
}
330
22
100
AcDbXrecord
280
     1
270
     1
271
     1
  0
XRECORD
  5
28
102
{ACAD_REACTORS
330
22
102
}
330
22
100
AcDbXrecord
280
     1
270
     1
271
     1
  0
XRECORD
  5
25
102
{ACAD_REACTORS
330
22
102
}
330
22
100
AcDbXrecord
280
     1
270
     1
271
     1
  0
XRECORD
  5
44E
102
{ACAD_REACTORS
330
44D
102
}
330
44D
100
AcDbXrecord
280
     1
102
DISPLAYNAME
  1
Imperial24
102
FLAGS
 90
        0
  0
CELLSTYLEMAP
  5
44B
102
{ACAD_REACTORS
330
44A
102
}
330
44A
100
AcDbCellStyleMap
 90
        3
300
CELLSTYLE
  1
TABLEFORMAT_BEGIN
 90
        5
170
     1
 91
        0
 92
    32768
 62
   257
 93
        1
300
CONTENTFORMAT
  1
CONTENTFORMAT_BEGIN
 90
        0
 91
        0
 92
      512
 93
        0
300

 40
0.0
140
1.0
 94
        5
 62
     0
340
55
144
0.25
309
CONTENTFORMAT_END
171
     1
301
MARGIN
  1
CELLMARGIN_BEGIN
 40
1.5
 40
1.5
 40
1.5
 40
1.5
 40
0.18
 40
0.18
309
CELLMARGIN_END
 94
        0
309
TABLEFORMAT_END
  1
CELLSTYLE_BEGIN
 90
        1
 91
        1
300
_TITLE
309
CELLSTYLE_END
300
CELLSTYLE
  1
TABLEFORMAT_BEGIN
 90
        5
170
     1
 91
        0
 92
        0
 62
   257
 93
        1
300
CONTENTFORMAT
  1
CONTENTFORMAT_BEGIN
 90
        0
 91
        0
 92
      512
 93
        0
300

 40
0.0
140
1.0
 94
        5
 62
     0
340
55
144
0.18
309
CONTENTFORMAT_END
171
     1
301
MARGIN
  1
CELLMARGIN_BEGIN
 40
1.5
 40
1.5
 40
1.5
 40
1.5
 40
0.18
 40
0.18
309
CELLMARGIN_END
 94
        0
309
TABLEFORMAT_END
  1
CELLSTYLE_BEGIN
 90
        2
 91
        1
300
_HEADER
309
CELLSTYLE_END
300
CELLSTYLE
  1
TABLEFORMAT_BEGIN
 90
        5
170
     1
 91
        0
 92
        0
 62
   257
 93
        1
300
CONTENTFORMAT
  1
CONTENTFORMAT_BEGIN
 90
        0
 91
        0
 92
      512
 93
        0
300

 40
0.0
140
1.0
 94
        2
 62
     0
340
55
144
0.18
309
CONTENTFORMAT_END
171
     1
301
MARGIN
  1
CELLMARGIN_BEGIN
 40
1.5
 40
1.5
 40
1.5
 40
1.5
 40
0.18
 40
0.18
309
CELLMARGIN_END
 94
        0
309
TABLEFORMAT_END
  1
CELLSTYLE_BEGIN
 90
        3
 91
        2
300
_DATA
309
CELLSTYLE_END
  0
ENDSEC
  0
EOF
